<svg width="171" height="157" viewBox="0 0 171 157" fill="none" xmlns="http://www.w3.org/2000/svg">
<rect width="170.385" height="155.397" rx="26.8198" fill="#FCC221"/>
<foreignObject x="-7.88818" y="28.397" width="186.161" height="135.675"><div xmlns="http://www.w3.org/1999/xhtml" style="backdrop-filter:blur(3.94px);clip-path:url(#bgblur_0_1852_6254_clip_path);height:100%;width:100%"></div></foreignObject><path data-figma-bg-blur-radius="7.88818" d="M170.385 129.366C170.385 144.178 158.377 156.186 143.565 156.186H26.8198C12.0076 156.186 0 144.178 0 129.366V63.1049C0 48.2928 12.0076 36.2852 26.8198 36.2852H79.6704C89.2548 36.2852 97.0244 44.0548 97.0244 53.6392C97.0244 63.2235 104.794 70.9932 114.378 70.9932H143.565C158.377 70.9932 170.385 83.0008 170.385 97.813V129.366Z" fill="white" fill-opacity="0.4"/>
<defs>
<clipPath id="bgblur_0_1852_6254_clip_path" transform="translate(7.88818 -28.397)"><path d="M170.385 129.366C170.385 144.178 158.377 156.186 143.565 156.186H26.8198C12.0076 156.186 0 144.178 0 129.366V63.1049C0 48.2928 12.0076 36.2852 26.8198 36.2852H79.6704C89.2548 36.2852 97.0244 44.0548 97.0244 53.6392C97.0244 63.2235 104.794 70.9932 114.378 70.9932H143.565C158.377 70.9932 170.385 83.0008 170.385 97.813V129.366Z"/>
</clipPath></defs>
</svg>
