<svg width="64" height="64" viewBox="0 0 64 64" fill="none" xmlns="http://www.w3.org/2000/svg">
<path d="M17.2366 23.6669C16.8891 24.2 16.1754 24.3505 15.6423 24.0031L9.20744 19.8094C8.67436 19.4619 8.52385 18.7482 8.87127 18.2151C9.2187 17.682 9.93248 17.5315 10.4656 17.8789L16.9004 22.0727C17.4335 22.4201 17.584 23.1339 17.2366 23.6669Z" fill="white"/>
<path d="M18.4859 22.7884C19.0757 22.5497 19.3605 21.8781 19.1219 21.2883L16.2417 14.1679C16.0031 13.5781 15.3314 13.2933 14.7416 13.5319C14.1517 13.7705 13.867 14.4422 14.1056 15.032L16.9858 22.1523C17.2244 22.7422 17.896 23.027 18.4859 22.7884Z" fill="white"/>
<path d="M18.1809 23.3505C17.6897 23.7549 16.9636 23.6846 16.5592 23.1933L11.6772 17.2637C11.2727 16.7724 11.3431 16.0464 11.8343 15.6419C12.3255 15.2375 13.0516 15.3079 13.4561 15.7991L18.3381 21.7287C18.7425 22.22 18.6721 22.9461 18.1809 23.3505Z" fill="white"/>
<path d="M27.1114 30.8763C27.9225 32.9074 25.6465 34.7814 23.8089 33.5954L12.9974 26.6175C11.7201 25.7931 11.6142 23.9641 12.7878 22.9978L18.827 18.0256C20.0007 17.0593 21.7753 17.5144 22.3391 18.9262L27.1114 30.8763Z" fill="#00AAF9"/>
<circle cx="35.0064" cy="25.3863" r="8.41755" fill="#00AAF9"/>
<circle cx="45.2272" cy="29.5963" r="10.2213" fill="#00AAF9"/>
<rect x="28.9941" y="48.2344" width="15.6326" height="6.01253" rx="1.20251" fill="#00AAF9"/>
<path d="M59.0562 27.7927C59.0562 33.6928 56.7124 39.3512 52.5404 43.5232C48.3684 47.6953 42.71 50.0391 36.8099 50.0391C30.9098 50.0391 25.2513 47.6953 21.0793 43.5233C16.9073 39.3512 14.5635 33.6928 14.5635 27.7927L59.0562 27.7927Z" fill="white"/>
</svg>
