<svg width="64" height="64" viewBox="0 0 64 64" fill="none" xmlns="http://www.w3.org/2000/svg">
<path d="M8 24L31.3333 8L56 24H8Z" fill="white"/>
<path d="M8 24H56V56H8V24Z" fill="white"/>
<path d="M32 47.0781L42.3101 36.7785C43.3921 35.7129 44 34.2675 44 32.7605C44 31.2534 43.3921 29.8081 42.3101 28.7424C41.2281 27.6768 39.7606 27.0781 38.2304 27.0781C36.7002 27.0781 35.2326 27.6768 34.1506 28.7424L32 30.7151L29.8494 28.7424C28.7674 27.6768 27.2998 27.0781 25.7696 27.0781C24.2394 27.0781 22.7719 27.6768 21.6899 28.7424C20.6079 29.8081 20 31.2534 20 32.7605C20 34.2675 20.6079 35.7129 21.6899 36.7785L32 47.0781Z" fill="#00AAF9"/>
</svg>
