<svg width="29" height="28" viewBox="0 0 29 28" fill="none" xmlns="http://www.w3.org/2000/svg">
<g filter="url(#filter0_d_23_590)">
<path d="M13.3234 5.55307V5.66686C13.3234 5.74191 13.2623 5.80275 13.1869 5.80275C13.1115 5.80275 13.0503 5.74191 13.0503 5.66686V5.42173C13.0503 4.52607 12.3207 3.79999 11.4207 3.79999C10.5206 3.79999 9.791 4.52607 9.791 5.42173V10.0746C9.791 10.3084 9.60056 10.4979 9.36564 10.4979C9.16136 10.4979 8.98593 10.3534 8.94777 10.1537L8.55459 8.09586C8.45458 7.57247 8.03465 7.12196 7.5223 7.27648C6.44788 7.60053 5.38138 8.9062 5.95949 11.1305L6.51324 13.5943C6.7997 14.8689 7.10652 16.177 7.90235 17.2156C8.31823 17.7583 8.81281 18.2351 9.37148 18.6273C10.4603 19.3918 11.743 19.8001 13.0555 19.8H18.1795C21.095 19.8 22.7968 17.3373 22.7968 14.2967V7.15002C22.7968 6.44216 22.2729 5.84242 21.5685 5.74394L21.4605 5.72884C20.659 5.61678 19.9431 6.23608 19.9431 7.04152V7.11858C19.9431 7.18368 19.8901 7.23646 19.8247 7.23646C19.7604 7.23646 19.7079 7.18646 19.7063 7.12254C19.701 6.90602 19.6893 6.40769 19.6789 5.86176C19.6631 5.02689 18.98 4.34976 18.1409 4.34976C17.3018 4.34976 16.6215 5.02667 16.6215 5.8617V6.09278C16.6215 6.14876 16.5759 6.19415 16.5197 6.19415C16.4634 6.19415 16.4178 6.14925 16.4178 6.09326V5.59474C16.4178 4.74441 15.7251 4.05494 14.8706 4.05494H14.8289C13.9975 4.05494 13.3234 4.72568 13.3234 5.55307Z" fill="white"/>
<path d="M11.4208 2.8996C12.1567 2.89963 12.8181 3.21674 13.2811 3.71893C13.7002 3.36732 14.2402 3.15448 14.829 3.15448H14.871C15.5832 3.15458 16.2239 3.46119 16.6718 3.94745C17.0797 3.63598 17.5886 3.44948 18.1405 3.4494C19.1701 3.4494 20.046 4.09112 20.4042 4.99139C20.763 4.83932 21.1675 4.7788 21.5849 4.8371L21.6933 4.85272C22.8387 5.01297 23.697 5.98978 23.6972 7.1496V14.2971C23.6971 15.9759 23.2281 17.5618 22.287 18.7482C21.3302 19.9544 19.918 20.7003 18.1796 20.7004H13.0556C11.5553 20.7005 10.0925 20.2327 8.85439 19.3635C8.21948 18.9177 7.65889 18.3769 7.18837 17.7629C6.25322 16.5426 5.91525 15.0353 5.63564 13.7912L5.08095 11.3283L5.08192 11.3273C4.41641 8.71735 5.668 6.89616 7.26259 6.41522L7.37392 6.38495C7.92846 6.25839 8.43186 6.44545 8.78505 6.75409C8.82166 6.7861 8.85685 6.82017 8.89052 6.85468V5.42206C8.89052 4.02521 10.0278 2.8996 11.4208 2.8996Z" stroke="black" stroke-width="1.8" stroke-linecap="round" stroke-linejoin="round"/>
</g>
<defs>
<filter id="filter0_d_23_590" x="0" y="0" width="28.5968" height="27.6" filterUnits="userSpaceOnUse" color-interpolation-filters="sRGB">
<feFlood flood-opacity="0" result="BackgroundImageFix"/>
<feColorMatrix in="SourceAlpha" type="matrix" values="0 0 0 0 0 0 0 0 0 0 0 0 0 0 0 0 0 0 127 0" result="hardAlpha"/>
<feOffset dy="2"/>
<feGaussianBlur stdDeviation="2"/>
<feComposite in2="hardAlpha" operator="out"/>
<feColorMatrix type="matrix" values="0 0 0 0 0 0 0 0 0 0 0 0 0 0 0 0 0 0 0.05 0"/>
<feBlend mode="normal" in2="BackgroundImageFix" result="effect1_dropShadow_23_590"/>
<feBlend mode="normal" in="SourceGraphic" in2="effect1_dropShadow_23_590" result="shape"/>
</filter>
</defs>
</svg>
