<svg width="32" height="37" viewBox="0 0 32 37" fill="none" xmlns="http://www.w3.org/2000/svg">
<g filter="url(#filter0_d_23_592)">
<path d="M7.76002 16.274C8.41048 17.1087 10.0809 19.019 11.1307 20.2093C11.4497 20.571 12.0334 20.3399 12.0292 19.8537C11.9935 15.7388 11.8073 11.6276 11.6344 7.5161C11.6156 7.0689 11.9664 6.69603 12.4056 6.69603C12.7823 6.69603 13.104 6.97307 13.1669 7.35159L14.4532 15.0961C14.5142 15.4637 14.8266 15.7327 15.1924 15.7327C15.5903 15.7327 15.9189 15.416 15.941 15.0111L16.5117 4.57016C16.5353 4.13805 16.886 3.79999 17.3106 3.79999C17.7436 3.79999 18.0981 4.15098 18.1105 4.59207L18.4191 15.5245C18.4274 15.8204 18.6444 16.0669 18.9321 16.1073C19.267 16.1544 19.5729 15.9078 19.6052 15.5649L20.4177 6.9213C20.4591 6.48152 20.8216 6.14578 21.2551 6.14578C21.7347 6.14578 22.1173 6.55385 22.0954 7.04214L21.6954 15.9748C21.6812 16.2915 21.905 16.5674 22.2128 16.6129C22.5099 16.6567 22.7936 16.4718 22.8792 16.1786L24.2638 11.4335C24.3902 11.0006 24.8432 10.7602 25.2636 10.9031C25.6257 11.0261 25.8484 11.3969 25.791 11.7815L23.9961 23.8176C23.4402 26.7715 22.4917 28.8 19.9143 28.8H15.3846C14.2243 28.8001 13.0903 28.4304 12.1278 27.7383C11.1652 27.0463 10.4179 26.0632 9.98138 24.915L5.79999 16.274C6.28014 15.2954 7.14737 15.4879 7.76002 16.274Z" fill="white"/>
<path d="M17.4836 2.90839C18.3356 2.99454 18.9858 3.71105 19.0099 4.56659L19.1769 10.4992L19.5217 6.8371L19.5451 6.67303C19.6983 5.86379 20.4003 5.24531 21.2551 5.2453C22.2646 5.2453 23.0383 6.09889 22.9943 7.08221L22.7043 13.5627L23.3996 11.1818L23.4582 11.0148C23.7652 10.2609 24.5734 9.81989 25.3801 10.0021L25.5529 10.051L25.6965 10.1066C26.3932 10.4162 26.7933 11.1603 26.6808 11.9142L24.8859 23.9504C24.8842 23.9616 24.8831 23.9734 24.881 23.9846C24.5985 25.4859 24.1941 26.8969 23.4445 27.9416C22.6469 29.053 21.4932 29.7004 19.9142 29.7004H15.3849C14.0318 29.7005 12.7148 29.2684 11.6027 28.4689C10.5042 27.6791 9.65663 26.5674 9.15741 25.2795L4.98944 16.6662C4.86894 16.4171 4.87058 16.1265 4.99237 15.8781C5.34513 15.1591 5.97504 14.6586 6.7912 14.7141C7.50217 14.7625 8.08259 15.2239 8.46991 15.7209C8.97361 16.3672 10.1316 17.7016 11.1154 18.8244C11.0608 15.0739 10.894 11.3235 10.7355 7.55389C10.6959 6.61213 11.4377 5.79616 12.4055 5.79608L12.5598 5.80292C13.2682 5.86814 13.8483 6.37879 14.0236 7.05682L14.0549 7.20428L15.1164 13.5978L15.6135 4.52069L15.6301 4.35565C15.754 3.53865 16.4506 2.8996 17.3107 2.8996L17.4836 2.90839Z" stroke="black" stroke-width="1.8" stroke-linecap="round" stroke-linejoin="round"/>
</g>
<defs>
<filter id="filter0_d_23_592" x="0" y="0" width="31.5999" height="36.6" filterUnits="userSpaceOnUse" color-interpolation-filters="sRGB">
<feFlood flood-opacity="0" result="BackgroundImageFix"/>
<feColorMatrix in="SourceAlpha" type="matrix" values="0 0 0 0 0 0 0 0 0 0 0 0 0 0 0 0 0 0 127 0" result="hardAlpha"/>
<feOffset dy="2"/>
<feGaussianBlur stdDeviation="2"/>
<feComposite in2="hardAlpha" operator="out"/>
<feColorMatrix type="matrix" values="0 0 0 0 0 0 0 0 0 0 0 0 0 0 0 0 0 0 0.05 0"/>
<feBlend mode="normal" in2="BackgroundImageFix" result="effect1_dropShadow_23_592"/>
<feBlend mode="normal" in="SourceGraphic" in2="effect1_dropShadow_23_592" result="shape"/>
</filter>
</defs>
</svg>
