<svg width="461" height="380" viewBox="0 0 461 380" fill="none" xmlns="http://www.w3.org/2000/svg">
<path d="M72.3202 0C76.715 7.0391e-05 84.6194 1.10452 91.3255 7.63825C91.4124 7.63749 91.4993 7.63575 91.5863 7.63575H104.608C109.282 7.63579 114.022 8.74575 118.34 11.0562C122.659 8.74595 127.399 7.63575 132.072 7.63575H145.093C152.65 7.63576 159.704 10.5219 165.059 15.5611C165.248 15.7388 165.435 15.9194 165.618 16.1028L171.258 21.7424L172.875 19.4417L173.181 19.0166C179.127 10.9079 187.987 7.63575 195.782 7.63575H216.972C224.105 7.6359 233.564 10.4687 239.816 19.3589H239.819L253.847 39.163C253.857 39.1771 253.868 39.1914 253.878 39.2056L253.905 39.2457C257.13 43.7937 259.222 49.5084 259.222 55.8638V110.732C259.222 114.831 258.261 121.983 252.831 128.368C257.444 128.623 264.539 130.157 270.595 136.213C277.356 142.974 278.487 151.029 278.487 155.481V169.304C282.05 174.867 282.747 180.576 282.747 184.068V208.392C283.356 207.706 283.991 206.997 284.628 206.308C288.046 202.612 292.101 198.571 295.477 195.203L298.578 192.096C310.069 180.478 329.163 163.387 349.389 148.423C359.524 140.925 370.34 133.664 380.932 127.843C391.154 122.225 402.852 116.997 414.427 115.083L415.141 114.975C415.857 114.877 416.577 114.809 417.299 114.772C418.083 114.732 418.885 114.712 419.71 114.715L420.543 114.727L420.598 114.728C427.853 114.914 434.794 116.651 441.27 120.632C446.654 123.942 450.683 128.32 452.421 130.131C455.242 133.071 457.323 136.639 458.492 140.542C462.668 154.482 459.331 166.907 455.655 175.427C452.202 183.428 447.01 191.009 444.615 194.755L444.61 194.762C420.142 233.003 386.978 263.726 354.589 290.336C354.461 290.522 354.282 290.78 353.945 291.263C353.449 291.973 352.589 293.191 351.513 294.5C349.294 297.199 345.348 301.315 339.117 304.084C338.186 304.499 337.253 304.859 336.323 305.173C335.967 305.503 335.559 305.867 335.104 306.245C334.7 306.58 334.144 307.019 333.451 307.51C331.148 309.246 328.851 310.871 326.767 312.323C323.692 324.905 317.227 336.503 307.951 345.786C294.373 359.458 276.307 366.813 260.277 370.887C243.88 375.053 227.01 376.443 213.18 376.405C211.901 376.401 210.623 376.301 209.359 376.107C208.516 375.978 207.677 375.867 206.619 375.729C205.663 375.604 204.342 375.433 203.037 375.23C201.973 375.064 200.602 374.832 199.035 374.475C193.228 378.498 187.139 379.265 183.481 379.265H164.778C162.898 379.265 160.793 379.072 158.578 378.571C156.193 379.108 154.054 379.265 152.408 379.265H130.744C129.927 379.265 128.989 379.224 127.96 379.12C126.93 379.224 125.992 379.265 125.175 379.265H83.9794C83.1631 379.265 82.2257 379.224 81.1972 379.12C80.1687 379.224 79.2313 379.265 78.415 379.265H56.7515C55.6316 379.265 54.2837 379.192 52.7857 378.977C51.2881 379.192 49.9407 379.265 48.8211 379.265H27.1577C22.7063 379.265 14.6521 378.134 7.89152 371.373C1.13109 364.613 8.62212e-05 356.558 0 352.107V276.168C0 271.717 1.13084 263.661 7.89152 256.901C9.09925 255.693 10.3492 254.667 11.6116 253.793C10.3494 252.919 9.09906 251.893 7.89152 250.686C1.13109 243.925 8.62212e-05 235.871 0 231.42V155.481C0 151.029 1.13084 142.974 7.89152 136.213C9.09925 135.006 10.3492 133.979 11.6116 133.105C10.3493 132.231 9.09787 131.206 7.89027 129.998C1.1303 123.238 8.62192e-05 115.184 0 110.732V34.7934C0 30.342 1.13087 22.2867 7.89152 15.526C14.652 8.76581 22.7063 7.63578 27.1577 7.63575H35.5006C42.2064 1.10389 50.1104 0 54.5047 0H72.3202Z" fill="white"/>
<path d="M27.8191 113.6C26.8327 113.6 26.3394 113.106 26.3394 112.12V36.1815C26.3394 35.195 26.8327 34.7018 27.8191 34.7018H49.482C50.4685 34.7018 50.9617 35.195 50.9617 36.1815V112.12C50.9617 113.106 50.4685 113.6 49.482 113.6H27.8191ZM56.4083 58.377C55.4218 58.377 54.9286 57.8838 54.9286 56.8973V48.9661C54.9286 47.9796 55.4218 47.4864 56.4083 47.4864H60.5515C61.6958 47.4864 62.2679 46.9932 62.2679 46.0067V44.3494H55.047C54.0605 44.3494 53.5673 43.8562 53.5673 42.8697L53.6856 28.5462C53.6856 27.5597 54.1789 27.0665 55.1654 27.0665H72.981C73.9675 27.0665 74.4607 27.5597 74.4607 28.5462V45.8291C74.4607 50.0512 73.4545 53.2079 71.4421 55.2992C69.4692 57.3511 66.8057 58.377 63.4517 58.377H56.4083ZM78.5756 113.6C77.5891 113.6 77.0959 113.106 77.0959 112.12V49.8539C77.0959 48.9464 77.4115 48.1572 78.0429 47.4864L89.8805 35.6488C90.5513 35.0174 91.3405 34.7018 92.248 34.7018H105.269C106.216 34.7018 107.006 35.0174 107.637 35.6488L117.64 45.6516H120.362L130.365 35.6488C130.997 35.0174 131.786 34.7018 132.733 34.7018H145.754C146.662 34.7018 147.451 35.0174 148.122 35.6488L159.959 47.4864C160.591 48.1572 160.906 48.9464 160.906 49.8539V112.12C160.906 113.106 160.413 113.6 159.427 113.6H137.764C136.777 113.6 136.284 113.106 136.284 112.12V63.2896H131.312V112.12C131.312 113.106 130.819 113.6 129.833 113.6H108.17C107.183 113.6 106.69 113.106 106.69 112.12V63.2896H101.718V112.12C101.718 113.106 101.225 113.6 100.238 113.6H78.5756ZM181.468 113.6C180.482 113.6 179.989 113.106 179.989 112.12V57.2525C179.989 56.6211 180.186 56.0292 180.581 55.4768L194.549 35.5896C194.983 34.9977 195.614 34.7018 196.443 34.7018H217.632C218.501 34.7018 219.132 34.9977 219.526 35.5896L233.613 55.4768C234.008 56.0292 234.205 56.6211 234.205 57.2525V112.12C234.205 113.106 233.712 113.6 232.725 113.6H211.063C210.076 113.6 209.583 113.106 209.583 112.12V89.9243H204.611V112.12C204.611 113.106 204.118 113.6 203.131 113.6H181.468ZM207.097 69.386C208.794 69.386 210.175 68.8533 211.24 67.788C212.306 66.7226 212.838 65.3612 212.838 63.704C212.838 62.0072 212.306 60.6262 211.24 59.5608C210.175 58.4954 208.794 57.9627 207.097 57.9627C205.4 57.9627 204.019 58.4954 202.954 59.5608C201.888 60.6262 201.356 62.0072 201.356 63.704C201.356 65.3612 201.888 66.7226 202.954 67.788C204.019 68.8533 205.4 69.386 207.097 69.386ZM27.8191 233.6C26.8327 233.6 26.3394 233.106 26.3394 232.12V156.181C26.3394 155.195 26.8327 154.702 27.8191 154.702H65.4036C66.3112 154.702 67.1004 155.017 67.7712 155.649L79.6088 167.486C80.2401 168.157 80.5558 168.946 80.5558 169.854V218.388C80.5558 219.335 80.2401 220.124 79.6088 220.756L67.7712 232.593C67.1004 233.264 66.3112 233.6 65.4036 233.6H27.8191ZM50.9617 209.924H53.4476C55.1049 209.924 55.9335 208.8 55.9335 206.551V181.692C55.9335 179.482 55.1049 178.377 53.4476 178.377H50.9617V209.924ZM84.6411 233.6C83.6546 233.6 83.1614 233.106 83.1614 232.12V156.181C83.1614 155.195 83.6546 154.702 84.6411 154.702H125.836C126.823 154.702 127.316 155.195 127.316 156.181V176.897C127.316 177.884 126.823 178.377 125.836 178.377H107.784V183.29H125.836C126.823 183.29 127.316 183.783 127.316 184.769V203.532C127.316 204.518 126.823 205.012 125.836 205.012H107.784V209.924H125.836C126.823 209.924 127.316 210.418 127.316 211.404V232.12C127.316 233.106 126.823 233.6 125.836 233.6H84.6411ZM131.406 233.6C130.419 233.6 129.926 233.106 129.926 232.12V215.429C129.926 214.955 129.946 214.58 129.985 214.304C130.064 213.989 130.301 213.712 130.695 213.476L143.243 206.255V203.295L130.873 196.785C130.242 196.429 129.926 195.838 129.926 195.009V168.374C129.926 167.743 129.965 167.289 130.044 167.013C130.123 166.697 130.399 166.362 130.873 166.007L146.499 155.471C146.814 155.234 147.15 155.057 147.505 154.939C147.86 154.781 148.314 154.702 148.866 154.702H169.76C170.746 154.702 171.239 155.195 171.239 156.181V173.701C171.239 174.569 170.943 175.161 170.351 175.477L154.844 182.283V185.361L170.351 194.239C170.943 194.516 171.239 195.147 171.239 196.133V221.88C171.239 222.196 171.18 222.531 171.062 222.887C170.983 223.202 170.786 223.459 170.47 223.656L151.885 232.889C151.648 233.047 151.352 233.205 150.997 233.363C150.681 233.521 150.366 233.6 150.05 233.6H131.406ZM175.28 233.6C174.294 233.6 173.8 233.106 173.8 232.12V156.181C173.8 155.195 174.294 154.702 175.28 154.702H196.943C197.93 154.702 198.423 155.195 198.423 156.181V232.12C198.423 233.106 197.93 233.6 196.943 233.6H175.28ZM216.18 233.6C215.273 233.6 214.484 233.264 213.813 232.593L201.975 220.756C201.344 220.124 201.028 219.335 201.028 218.388V169.854C201.028 168.946 201.344 168.157 201.975 167.486L213.813 155.649C214.484 155.017 215.273 154.702 216.18 154.702H251.989C252.976 154.702 253.469 155.195 253.469 156.181V176.897C253.469 177.884 252.976 178.377 251.989 178.377H227.663C227.111 178.377 226.637 178.574 226.242 178.969C225.848 179.324 225.651 179.778 225.651 180.33V207.971C225.651 208.484 225.848 208.938 226.242 209.332C226.637 209.727 227.111 209.924 227.663 209.924H236.009V201.164L231.096 201.046C230.109 201.046 229.616 200.553 229.616 199.566V184.769C229.616 183.783 230.109 183.29 231.096 183.29H256.251C257.237 183.29 257.731 183.783 257.731 184.769V218.388C257.731 219.335 257.395 220.124 256.724 220.756L244.887 232.593C244.255 233.264 243.466 233.6 242.519 233.6H216.18ZM27.8191 354.6C26.8327 354.6 26.3394 354.106 26.3394 353.12V277.181C26.3394 276.195 26.8327 275.702 27.8191 275.702H65.4036C66.3112 275.702 67.1004 276.017 67.7712 276.649L79.6088 288.486C80.2401 289.157 80.5558 289.946 80.5558 290.854V353.12C80.5558 354.106 80.0626 354.6 79.0761 354.6H57.4132C56.4268 354.6 55.9335 354.106 55.9335 353.12V299.377H50.9617V353.12C50.9617 354.106 50.4685 354.6 49.482 354.6H27.8191ZM84.6411 354.6C83.6546 354.6 83.1614 354.106 83.1614 353.12V277.181C83.1614 276.195 83.6546 275.702 84.6411 275.702H125.836C126.823 275.702 127.316 276.195 127.316 277.181V297.897C127.316 298.884 126.823 299.377 125.836 299.377H107.784V304.29H125.836C126.823 304.29 127.316 304.783 127.316 305.769V324.532C127.316 325.518 126.823 326.012 125.836 326.012H107.784V330.924H125.836C126.823 330.924 127.316 331.418 127.316 332.404V353.12C127.316 354.106 126.823 354.6 125.836 354.6H84.6411ZM131.406 354.6C130.419 354.6 129.926 354.106 129.926 353.12V277.181C129.926 276.195 130.419 275.702 131.406 275.702H167.57C168.596 275.702 169.385 275.958 169.937 276.471L183.55 289.966C183.984 290.361 184.261 290.696 184.379 290.972C184.497 291.249 184.557 291.702 184.557 292.334V308.551C184.557 309.064 184.221 309.656 183.55 310.327L175.382 318.495L174.08 319.679L177.75 325.183L185.149 339.388C185.346 339.743 185.464 340.099 185.504 340.454C185.583 340.769 185.622 341.184 185.622 341.697V353.12C185.622 354.106 185.129 354.6 184.142 354.6H165.439C164.571 354.6 163.979 354.205 163.663 353.416L155.554 332.582H154.548V353.12C154.548 354.106 154.055 354.6 153.069 354.6H131.406ZM157.212 307.841C158.83 307.841 160.132 307.328 161.118 306.302C162.144 305.276 162.657 303.974 162.657 302.396C162.657 300.817 162.144 299.535 161.118 298.548C160.132 297.522 158.83 297.01 157.212 297.01C155.633 297.01 154.331 297.522 153.305 298.548C152.319 299.535 151.826 300.817 151.826 302.396C151.826 303.974 152.319 305.276 153.305 306.302C154.331 307.328 155.633 307.841 157.212 307.841Z" fill="black"/>
<path d="M419.273 142.085C419.718 142.062 420.155 142.055 420.597 142.065C427.394 142.24 430.172 145.014 434.552 149.578C438.104 161.434 429.796 172.961 423.639 182.591C401.108 217.806 369.99 246.74 337.859 273.06C332.806 277.199 332.581 283.822 324.641 282.793C323.283 282.63 320.302 287.683 319.137 288.31C314.157 292.103 308.798 295.534 303.737 299.292C303.182 310.624 298.424 321.348 290.391 329.36C272.474 347.4 238.391 352.462 213.91 352.394C204.639 350.972 199.175 351.675 195.872 341.646L198.767 336.001C219.136 327.414 220.466 315.874 221.627 296.167C222.983 273.135 248.582 262.404 269.285 264.479C275.106 259.275 279.781 251.645 285.084 245.689C286.842 243.714 289.029 239.943 290.974 237.939C292.39 236.48 295.012 235.526 296.525 233.936C299.087 231.245 301.646 228.107 304.14 225.409C308.314 220.896 313.223 216.139 317.493 211.822C338.702 190.378 389.894 146.942 419.273 142.085Z" fill="black"/>
<path d="M416.059 156.444C418.362 156.571 418.672 156.528 420.223 157.812C421.639 161.736 414.194 172.812 411.642 176.379C388.768 208.298 359.672 237.265 329.102 261.854C326.27 258.357 324.059 255.562 320.83 252.393C317.889 248.807 312.202 244.137 308.549 240.684C329.06 216.766 386.892 164.972 416.059 156.444Z" fill="white"/>
<path d="M269.409 276.747C275.088 276.245 285.739 290.143 289.832 294.78C288.868 304.332 288.224 310.174 281.891 318.186C278.944 321.914 273.019 326.871 268.15 327.356L266.961 326.153C263.037 324.811 251.644 332.485 249.618 332.495C250.597 330.405 254.901 328.689 255.468 327.429C256.992 324.049 258.456 320.999 260.264 317.713C261.56 314.267 262.4 305.52 257.806 305.729C250.614 306.066 240.861 317.973 234.683 322.09L234.104 322.475C241.205 313.369 236.835 309.15 236.573 299.056C236.112 281.227 255.42 277.003 269.409 276.747Z" fill="white"/>
<path d="M298.749 251.922C304.239 255.564 314.238 265.343 316.543 271.787C311.957 275.508 306.555 279.468 301.819 283.057L301.108 283.231C299.457 282.804 286.685 269.117 284.669 266.915C288.098 262.873 294.812 255.107 298.749 251.922Z" fill="white"/>
<path d="M179.412 341.092H181.97L180.685 339.279L179.412 341.092Z" fill="black"/>
</svg>
