<svg width="485" height="340" viewBox="0 0 485 340" fill="none" xmlns="http://www.w3.org/2000/svg">
<path d="M342.068 0.000315365C367.897 -0.0721157 389.739 12.3373 401.882 31.8421C414.028 51.353 415.53 76.4523 404.047 99.6849C403.069 101.663 401.969 103.566 400.794 105.387C401.781 106.947 402.609 108.483 403.327 109.921C406.835 108.955 410.602 107.492 414.914 105.545C417.94 104.179 420.941 102.716 424.335 101.076C427.619 99.4899 431.233 97.7579 434.962 96.1448L434.964 96.1439C435.717 95.818 436.438 95.4779 437.658 94.9105C438.745 94.405 440.211 93.7282 441.812 93.0833C445.066 91.7717 449.6 90.2772 455.098 89.9954C461.556 89.6647 468.965 91.2806 475.102 96.7015C480.938 101.857 483.339 108.449 484.264 113.653C484.482 114.881 484.584 116.126 484.57 117.373C484.395 133.071 483.113 148.936 481.926 163.942C480.718 179.206 479.605 193.633 479.524 207.647C479.503 211.35 478.454 214.974 476.495 218.116C473.6 222.757 469.272 227.947 462.658 231.033C455.494 234.374 448.643 233.883 443.621 232.549C439.262 231.391 435.411 229.338 433.527 228.351C431.014 227.034 429.835 226.398 428.547 225.881H428.545C423.096 223.693 417.904 220.894 413.83 218.703C410.101 216.699 407.187 215.14 404.505 213.923C403.845 213.942 402.864 213.957 401.82 213.91C400.982 213.871 400.063 213.791 399.082 213.65C397.83 216.65 395.932 219.939 392.986 222.979L392.978 222.987C389.209 226.871 384.821 228.905 381.914 230.007C378.755 231.205 375.5 231.979 372.591 232.515C368.591 233.252 364.273 233.712 360.062 234.006C360.915 235.378 361.772 236.78 362.62 238.201H376.057C380.983 238.202 385.634 239.778 389.465 242.592C393.532 239.514 398.318 238.201 402.677 238.201H419.181C424.737 238.202 432.104 240.409 436.974 247.333L436.976 247.332L447.901 262.758C447.908 262.767 447.915 262.777 447.922 262.786L447.947 262.823C450.459 266.365 452.088 270.816 452.088 275.766V318.5C452.088 321.967 451.208 328.241 445.942 333.507C440.677 338.773 434.403 339.653 430.936 339.653H414.063C413.191 339.653 412.141 339.596 410.974 339.429C409.807 339.596 408.758 339.653 407.886 339.653H391.013C387.916 339.653 382.582 338.948 377.726 335.046C372.869 338.948 367.536 339.653 364.439 339.653H347.566C346.931 339.653 346.201 339.621 345.399 339.54C344.598 339.621 343.868 339.653 343.232 339.653H326.359C325.487 339.653 324.437 339.596 323.271 339.429C322.104 339.596 321.054 339.653 320.182 339.653H303.31C302.671 339.653 301.938 339.621 301.133 339.539C300.328 339.621 299.595 339.653 298.957 339.653H284.39C282.926 339.653 281.287 339.502 279.562 339.113C277.704 339.531 276.038 339.653 274.755 339.653H257.882C256.042 339.653 253.411 339.405 250.56 338.385C248.159 339.225 245.631 339.653 243.078 339.653H222.563C217.771 339.653 213.356 338.159 209.717 335.633C205.904 338.29 201.415 339.653 196.848 339.653H177.946C175.284 339.653 172.739 339.19 170.378 338.348C167.489 339.397 164.82 339.653 162.959 339.653H130.873C129.012 339.653 126.343 339.398 123.455 338.349C121.095 339.191 118.55 339.653 115.89 339.653H86.6162C85.9804 339.653 85.2503 339.621 84.4492 339.54C83.6481 339.621 82.9181 339.653 82.2822 339.653H65.4092C63.5483 339.653 60.8793 339.398 57.9912 338.349C55.6309 339.191 53.0865 339.653 50.4258 339.653H31.8018C25.5289 339.653 19.8995 337.095 15.8154 333.011L6.5957 323.791C2.10809 319.304 0 313.49 0 307.805V259.354C4.30478e-05 255.887 0.880908 249.614 6.14648 244.348C7.08715 243.407 8.06069 242.608 9.04395 241.927C8.06085 241.246 7.087 240.448 6.14648 239.507C0.880774 234.241 0 227.967 0 224.5V165.354C4.30478e-05 161.887 0.880908 155.614 6.14648 150.348C11.4121 145.082 17.6853 144.202 21.1523 144.201H27.6504C32.8734 139.114 39.0297 138.254 42.4521 138.254H56.3281C59.7511 138.254 65.9077 139.115 71.1309 144.203C71.1985 144.203 71.2662 144.201 71.334 144.201H81.4766C85.1159 144.202 88.8076 145.066 92.1709 146.866C95.5345 145.066 99.2274 144.201 102.867 144.201H113.009C118.711 144.202 124.046 146.312 128.165 150.012L128.56 150.375L128.995 150.797L133.388 155.19L134.647 153.398L134.886 153.066C139.517 146.75 146.418 144.201 152.489 144.201H168.993C172.779 144.202 177.404 145.228 181.509 148.07C181.489 146.76 181.548 145.337 181.742 143.842C182.766 135.972 184.438 131.005 184.874 129.636C184.865 128.995 184.787 127.542 184.391 124.563C183.831 120.357 184.623 116.082 186.653 112.356C187.815 110.223 189.25 107.499 191.187 104.743C183.902 91.6311 180.873 76.2003 184.616 59.1107C195.635 8.80582 255.554 -16.5728 298.141 17.096C302.204 13.5625 306.578 10.5687 311.409 8.11164C320.476 3.50064 329.939 1.40775 339.562 0.164378L340.186 0.0940654C340.811 0.0331325 341.44 0.00207986 342.068 0.000315365Z" fill="white"/>
<path d="M21.1525 225.653C20.3842 225.653 20 225.269 20 224.501V165.354C20 164.586 20.3842 164.202 21.1525 164.202H38.0251C38.7934 164.202 39.1776 164.586 39.1776 165.354V224.501C39.1776 225.269 38.7934 225.653 38.0251 225.653H21.1525Z" fill="white"/>
<path d="M43.4198 182.642C42.6515 182.642 42.2673 182.258 42.2673 181.489V175.312C42.2673 174.544 42.6515 174.16 43.4198 174.16H46.6468C47.5381 174.16 47.9837 173.775 47.9837 173.007V171.716H42.3595C41.5912 171.716 41.207 171.332 41.207 170.564L41.2992 159.408C41.2992 158.639 41.6834 158.255 42.4517 158.255H56.3278C57.0961 158.255 57.4803 158.639 57.4803 159.408V172.869C57.4803 176.157 56.6966 178.616 55.1292 180.245C53.5925 181.843 51.518 182.642 48.9057 182.642H43.4198Z" fill="white"/>
<path d="M60.6852 225.653C59.9169 225.653 59.5327 225.269 59.5327 224.501V176.004C59.5327 175.297 59.7786 174.682 60.2703 174.16L69.4903 164.94C70.0128 164.448 70.6275 164.202 71.3344 164.202H81.4763C82.214 164.202 82.8286 164.448 83.3204 164.94L91.1113 172.73H93.2318L101.023 164.94C101.514 164.448 102.129 164.202 102.867 164.202H113.009C113.716 164.202 114.33 164.448 114.853 164.94L124.073 174.16C124.564 174.682 124.81 175.297 124.81 176.004V224.501C124.81 225.269 124.426 225.653 123.658 225.653H106.785C106.017 225.653 105.633 225.269 105.633 224.501V186.468H101.76V224.501C101.76 225.269 101.376 225.653 100.608 225.653H83.7352C82.9669 225.653 82.5828 225.269 82.5828 224.501V186.468H78.7104V224.501C78.7104 225.269 78.3262 225.653 77.5578 225.653H60.6852Z" fill="white"/>
<path d="M140.826 225.653C140.057 225.653 139.673 225.269 139.673 224.501V181.766C139.673 181.274 139.827 180.813 140.134 180.383L151.014 164.893C151.352 164.432 151.844 164.202 152.489 164.202H168.993C169.669 164.202 170.161 164.432 170.468 164.893L181.44 180.383C181.747 180.813 181.901 181.274 181.901 181.766V224.501C181.901 225.269 181.517 225.653 180.748 225.653H163.876C163.107 225.653 162.723 225.269 162.723 224.501V207.213H158.851V224.501C158.851 225.269 158.467 225.653 157.698 225.653H140.826ZM160.787 191.217C162.108 191.217 163.184 190.802 164.014 189.972C164.844 189.142 165.259 188.082 165.259 186.791C165.259 185.469 164.844 184.394 164.014 183.564C163.184 182.734 162.108 182.319 160.787 182.319C159.465 182.319 158.39 182.734 157.56 183.564C156.73 184.394 156.315 185.469 156.315 186.791C156.315 188.082 156.73 189.142 157.56 189.972C158.39 190.802 159.465 191.217 160.787 191.217Z" fill="white"/>
<path d="M31.8016 319.653C31.0947 319.653 30.4801 319.392 29.9576 318.87L20.7376 309.65C20.2459 309.158 20 308.543 20 307.806V259.354C20 258.586 20.3842 258.202 21.1525 258.202H38.0251C38.7934 258.202 39.1776 258.586 39.1776 259.354V297.387H43.05V259.354C43.05 258.586 43.4342 258.202 44.2025 258.202H61.0751C61.8434 258.202 62.2276 258.586 62.2276 259.354V307.806C62.2276 308.543 61.9817 309.158 61.49 309.65L52.27 318.87C51.7475 319.392 51.1329 319.653 50.426 319.653H31.8016Z" fill="white"/>
<path d="M65.4095 319.653C64.6412 319.653 64.257 319.269 64.257 318.501V259.354C64.257 258.586 64.6412 258.202 65.4095 258.202H82.2821C83.0504 258.202 83.4346 258.586 83.4346 259.354V318.501C83.4346 319.269 83.0504 319.653 82.2821 319.653H65.4095Z" fill="white"/>
<path d="M86.6165 319.653C85.8482 319.653 85.464 319.269 85.464 318.501V259.354C85.464 258.586 85.8482 258.202 86.6165 258.202H115.89C116.597 258.202 117.212 258.448 117.734 258.94L126.954 268.16C127.446 268.682 127.692 269.297 127.692 270.004V307.806C127.692 308.543 127.446 309.158 126.954 309.65L117.734 318.87C117.212 319.392 116.597 319.653 115.89 319.653H86.6165ZM104.642 301.213H106.578C107.869 301.213 108.514 300.337 108.514 298.586V279.224C108.514 277.502 107.869 276.642 106.578 276.642H104.642V301.213Z" fill="white"/>
<path d="M130.873 319.653C130.105 319.653 129.721 319.269 129.721 318.501V259.354C129.721 258.586 130.105 258.202 130.873 258.202H162.959C163.727 258.202 164.112 258.586 164.112 259.354V275.489C164.112 276.258 163.727 276.642 162.959 276.642H148.899V280.468H162.959C163.727 280.468 164.112 280.852 164.112 281.621V296.234C164.112 297.003 163.727 297.387 162.959 297.387H148.899V301.213H162.959C163.727 301.213 164.112 301.597 164.112 302.366V318.501C164.112 319.269 163.727 319.653 162.959 319.653H130.873Z" fill="white"/>
<path d="M177.946 319.653C177.239 319.653 176.625 319.392 176.102 318.87L166.882 309.65C166.39 309.158 166.145 308.543 166.145 307.806V270.004C166.145 269.297 166.39 268.682 166.882 268.16L176.102 258.94C176.625 258.448 177.239 258.202 177.946 258.202H196.847C197.585 258.202 198.199 258.448 198.691 258.94L207.911 268.16C208.434 268.682 208.695 269.297 208.695 270.004V307.806C208.695 308.543 208.434 309.158 207.911 309.65L198.691 318.87C198.199 319.392 197.585 319.653 196.847 319.653H177.946ZM187.258 301.213H187.581C188.841 301.213 189.471 300.337 189.471 298.586V279.224C189.471 277.502 188.841 276.642 187.581 276.642H187.258C185.968 276.642 185.322 277.502 185.322 279.224V298.586C185.322 300.337 185.968 301.213 187.258 301.213Z" fill="white"/>
<path d="M222.563 319.653C221.856 319.653 221.242 319.392 220.719 318.87L211.499 309.65C211.008 309.158 210.762 308.543 210.762 307.806V270.004C210.762 269.297 211.008 268.682 211.499 268.16L220.719 258.94C221.242 258.448 221.856 258.202 222.563 258.202H250.454C251.222 258.202 251.606 258.586 251.606 259.354V275.489C251.606 276.258 251.222 276.642 250.454 276.642H231.507C231.076 276.642 230.708 276.796 230.4 277.103C230.093 277.38 229.939 277.733 229.939 278.163V299.692C229.939 300.091 230.093 300.445 230.4 300.752C230.708 301.06 231.076 301.213 231.507 301.213H238.007V294.39L234.181 294.298C233.412 294.298 233.028 293.914 233.028 293.146V281.621C233.028 280.852 233.412 280.468 234.181 280.468H253.773C254.541 280.468 254.926 280.852 254.926 281.621V307.806C254.926 308.543 254.664 309.158 254.142 309.65L244.922 318.87C244.43 319.392 243.815 319.653 243.078 319.653H222.563Z" fill="white"/>
<path d="M257.882 319.653C257.114 319.653 256.729 319.269 256.729 318.501V259.354C256.729 258.586 257.114 258.202 257.882 258.202H286.049C286.848 258.202 287.463 258.402 287.893 258.801L298.496 269.312C298.834 269.619 299.049 269.881 299.141 270.096C299.234 270.311 299.28 270.664 299.28 271.156V283.787C299.28 284.187 299.019 284.648 298.496 285.17L292.134 291.532L291.12 292.454L293.978 296.742L299.741 307.806C299.894 308.082 299.987 308.359 300.017 308.635C300.079 308.881 300.11 309.204 300.11 309.603V318.501C300.11 319.269 299.725 319.653 298.957 319.653H284.389C283.713 319.653 283.252 319.346 283.007 318.731L276.691 302.504H275.907V318.501C275.907 319.269 275.523 319.653 274.755 319.653H257.882ZM277.982 283.234C279.242 283.234 280.256 282.835 281.024 282.036C281.823 281.237 282.223 280.222 282.223 278.993C282.223 277.764 281.823 276.765 281.024 275.997C280.256 275.197 279.242 274.798 277.982 274.798C276.752 274.798 275.738 275.197 274.939 275.997C274.171 276.765 273.786 277.764 273.786 278.993C273.786 280.222 274.171 281.237 274.939 282.036C275.738 282.835 276.752 283.234 277.982 283.234Z" fill="white"/>
<path d="M303.31 319.653C302.541 319.653 302.157 319.269 302.157 318.501V275.766C302.157 275.274 302.311 274.813 302.618 274.383L313.498 258.893C313.836 258.432 314.327 258.202 314.973 258.202H331.477C332.153 258.202 332.644 258.432 332.952 258.893L343.924 274.383C344.231 274.813 344.385 275.274 344.385 275.766V318.501C344.385 319.269 344 319.653 343.232 319.653H326.36C325.591 319.653 325.207 319.269 325.207 318.501V301.213H321.335V318.501C321.335 319.269 320.95 319.653 320.182 319.653H303.31ZM323.271 285.217C324.592 285.217 325.668 284.802 326.498 283.972C327.328 283.142 327.743 282.082 327.743 280.791C327.743 279.469 327.328 278.394 326.498 277.564C325.668 276.734 324.592 276.319 323.271 276.319C321.949 276.319 320.874 276.734 320.044 277.564C319.214 278.394 318.799 279.469 318.799 280.791C318.799 282.082 319.214 283.142 320.044 283.972C320.874 284.802 321.949 285.217 323.271 285.217Z" fill="white"/>
<path d="M347.566 319.653C346.798 319.653 346.414 319.269 346.414 318.501V259.354C346.414 258.586 346.798 258.202 347.566 258.202H376.056C376.763 258.202 377.378 258.448 377.9 258.94L387.12 268.16C387.643 268.682 387.904 269.297 387.904 270.004V292.593C387.904 293.33 387.643 293.945 387.12 294.437L377.9 303.657C377.378 304.179 376.763 304.44 376.056 304.44H365.592V318.501C365.592 319.269 365.207 319.653 364.439 319.653H347.566ZM366.744 285.539C368.004 285.539 369.018 285.14 369.787 284.341C370.586 283.542 370.985 282.527 370.985 281.298C370.985 280.069 370.586 279.07 369.787 278.302C369.018 277.502 368.004 277.103 366.744 277.103C365.515 277.103 364.501 277.502 363.702 278.302C362.933 279.07 362.549 280.069 362.549 281.298C362.549 282.527 362.933 283.542 363.702 284.341C364.501 285.14 365.515 285.539 366.744 285.539Z" fill="white"/>
<path d="M391.013 319.653C390.245 319.653 389.861 319.269 389.861 318.501V275.766C389.861 275.274 390.014 274.813 390.322 274.383L401.201 258.893C401.539 258.432 402.031 258.202 402.676 258.202H419.18C419.856 258.202 420.348 258.432 420.655 258.893L431.627 274.383C431.935 274.813 432.088 275.274 432.088 275.766V318.501C432.088 319.269 431.704 319.653 430.936 319.653H414.063C413.295 319.653 412.911 319.269 412.911 318.501V301.213H409.038V318.501C409.038 319.269 408.654 319.653 407.886 319.653H391.013ZM410.974 285.217C412.296 285.217 413.372 284.802 414.201 283.972C415.031 283.142 415.446 282.082 415.446 280.791C415.446 279.469 415.031 278.394 414.201 277.564C413.372 276.734 412.296 276.319 410.974 276.319C409.653 276.319 408.577 276.734 407.747 277.564C406.918 278.394 406.503 279.469 406.503 280.791C406.503 282.082 406.918 283.142 407.747 283.972C408.577 284.802 409.653 285.217 410.974 285.217Z" fill="white"/>
<path d="M342.124 20.0002C380.461 19.8927 403.201 56.2646 386.118 90.8247C382.776 97.5863 376.914 103.638 371.572 108.914C379.799 110.616 382.387 112.377 386.019 120.061C384.872 134.149 384.026 134.225 398.35 133.914C399.124 133.142 401.644 130.716 402.541 130.565C416.893 128.153 429.677 120.223 442.903 114.501C447.192 112.646 451.235 110.22 456.121 109.97C461 109.72 463.731 112.416 464.572 117.151C464.24 146.941 459.695 177.805 459.525 207.533C452.35 219.037 445.825 211.266 435.996 207.321C427.504 203.911 419.087 198.292 410.641 194.782C404.121 192.078 400.872 197.186 396.236 188.868C393.581 188.968 390.909 188.974 388.259 189.103C379.177 189.568 384.752 202.736 378.623 209.061C371.785 216.109 336.317 214.222 325.893 214.61C331.702 228.66 341.536 240.817 348.716 254.197C350.381 257.301 352.232 261.851 348.259 264.378C340.182 269.528 331.736 251.875 328.312 246.331C323.725 238.783 318.903 231.382 313.852 224.134L306.179 220.371C303.429 223.44 302.626 224.381 302.058 228.372C301.859 235.221 304.504 268.758 292.892 263.932C283.801 260.152 291.254 231.923 287.914 223.534C277.647 211.454 258.105 256.772 251.765 262.098C234.371 276.718 235.955 257.03 246.472 246.09C250.569 241.834 262.359 221.318 264.73 215.451C256.094 215.057 247.365 215.527 238.731 214.734C237.84 214.652 233.268 216.027 232.295 216.321C225.105 213.77 222.204 214.334 215.185 216.292C210.785 214.252 202.148 210.266 202.428 204.147C202.91 193.589 202.434 183.401 202.267 172.861C202.251 171.82 203.507 168.564 203.787 167.053C203.4 165.73 203 165.507 201.972 164.719L201.885 162.855C205.059 157.547 200.917 151.48 201.575 146.423C203.382 132.537 206.161 136.552 204.215 121.925C210.089 111.146 209.881 113.388 219.969 109.238C206.825 96.9631 200.203 81.4243 204.153 63.39C212.314 26.1322 256.185 8.77982 286.326 33.2553C292.078 37.9258 294.224 41.7827 297.949 47.9652C299.748 45.749 301.426 42.9555 303.246 40.677C314.381 26.7447 325.096 22.2006 342.124 20.0002Z" fill="black"/>
<path d="M323.799 121.162C337.836 121.424 352.046 120.615 366.005 121.427C368.156 121.551 370.564 122.568 372.181 123.996C372.963 125.557 373.193 127.672 373.098 129.405C371.965 150.083 370.9 170.71 370.686 191.426C370.621 192.96 370.177 197.422 368.887 198.427C364.128 202.137 353.991 200.92 348.438 200.908L322.13 200.943C301.509 201.008 280.252 201.884 259.705 200.261C257.032 200.056 257.057 200.197 254.466 201.484L253.77 201.831C249.819 199.768 246.374 198.374 241.742 199.033L243.612 200.943C240.725 202.437 234.799 196.793 230.491 196.293C229.5 197.116 229.383 197.263 228.196 197.869C225.754 196.094 221.215 190.721 219.461 188.169L219.843 187.07C221.016 187.058 221.486 187.035 222.692 186.876C223.029 183.701 217.405 177.952 218.761 172.656C219.76 172.72 220.223 172.903 221.183 173.173C221.671 171.633 221.672 172.379 221.194 170.851C220.353 170.898 219.524 170.969 218.689 171.086C217.224 165.384 219.059 155.396 219.414 148.94C219.692 143.874 215.907 127.066 219.994 124.489C226.382 120.462 239.669 122.848 247.531 122.454C272.844 121.186 298.529 122.191 323.799 121.162Z" fill="white"/>
<path d="M304.728 138.8C317.427 138.376 335.202 138.094 348.09 139.11C350.5 139.3 352.377 142.699 353.658 144.739C352.635 153.149 351.897 166.646 351.958 175.093C349.668 177.592 348.795 178.291 346.07 180.337C341.967 180.161 337.693 180.296 333.574 180.361C326.666 180.731 292.363 182.471 289.286 179.626C286.803 177.327 286.009 173.947 285.829 170.696C285.477 164.312 285.217 145.251 289.704 140.866C292.48 138.153 300.897 138.903 304.728 138.8Z" fill="black"/>
<path d="M330.842 149.388C334.376 149.203 337.883 149.503 341.415 149.725C341.14 156.216 340.952 162.712 340.852 169.208C330.001 169.22 319.15 169.343 308.302 169.584L297.791 169.555C297.896 162.93 297.983 156.616 298.451 149.996C307.761 149.25 320.984 149.645 330.842 149.388Z" fill="white"/>
<path d="M340.37 35.4465C359.637 34.784 375.839 49.775 376.678 69.0402C377.516 88.3049 362.678 104.648 343.426 105.663C323.923 106.691 307.325 91.6127 306.476 72.097C305.626 52.5808 320.851 36.1173 340.37 35.4465Z" fill="white"/>
<path d="M338.837 58.1814C343.702 57.1121 348.765 58.7675 352.059 62.5045C355.353 66.2415 356.362 71.4723 354.692 76.1669C353.022 80.861 348.938 84.2793 344.024 85.0959C340.141 85.7402 336.17 84.685 333.119 82.1977C330.068 79.7105 328.234 76.0323 328.083 72.0989C327.828 65.4673 332.358 59.6052 338.837 58.1814Z" fill="black"/>
<path d="M340.063 68.2857C341.286 67.5867 342.795 67.622 343.984 68.3768C345.173 69.1322 345.847 70.4831 345.735 71.8875C345.623 73.2919 344.744 74.5193 343.451 75.076C341.599 75.8737 339.448 75.0866 338.548 73.2825C337.647 71.4783 338.313 69.2856 340.063 68.2857Z" fill="white"/>
<path d="M249.401 36.9652C268.551 34.8365 285.797 48.6465 287.911 67.803C290.025 86.9595 276.205 104.2 257.051 106.299C237.919 108.396 220.706 94.5911 218.594 75.4551C216.483 56.3198 230.272 39.092 249.401 36.9652Z" fill="white"/>
<path d="M252.149 58.9049C259.598 58.1618 266.263 63.5384 267.116 70.9771C267.969 78.4164 262.692 85.1621 255.269 86.1244C251.438 86.6212 247.576 85.4772 244.634 82.9741C241.692 80.471 239.943 76.8416 239.818 72.9799C239.585 65.774 244.976 59.6203 252.149 58.9049Z" fill="black"/>
<path d="M252.629 68.8093C254.61 68.2338 256.697 69.3031 257.387 71.2489C258.077 73.1941 257.13 75.3398 255.229 76.1416C253.897 76.7036 252.363 76.4814 251.245 75.5644C250.127 74.6467 249.609 73.1859 249.899 71.7692C250.19 70.3524 251.24 69.2132 252.629 68.8093Z" fill="white"/>
<path d="M449.212 125.522L450.279 125.566C451.423 127.766 447.695 189.624 447.175 196.843C439.585 193.434 430.668 188.807 423.332 184.951C419.728 183.193 414.833 181.459 411.879 178.814C410.01 177.144 411.938 147.323 411.707 142.928C421.93 137.082 438.251 130.283 449.212 125.522Z" fill="white"/>
<path d="M296.488 94.1855C296.566 94.2343 305.45 106.348 307.617 108.49L297.868 108.562C294.347 108.885 288.666 108.593 284.983 108.513C290.262 103.05 292.175 100.35 296.488 94.1855Z" fill="white"/>
<path d="M393.957 151.216C396.128 153.135 394.902 171.67 394.537 175.168C394.478 175.732 391.816 176.326 391.16 176.52C391.431 170.623 391.586 155.28 393.957 151.216Z" fill="white"/>
<path d="M21.1525 225.653C20.3842 225.653 20 225.269 20 224.501V165.354C20 164.586 20.3842 164.202 21.1525 164.202H38.0251C38.7934 164.202 39.1776 164.586 39.1776 165.354V224.501C39.1776 225.269 38.7934 225.653 38.0251 225.653H21.1525Z" fill="#080808"/>
<path d="M43.4198 182.642C42.6515 182.642 42.2673 182.258 42.2673 181.489V175.312C42.2673 174.544 42.6515 174.16 43.4198 174.16H46.6468C47.5381 174.16 47.9837 173.775 47.9837 173.007V171.716H42.3595C41.5912 171.716 41.207 171.332 41.207 170.564L41.2992 159.408C41.2992 158.639 41.6834 158.255 42.4517 158.255H56.3278C57.0961 158.255 57.4803 158.639 57.4803 159.408V172.869C57.4803 176.157 56.6966 178.616 55.1292 180.245C53.5925 181.843 51.518 182.642 48.9057 182.642H43.4198Z" fill="#080808"/>
<path d="M60.6852 225.653C59.9169 225.653 59.5327 225.269 59.5327 224.501V176.004C59.5327 175.297 59.7786 174.682 60.2703 174.16L69.4903 164.94C70.0128 164.448 70.6275 164.202 71.3344 164.202H81.4763C82.214 164.202 82.8286 164.448 83.3204 164.94L91.1113 172.73H93.2318L101.023 164.94C101.514 164.448 102.129 164.202 102.867 164.202H113.009C113.716 164.202 114.33 164.448 114.853 164.94L124.073 174.16C124.564 174.682 124.81 175.297 124.81 176.004V224.501C124.81 225.269 124.426 225.653 123.658 225.653H106.785C106.017 225.653 105.633 225.269 105.633 224.501V186.468H101.76V224.501C101.76 225.269 101.376 225.653 100.608 225.653H83.7352C82.9669 225.653 82.5828 225.269 82.5828 224.501V186.468H78.7104V224.501C78.7104 225.269 78.3262 225.653 77.5578 225.653H60.6852Z" fill="#080808"/>
<path d="M140.826 225.653C140.057 225.653 139.673 225.269 139.673 224.501V181.766C139.673 181.274 139.827 180.813 140.134 180.383L151.014 164.893C151.352 164.432 151.844 164.202 152.489 164.202H168.993C169.669 164.202 170.161 164.432 170.468 164.893L181.44 180.383C181.747 180.813 181.901 181.274 181.901 181.766V224.501C181.901 225.269 181.517 225.653 180.748 225.653H163.876C163.107 225.653 162.723 225.269 162.723 224.501V207.213H158.851V224.501C158.851 225.269 158.467 225.653 157.698 225.653H140.826ZM160.787 191.217C162.108 191.217 163.184 190.802 164.014 189.972C164.844 189.142 165.259 188.082 165.259 186.791C165.259 185.469 164.844 184.394 164.014 183.564C163.184 182.734 162.108 182.319 160.787 182.319C159.465 182.319 158.39 182.734 157.56 183.564C156.73 184.394 156.315 185.469 156.315 186.791C156.315 188.082 156.73 189.142 157.56 189.972C158.39 190.802 159.465 191.217 160.787 191.217Z" fill="#080808"/>
<path d="M31.8016 319.653C31.0947 319.653 30.4801 319.392 29.9576 318.87L20.7376 309.65C20.2459 309.158 20 308.543 20 307.806V259.354C20 258.586 20.3842 258.202 21.1525 258.202H38.0251C38.7934 258.202 39.1776 258.586 39.1776 259.354V297.387H43.05V259.354C43.05 258.586 43.4342 258.202 44.2025 258.202H61.0751C61.8434 258.202 62.2276 258.586 62.2276 259.354V307.806C62.2276 308.543 61.9817 309.158 61.49 309.65L52.27 318.87C51.7475 319.392 51.1329 319.653 50.426 319.653H31.8016Z" fill="#080808"/>
<path d="M65.4095 319.653C64.6412 319.653 64.257 319.269 64.257 318.501V259.354C64.257 258.586 64.6412 258.202 65.4095 258.202H82.2821C83.0504 258.202 83.4346 258.586 83.4346 259.354V318.501C83.4346 319.269 83.0504 319.653 82.2821 319.653H65.4095Z" fill="#080808"/>
<path d="M86.6165 319.653C85.8482 319.653 85.464 319.269 85.464 318.501V259.354C85.464 258.586 85.8482 258.202 86.6165 258.202H115.89C116.597 258.202 117.212 258.448 117.734 258.94L126.954 268.16C127.446 268.682 127.692 269.297 127.692 270.004V307.806C127.692 308.543 127.446 309.158 126.954 309.65L117.734 318.87C117.212 319.392 116.597 319.653 115.89 319.653H86.6165ZM104.642 301.213H106.578C107.869 301.213 108.514 300.337 108.514 298.586V279.224C108.514 277.502 107.869 276.642 106.578 276.642H104.642V301.213Z" fill="#080808"/>
<path d="M130.873 319.653C130.105 319.653 129.721 319.269 129.721 318.501V259.354C129.721 258.586 130.105 258.202 130.873 258.202H162.959C163.727 258.202 164.112 258.586 164.112 259.354V275.489C164.112 276.258 163.727 276.642 162.959 276.642H148.899V280.468H162.959C163.727 280.468 164.112 280.852 164.112 281.621V296.234C164.112 297.003 163.727 297.387 162.959 297.387H148.899V301.213H162.959C163.727 301.213 164.112 301.597 164.112 302.366V318.501C164.112 319.269 163.727 319.653 162.959 319.653H130.873Z" fill="#080808"/>
<path d="M177.946 319.653C177.239 319.653 176.625 319.392 176.102 318.87L166.882 309.65C166.39 309.158 166.145 308.543 166.145 307.806V270.004C166.145 269.297 166.39 268.682 166.882 268.16L176.102 258.94C176.625 258.448 177.239 258.202 177.946 258.202H196.847C197.585 258.202 198.199 258.448 198.691 258.94L207.911 268.16C208.434 268.682 208.695 269.297 208.695 270.004V307.806C208.695 308.543 208.434 309.158 207.911 309.65L198.691 318.87C198.199 319.392 197.585 319.653 196.847 319.653H177.946ZM187.258 301.213H187.581C188.841 301.213 189.471 300.337 189.471 298.586V279.224C189.471 277.502 188.841 276.642 187.581 276.642H187.258C185.968 276.642 185.322 277.502 185.322 279.224V298.586C185.322 300.337 185.968 301.213 187.258 301.213Z" fill="#080808"/>
<path d="M222.563 319.653C221.856 319.653 221.242 319.392 220.719 318.87L211.499 309.65C211.008 309.158 210.762 308.543 210.762 307.806V270.004C210.762 269.297 211.008 268.682 211.499 268.16L220.719 258.94C221.242 258.448 221.856 258.202 222.563 258.202H250.454C251.222 258.202 251.606 258.586 251.606 259.354V275.489C251.606 276.258 251.222 276.642 250.454 276.642H231.507C231.076 276.642 230.708 276.796 230.4 277.103C230.093 277.38 229.939 277.733 229.939 278.163V299.692C229.939 300.091 230.093 300.445 230.4 300.752C230.708 301.06 231.076 301.213 231.507 301.213H238.007V294.39L234.181 294.298C233.412 294.298 233.028 293.914 233.028 293.146V281.621C233.028 280.852 233.412 280.468 234.181 280.468H253.773C254.541 280.468 254.926 280.852 254.926 281.621V307.806C254.926 308.543 254.664 309.158 254.142 309.65L244.922 318.87C244.43 319.392 243.815 319.653 243.078 319.653H222.563Z" fill="#080808"/>
<path d="M257.882 319.653C257.114 319.653 256.729 319.269 256.729 318.501V259.354C256.729 258.586 257.114 258.202 257.882 258.202H286.049C286.848 258.202 287.463 258.402 287.893 258.801L298.496 269.312C298.834 269.619 299.049 269.881 299.141 270.096C299.234 270.311 299.28 270.664 299.28 271.156V283.787C299.28 284.187 299.019 284.648 298.496 285.17L292.134 291.532L291.12 292.454L293.978 296.742L299.741 307.806C299.894 308.082 299.987 308.359 300.017 308.635C300.079 308.881 300.11 309.204 300.11 309.603V318.501C300.11 319.269 299.725 319.653 298.957 319.653H284.389C283.713 319.653 283.252 319.346 283.007 318.731L276.691 302.504H275.907V318.501C275.907 319.269 275.523 319.653 274.755 319.653H257.882ZM277.982 283.234C279.242 283.234 280.256 282.835 281.024 282.036C281.823 281.237 282.223 280.222 282.223 278.993C282.223 277.764 281.823 276.765 281.024 275.997C280.256 275.197 279.242 274.798 277.982 274.798C276.752 274.798 275.738 275.197 274.939 275.997C274.171 276.765 273.786 277.764 273.786 278.993C273.786 280.222 274.171 281.237 274.939 282.036C275.738 282.835 276.752 283.234 277.982 283.234Z" fill="#080808"/>
<path d="M303.31 319.653C302.541 319.653 302.157 319.269 302.157 318.501V275.766C302.157 275.274 302.311 274.813 302.618 274.383L313.498 258.893C313.836 258.432 314.327 258.202 314.973 258.202H331.477C332.153 258.202 332.644 258.432 332.952 258.893L343.924 274.383C344.231 274.813 344.385 275.274 344.385 275.766V318.501C344.385 319.269 344 319.653 343.232 319.653H326.36C325.591 319.653 325.207 319.269 325.207 318.501V301.213H321.335V318.501C321.335 319.269 320.95 319.653 320.182 319.653H303.31ZM323.271 285.217C324.592 285.217 325.668 284.802 326.498 283.972C327.328 283.142 327.743 282.082 327.743 280.791C327.743 279.469 327.328 278.394 326.498 277.564C325.668 276.734 324.592 276.319 323.271 276.319C321.949 276.319 320.874 276.734 320.044 277.564C319.214 278.394 318.799 279.469 318.799 280.791C318.799 282.082 319.214 283.142 320.044 283.972C320.874 284.802 321.949 285.217 323.271 285.217Z" fill="#080808"/>
<path d="M347.566 319.653C346.798 319.653 346.414 319.269 346.414 318.501V259.354C346.414 258.586 346.798 258.202 347.566 258.202H376.056C376.763 258.202 377.378 258.448 377.9 258.94L387.12 268.16C387.643 268.682 387.904 269.297 387.904 270.004V292.593C387.904 293.33 387.643 293.945 387.12 294.437L377.9 303.657C377.378 304.179 376.763 304.44 376.056 304.44H365.592V318.501C365.592 319.269 365.207 319.653 364.439 319.653H347.566ZM366.744 285.539C368.004 285.539 369.018 285.14 369.787 284.341C370.586 283.542 370.985 282.527 370.985 281.298C370.985 280.069 370.586 279.07 369.787 278.302C369.018 277.502 368.004 277.103 366.744 277.103C365.515 277.103 364.501 277.502 363.702 278.302C362.933 279.07 362.549 280.069 362.549 281.298C362.549 282.527 362.933 283.542 363.702 284.341C364.501 285.14 365.515 285.539 366.744 285.539Z" fill="#080808"/>
<path d="M391.013 319.653C390.245 319.653 389.861 319.269 389.861 318.501V275.766C389.861 275.274 390.014 274.813 390.322 274.383L401.201 258.893C401.539 258.432 402.031 258.202 402.676 258.202H419.18C419.856 258.202 420.348 258.432 420.655 258.893L431.627 274.383C431.935 274.813 432.088 275.274 432.088 275.766V318.501C432.088 319.269 431.704 319.653 430.936 319.653H414.063C413.295 319.653 412.911 319.269 412.911 318.501V301.213H409.038V318.501C409.038 319.269 408.654 319.653 407.886 319.653H391.013ZM410.974 285.217C412.296 285.217 413.372 284.802 414.201 283.972C415.031 283.142 415.446 282.082 415.446 280.791C415.446 279.469 415.031 278.394 414.201 277.564C413.372 276.734 412.296 276.319 410.974 276.319C409.653 276.319 408.577 276.734 407.747 277.564C406.918 278.394 406.503 279.469 406.503 280.791C406.503 282.082 406.918 283.142 407.747 283.972C408.577 284.802 409.653 285.217 410.974 285.217Z" fill="#080808"/>
<path d="M342.124 20.0002C380.461 19.8927 403.201 56.2646 386.118 90.8247C382.776 97.5863 376.914 103.638 371.572 108.914C379.799 110.616 382.387 112.377 386.019 120.061C384.872 134.149 384.026 134.225 398.35 133.914C399.124 133.142 401.644 130.716 402.541 130.565C416.893 128.153 429.677 120.223 442.903 114.501C447.192 112.646 451.235 110.22 456.121 109.97C461 109.72 463.731 112.416 464.572 117.151C464.24 146.941 459.695 177.805 459.525 207.533C452.35 219.037 445.825 211.266 435.996 207.321C427.504 203.911 419.087 198.292 410.641 194.782C404.121 192.078 400.872 197.186 396.236 188.868C393.581 188.968 390.909 188.974 388.259 189.103C379.177 189.568 384.752 202.736 378.623 209.061C371.785 216.109 336.317 214.222 325.893 214.61C331.702 228.66 341.536 240.817 348.716 254.197C350.381 257.301 352.232 261.851 348.259 264.378C340.182 269.528 331.736 251.875 328.312 246.331C323.725 238.783 318.903 231.382 313.852 224.134L306.179 220.371C303.429 223.44 302.626 224.381 302.058 228.372C301.859 235.221 304.504 268.758 292.892 263.932C283.801 260.152 291.254 231.923 287.914 223.534C277.647 211.454 258.105 256.772 251.765 262.098C234.371 276.718 235.955 257.03 246.472 246.09C250.569 241.834 262.359 221.318 264.73 215.451C256.094 215.057 247.365 215.527 238.731 214.734C237.84 214.652 233.268 216.027 232.295 216.321C225.105 213.77 222.204 214.334 215.185 216.292C210.785 214.252 202.148 210.266 202.428 204.147C202.91 193.589 202.434 183.401 202.267 172.861C202.251 171.82 203.507 168.564 203.787 167.053C203.4 165.73 203 165.507 201.972 164.719L201.885 162.855C205.059 157.547 200.917 151.48 201.575 146.423C203.382 132.537 206.161 136.552 204.215 121.925C210.089 111.146 209.881 113.388 219.969 109.238C206.825 96.9631 200.203 81.4243 204.153 63.39C212.314 26.1322 256.185 8.77982 286.326 33.2553C292.078 37.9258 294.224 41.7827 297.949 47.9652C299.748 45.749 301.426 42.9555 303.246 40.677C314.381 26.7447 325.096 22.2006 342.124 20.0002Z" fill="black"/>
<path d="M323.799 121.162C337.836 121.424 352.046 120.615 366.005 121.427C368.156 121.551 370.564 122.568 372.181 123.996C372.963 125.557 373.193 127.672 373.098 129.405C371.965 150.083 370.9 170.71 370.686 191.426C370.621 192.96 370.177 197.422 368.887 198.427C364.128 202.137 353.991 200.92 348.438 200.908L322.13 200.943C301.509 201.008 280.252 201.884 259.705 200.261C257.032 200.056 257.057 200.197 254.466 201.484L253.77 201.831C249.819 199.768 246.374 198.374 241.742 199.033L243.612 200.943C240.725 202.437 234.799 196.793 230.491 196.293C229.5 197.116 229.383 197.263 228.196 197.869C225.754 196.094 221.215 190.721 219.461 188.169L219.843 187.07C221.016 187.058 221.486 187.035 222.692 186.876C223.029 183.701 217.405 177.952 218.761 172.656C219.76 172.72 220.223 172.903 221.183 173.173C221.671 171.633 221.672 172.379 221.194 170.851C220.353 170.898 219.524 170.969 218.689 171.086C217.224 165.384 219.059 155.396 219.414 148.94C219.692 143.874 215.907 127.066 219.994 124.489C226.382 120.462 239.669 122.848 247.531 122.454C272.844 121.186 298.529 122.191 323.799 121.162Z" fill="white"/>
<path d="M304.728 138.8C317.427 138.376 335.202 138.094 348.09 139.11C350.5 139.3 352.377 142.699 353.658 144.739C352.635 153.149 351.897 166.646 351.958 175.093C349.668 177.592 348.795 178.291 346.07 180.337C341.967 180.161 337.693 180.296 333.574 180.361C326.666 180.731 292.363 182.471 289.286 179.626C286.803 177.327 286.009 173.947 285.829 170.696C285.477 164.312 285.217 145.251 289.704 140.866C292.48 138.153 300.897 138.903 304.728 138.8Z" fill="black"/>
<path d="M330.842 149.388C334.376 149.203 337.883 149.503 341.415 149.725C341.14 156.216 340.952 162.712 340.852 169.208C330.001 169.22 319.15 169.343 308.302 169.584L297.791 169.555C297.896 162.93 297.983 156.616 298.451 149.996C307.761 149.25 320.984 149.645 330.842 149.388Z" fill="white"/>
<path d="M340.37 35.4465C359.637 34.784 375.839 49.775 376.678 69.0402C377.516 88.3049 362.678 104.648 343.426 105.663C323.923 106.691 307.325 91.6127 306.476 72.097C305.626 52.5808 320.851 36.1173 340.37 35.4465Z" fill="white"/>
<path d="M338.837 58.1814C343.702 57.1121 348.765 58.7675 352.059 62.5045C355.353 66.2415 356.362 71.4723 354.692 76.1669C353.022 80.861 348.938 84.2793 344.024 85.0959C340.141 85.7402 336.17 84.685 333.119 82.1977C330.068 79.7105 328.234 76.0323 328.083 72.0989C327.828 65.4673 332.358 59.6052 338.837 58.1814Z" fill="black"/>
<path d="M340.063 68.2857C341.286 67.5867 342.795 67.622 343.984 68.3768C345.173 69.1322 345.847 70.4831 345.735 71.8875C345.623 73.2919 344.744 74.5193 343.451 75.076C341.599 75.8737 339.448 75.0866 338.548 73.2825C337.647 71.4783 338.313 69.2856 340.063 68.2857Z" fill="white"/>
<path d="M249.401 36.9652C268.551 34.8365 285.797 48.6465 287.911 67.803C290.025 86.9595 276.205 104.2 257.051 106.299C237.919 108.396 220.706 94.5911 218.594 75.4551C216.483 56.3198 230.272 39.092 249.401 36.9652Z" fill="white"/>
<path d="M252.149 58.9049C259.598 58.1618 266.263 63.5384 267.116 70.9771C267.969 78.4164 262.692 85.1621 255.269 86.1244C251.438 86.6212 247.576 85.4772 244.634 82.9741C241.692 80.471 239.943 76.8416 239.818 72.9799C239.585 65.774 244.976 59.6203 252.149 58.9049Z" fill="black"/>
<path d="M252.629 68.8093C254.61 68.2338 256.697 69.3031 257.387 71.2489C258.077 73.1941 257.13 75.3398 255.229 76.1416C253.897 76.7036 252.363 76.4814 251.245 75.5644C250.127 74.6467 249.609 73.1859 249.899 71.7692C250.19 70.3524 251.24 69.2132 252.629 68.8093Z" fill="white"/>
<path d="M449.212 125.522L450.279 125.566C451.423 127.766 447.695 189.624 447.175 196.843C439.585 193.434 430.668 188.807 423.332 184.951C419.728 183.193 414.833 181.459 411.879 178.814C410.01 177.144 411.938 147.323 411.707 142.928C421.93 137.082 438.251 130.283 449.212 125.522Z" fill="white"/>
<path d="M296.488 94.1855C296.566 94.2343 305.45 106.348 307.617 108.49L297.868 108.562C294.347 108.885 288.666 108.593 284.983 108.513C290.262 103.05 292.175 100.35 296.488 94.1855Z" fill="white"/>
<path d="M393.957 151.216C396.128 153.135 394.902 171.67 394.537 175.168C394.478 175.732 391.816 176.326 391.16 176.52C391.431 170.623 391.586 155.28 393.957 151.216Z" fill="white"/>
</svg>
