<svg width="229" height="230" viewBox="0 0 229 230" fill="none" xmlns="http://www.w3.org/2000/svg">
<path d="M93.4127 180.469C106.231 181.308 116.049 177.948 124.695 173.268C128.828 171.03 132.771 168.448 136.412 166.063C140.164 163.607 143.724 161.273 147.633 159.069C169.691 146.637 192.727 134.219 214.986 121.482C219.389 118.968 223.362 114.968 225.823 110.065C228.352 105.028 229.534 98.4145 226.915 91.6404C226.766 91.2532 226.595 90.8741 226.404 90.5055C224.059 85.979 220.286 82.8159 217.067 80.6586C213.719 78.4149 209.964 76.6019 206.492 75.1335C205.49 74.7096 204.482 74.3045 203.482 73.9142C204.556 72.6638 205.68 71.356 206.849 69.9824C211.881 64.0679 217.659 57.0213 221.498 49.8605C225.196 42.9629 228.644 33.0746 224.155 23.1453C219.741 13.3821 209.579 7.9025 197.344 4.66612C195.593 4.20303 193.757 4.16279 191.988 4.54992C186.524 5.74579 181.486 8.83823 177.434 11.8531C173.187 15.013 168.984 18.8848 165.13 22.7474C162.964 24.9174 160.794 27.2127 158.7 29.4823C156.901 24.4718 154.729 19.0924 151.77 14.0068L151.768 14.002C148.677 8.6953 143.575 2.40995 134.274 0.513115L134.273 0.514706C127.5 -0.868411 120.069 0.516278 114.175 4.90807L114.165 4.91444C111.75 6.71766 110.096 9.09032 109.071 10.7293C107.912 12.5842 106.831 14.7088 105.829 16.9055C103.819 21.312 101.744 26.8596 99.6748 33.0001C95.5204 45.3315 91.0794 61.0035 86.9468 76.8367C78.7223 108.347 71.3993 141.737 69.8716 152.18C69.5555 154.34 69.8675 156.546 70.7678 158.536C72.5219 162.411 74.3287 166.614 77.1779 170.138C80.3055 174.007 84.135 176.5 88.4988 178.992C90.003 179.851 91.6842 180.356 93.4127 180.469ZM34.1723 131.577C36.9141 131.972 40.4224 132.312 44.1784 131.628C48.2312 130.89 51.83 129.11 55.0806 126.364C56.9623 124.774 58.2791 122.618 58.8341 120.218C61.6885 107.871 53.6684 99.7855 47.8236 95.8555C41.9559 91.9103 34.8182 89.5558 31.1957 88.3374C30.5363 88.1157 29.858 87.9549 29.1693 87.8567C23.1084 86.9929 18.1978 87.8712 13.0109 90.2794C10.4873 91.4512 8.47877 93.5055 7.36324 96.0545C4.94597 101.578 5.10144 107.22 7.26773 112.184C9.23365 116.688 12.5425 119.955 15.3843 122.19C20.9961 126.604 28.0691 129.475 31.549 130.872L32.1889 131.106C32.8344 131.321 33.4979 131.48 34.1723 131.577ZM16.5431 178.225C23.1509 178.751 31.9514 177.311 39.4555 174.161C46.3272 171.276 56.5718 164.98 58.1384 153.084C58.3684 151.337 58.1895 149.56 57.6179 147.893C56.7475 145.355 55.5418 142.365 52.9444 139.649C51.7985 138.451 50.636 137.571 49.8022 136.97C49.1752 136.518 47.9258 135.665 47.3365 135.251C45.3769 133.873 43.0334 133.147 40.6382 133.175C35.1079 133.241 27.075 134.017 19.6917 136.594C12.7992 139 2.9819 144.276 0.308385 155.538C-0.0542777 157.066 -0.0975208 158.652 0.181041 160.198C0.84329 163.871 2.06824 167.197 4.52028 170.258C6.34265 172.532 8.98766 174.618 9.98015 175.477L10.3304 175.767C12.1069 177.185 14.2701 178.044 16.5431 178.225ZM35.5333 211.57C37.7674 215.022 41.6978 217.015 45.8227 216.757C56.5058 216.09 65.6011 209.433 70.806 201.487C76.1073 193.394 78.7034 181.775 72.7336 170.939C70.2996 166.521 65.2539 164.225 60.324 165.293C51.5295 167.199 42.5235 172.399 36.8545 180.116C30.7419 188.437 28.5607 199.94 35.3232 211.232L35.5333 211.57ZM79.0897 224.013C82.4594 229.048 89.1779 230.572 94.3901 227.483C100.481 223.874 106.395 218.49 107.594 210.143C108.685 202.549 105.26 195.799 102.236 190.956C99.5855 186.712 94.4779 184.689 89.6401 185.969C85.1274 187.162 81.0985 189.525 78.1442 193.184C75.2318 196.792 73.9592 200.919 73.6394 204.706C73.0302 211.921 75.7118 218.966 79.0897 224.013Z" fill="white"/>
<path d="M94.1619 169.085C114.443 170.413 124.871 158.81 142.035 149.131C164.48 136.481 186.987 124.363 209.334 111.575C214.419 108.67 218.723 102.081 216.278 95.7565C211.962 87.428 193.221 82.6273 184.59 79.2255C198.136 59.3575 239.383 27.5891 194.431 15.6986C182.072 18.4034 163.563 41.3774 154.346 51.4373C150.177 41.0924 147.524 29.3903 141.913 19.7473C139.578 15.739 136.729 12.6599 131.998 11.6951C128.209 10.9199 124.125 11.7269 120.996 14.0588C109.896 22.3457 84.0273 134.278 81.1667 153.833C85.1154 162.558 85.9222 164.38 94.1619 169.085Z" fill="black"/>
<path d="M111.716 136.892C135.506 124.69 159.223 112.308 182.829 99.7497C163.355 92.9118 157.45 92.7528 164.7 70.4025C163.71 71.0334 162.707 71.6485 161.692 72.2489C143.991 82.6476 140.543 64.6003 133.477 51.6496C125.274 76.8503 117.805 110.724 111.716 136.892Z" fill="#FFF7F7"/>
<path d="M17.4531 166.852C26.6464 167.585 45.3751 162.643 46.8299 151.597C45.3996 147.426 44.605 147.276 40.7786 144.586C31.1697 144.701 13.9813 147.361 11.4141 158.175C12.2576 162.854 13.9323 163.804 17.4531 166.852Z" fill="black"/>
<path d="M35.8031 120.285C40.5342 120.966 43.9938 120.799 47.7225 117.649C50.2164 106.862 35.253 101.741 27.5634 99.1546C23.8226 98.6215 21.1331 99.0922 17.8201 100.631C13.3335 110.882 28.6392 117.41 35.8031 120.285Z" fill="black"/>
<path d="M45.1165 205.371C57.8794 204.574 69.5421 188.784 62.745 176.446C49.8599 179.239 36.9991 191.817 45.1165 205.371Z" fill="black"/>
<path d="M88.5772 217.668C98.2961 211.909 98.1372 205.929 92.5626 197.001C82.5014 199.662 83.8217 210.562 88.5772 217.668Z" fill="black"/>
</svg>
