<svg width="208" height="173" viewBox="0 0 208 173" fill="none" xmlns="http://www.w3.org/2000/svg">
<path d="M151.335 0.112272C156.601 -0.365256 166.553 0.68589 175.158 3.16305C179.523 4.4197 184.364 6.26672 188.348 9.03024C192.101 11.633 196.702 16.2423 197.132 23.2109L197.16 23.8935V23.9091C197.173 24.5434 197.131 25.2027 197.114 25.4775C197.09 25.8567 197.056 26.3297 197.028 26.7324C197.015 26.9165 197.004 27.1011 196.992 27.2851C198.237 28.1497 199.394 29.1231 200.437 30.2314C202.993 32.9474 204.406 35.981 205.104 39.0097C205.742 41.7775 205.75 44.4536 205.725 46.3408C205.7 48.2681 205.637 49.5611 205.669 51.0498L205.689 51.7021V51.7041C206.478 71.7427 206.142 93.4774 206.647 112.841L206.831 118.419C206.917 121.048 207.013 124.204 207.079 127.152C207.146 130.184 207.189 133.253 207.162 135.734C207.148 136.962 207.115 138.165 207.049 139.198C207.015 139.709 206.967 140.296 206.886 140.885C206.834 141.267 206.674 142.445 206.181 143.723L205.585 143.492C205.502 143.74 205.411 143.985 205.309 144.226C205.434 144.833 205.572 145.588 205.659 146.415C205.848 148.209 205.982 151.807 203.793 155.337C201.917 158.36 198.48 163.165 192.245 164.262C188.62 164.899 185.287 163.982 182.75 162.917C176.101 163.923 170.106 163.912 164.496 163.656C158.037 163.362 153.026 162.841 146.992 162.808H145.77C139.461 162.843 130.517 163.972 123.135 165.154C119.407 168.429 115.468 169.992 111.766 170.852C109.758 171.318 107.653 171.606 106.301 171.815C104.767 172.054 103.659 172.26 102.633 172.563C100.863 173.087 98.9818 173.111 97.1989 172.632C94.7643 171.977 92.1334 171.155 89.5339 169.724C88.0944 168.931 86.7964 168.025 85.5837 167.006C80.5493 166.665 75.4052 166.582 70.0993 166.563L63.4977 166.559C63.4807 166.559 63.4667 166.559 63.4352 166.563C63.3961 166.569 63.3033 166.587 63.1071 166.64C62.8748 166.702 62.6414 166.773 62.1628 166.92C61.7499 167.046 61.1087 167.243 60.404 167.42C58.8819 167.801 56.8932 168.14 54.5016 167.969C53.4828 167.896 52.4786 167.735 51.4841 167.498L48.4714 168.402C48.1073 168.511 47.7371 168.6 47.363 168.667C46.212 168.873 44.4295 169.108 42.8073 169.277C41.421 169.422 39.1414 169.635 37.444 169.541C36.6577 169.497 35.8914 169.36 35.1569 169.143C30.9591 170.08 27.2124 171.031 22.8512 172.337C20.9576 172.904 18.9381 172.897 17.0485 172.317C14.7381 171.608 11.471 170.662 8.59733 168.692C5.38617 166.491 3.41855 163.62 1.78874 160.864C0.904793 159.37 0.425142 157.671 0.397135 155.935C0.0194429 132.496 -0.0878309 109.055 0.0709632 85.6152C0.0709986 85.61 0.0709196 85.6048 0.0709632 85.5996C0.137173 77.7081 0.43971 70.865 1.29948 62.8486L1.32878 62.4629C1.34388 62.0798 1.31833 61.6876 1.25553 61.1562C1.22168 60.8703 0.891807 58.7171 0.848307 57.1396C0.788073 54.9542 1.09034 52.4604 2.27018 49.7724C2.80375 48.5569 3.46555 47.4203 4.22038 46.3457C4.22271 45.8612 4.21363 45.4602 4.18327 45.039C4.13197 44.3276 4.01418 43.6012 3.54069 42.3535C2.78071 40.3508 2.68375 38.1566 3.26432 36.0947C4.5115 31.6655 6.27644 26.7237 10.0358 22.8847C13.7457 19.0964 18.2784 17.4613 22.7829 16.6748C23.0422 16.5291 23.3711 16.341 23.8014 16.0898C24.4093 15.735 25.2901 15.2172 26.1257 14.7754C26.5572 14.5472 27.0872 14.2798 27.6628 14.0293C28.1864 13.8013 29.0458 13.4542 30.0827 13.2129L31.0231 12.998C40.751 10.8185 50.6647 9.90009 59.7868 9.12692L59.8503 9.12204C62.0794 8.94746 65.7057 9.23432 68.0973 9.43551C70.4837 9.63627 72.2387 9.81142 73.5944 9.93551L74.8258 10.042L75.4264 10.1025C76.8313 10.2736 78.2308 10.638 79.0778 10.8652C80.2699 11.185 81.5947 11.5823 82.7702 11.9365C84.0109 12.3103 85.1067 12.6425 86.07 12.9121C86.5424 13.0443 86.923 13.1449 87.2184 13.2158C87.5381 13.2926 87.6318 13.3047 87.5661 13.2949C89.7874 13.6267 91.6334 14.4503 92.8288 15.0625C94.0881 15.7073 95.2348 16.4405 96.0749 16.9941C97.1377 17.6945 97.5083 17.9637 98.1735 18.3877C98.3747 18.5159 98.5081 18.593 98.5817 18.6357C98.6851 18.673 98.7561 18.6977 98.7995 18.7109C98.8604 18.7294 98.8878 18.735 98.8981 18.7373C98.9155 18.741 98.9572 18.7505 99.1042 18.7744C99.1716 18.7853 99.6009 18.8511 99.9323 18.9111C100.172 18.9544 100.423 19.0036 100.685 19.0625C100.888 18.9601 101.086 18.863 101.28 18.7715C101.48 18.5332 101.69 18.3029 101.913 18.083C104.849 15.1818 107.673 13.8418 110.288 13.0664C110.808 12.9122 111.291 12.7881 111.6 12.709C111.958 12.6172 112.126 12.5745 112.284 12.5293C112.37 12.5046 112.419 12.4862 112.444 12.4775C112.868 12.2502 113.186 12.0279 113.58 11.7158C113.655 11.6557 115.082 10.461 116.02 9.80661C117.426 8.82567 119.18 7.87816 121.447 7.28512C122.802 6.93054 124.17 6.74855 125.542 6.68356C126.213 6.40509 127.03 6.06594 127.862 5.7236C128.935 5.28184 130.091 4.81059 131.081 4.42087C131.573 4.22699 132.064 4.03691 132.505 3.87497C132.842 3.75081 133.484 3.5176 134.126 3.34469L134.13 3.34372L135.219 3.05954C140.674 1.68621 146.15 0.975089 150.536 0.217741L150.934 0.157194C151.067 0.139688 151.201 0.124403 151.335 0.112272Z" fill="white"/>
<path d="M152.239 10.0717C159.653 9.39953 186.929 13.2668 187.164 24.11C187.19 25.3886 186.248 32.9456 187.673 33.545C197.812 37.9104 195.36 43.5547 195.698 52.0976C196.498 72.4118 196.122 92.7833 196.652 113.105C196.759 117.142 197.628 138.116 196.853 140.123C196.9 140.109 196.058 140.348 196.096 140.345C192.747 141.403 197.11 147.141 195.296 150.066C191.925 155.5 189.607 155.409 184.225 152.512C170.39 155.274 159.503 152.73 145.716 152.808C137.605 152.853 126.226 154.459 118.329 155.816C112.72 162.4 106.59 160.964 99.7969 162.975C95.4163 161.797 92.9565 160.672 89.9492 157.325C81.218 156.504 72.273 156.558 63.4991 156.558C58.9603 156.558 57.2619 159.502 51.6237 157.018L45.6005 158.824C43.9749 159.116 39.543 159.641 37.9987 159.556L37.5538 158.398C31.2139 159.724 26.1832 160.902 19.9845 162.757C14.6543 161.121 13.2255 160.554 10.3978 155.773C10.0214 132.412 9.9144 109.047 10.0727 85.6833C10.1369 78.0351 10.4277 71.5295 11.2448 63.9121C11.8993 57.7937 8.55833 55.8716 14.1495 50.0035C14.2351 45.5175 14.5088 43.0665 12.8918 38.8056C15.2275 30.5104 17.7942 27.4506 25.503 26.3663C26.8762 26.1733 30.7562 23.324 32.3518 22.9526C41.5921 20.8011 51.1874 19.8919 60.6329 19.0913C63.097 18.8983 71.3704 19.8024 74.0483 20.0117C76.2771 20.1858 83.3741 22.7793 86.0905 23.1849C88.8326 23.5944 92.4175 26.9696 94.7532 27.8802C98.2098 29.2272 98.0173 28.0522 101.795 30.2944C106.911 25.9996 108.763 27.7954 112.245 24.3248L108.857 25.6573L108.943 25.1965C112.147 22.0309 114.196 22.8683 117.092 21.3343C121.653 18.9184 121.456 16.4341 127.535 16.6703C127.629 16.6737 135.406 13.3567 136.728 13.0007C141.947 11.5972 146.956 10.984 152.239 10.0717Z" fill="black"/>
<path d="M54.0999 30.5173C55.2164 30.3393 56.4013 30.9695 57.813 30.9443C68.9654 30.7449 83.0739 32.9918 93.3065 37.4346C94.6027 37.9985 97.3705 39.9617 97.5374 41.3258C98.3673 48.0951 97.854 55.3821 97.9566 62.0461C98.3032 75.7754 98.8165 89.5001 99.4967 103.217C99.8261 110.884 100.019 119.235 100.827 126.843C101.032 128.782 103.227 135.115 103.941 137.322C102.572 138.6 101.567 140.536 100.322 140.736C95.9546 137.851 81.9531 134.246 76.5459 132.975C62.0909 130.054 51.8026 130.873 37.399 133.725C33.3992 134.518 30.7854 134.732 26.5674 135.849C26.2124 134.191 24.9846 131.303 24.9547 130.1C24.698 128.398 26.1354 122.776 25.806 121.512C23.8553 114.052 25.0787 108.751 25.1814 101.515C25.3739 88.032 25.4039 75.1443 25.5878 61.5732C25.6648 55.537 23.7825 46.6557 25.3439 40.607C29.0443 33.3332 48.5343 32.5318 53.5651 30.7128L54.0999 30.5173Z" fill="white"/>
<path d="M59.9064 100.405C65.7328 99.6482 81.1204 100 83.9181 107.695C84.2304 108.558 83.8796 108.919 83.4304 109.657C79.5846 111.829 73.1036 108.411 67.4611 107.598C61.4635 106.91 55.3119 107.423 49.4127 108.637C46.538 109.228 43.9841 110.338 42.2943 107.386C42.8419 101.725 55.1964 100.936 59.9064 100.405Z" fill="black"/>
<path d="M62.6948 75.5991C68.4742 75.2162 81.7955 76.9898 84.1398 83.3037C83.5152 88.5852 72.6152 84.0106 69.5565 83.5267C67.6144 83.2194 65.8861 83.0278 63.9268 82.8652C57.9293 81.9088 44.3727 85.6191 41.4808 82.7017C41.9642 77.276 57.9421 76.0625 62.6948 75.5991Z" fill="black"/>
<path d="M58.438 52.8804C66.5702 51.8175 73.3934 53.3344 80.9952 55.8589C81.9919 57.2368 82.8731 58.1875 83.0058 59.8974C81.5598 63.9452 71.648 60.2076 67.7723 59.621C59.1609 58.6304 51.6917 59.5007 43.26 60.7964C42.3146 60.9419 41.7585 60.3509 41.1468 59.775C40.6462 54.4298 54.6007 53.4508 58.438 52.8804Z" fill="black"/>
<path d="M149.737 22.0981C152.813 21.4854 166.832 22.823 170.374 23.8653C172.004 24.345 175.216 25.5508 176.94 26.2491C177.92 33.7021 176.979 37.6636 177.171 44.8633L178.865 95.8809C179.178 103.392 178.925 111.724 180.059 118.997C179.841 119.419 178.784 122.482 178.566 123.094C175.362 122.733 172.179 121.726 169.065 121.217C156.432 119.158 137.233 123.498 126.384 129.709C120.036 130.392 111.284 139.218 106.728 138.484C105.555 136.517 108.67 125.846 108.554 122.212C107.763 96.5274 107.908 70.8753 106.197 45.2201C106.005 42.376 107.1 38.6212 107.523 35.8099C108.734 35.5904 110.638 35.3521 111.57 34.632C122.017 26.5679 136.891 23.7177 149.737 22.0981Z" fill="white"/>
<path d="M151.113 65.3127C154.818 65.1305 161.907 65.3936 162.339 70.0889C159.956 74.239 157.269 71.5531 153.997 71.7384C147.131 72.1269 140.483 73.9669 134.207 76.7328C131.328 78.6844 129.275 80.4948 125.626 79.3553C125.177 78.8996 124.646 78.5611 124.693 77.9463C125.378 68.8617 145.479 65.8797 151.113 65.3127Z" fill="black"/>
<path d="M147.875 90.905C151.674 90.6889 160.473 89.7801 162.753 93.5566C162.997 95.1848 163.087 94.5335 162.437 96.0247C160.332 98.0046 155.152 97.2849 152.183 97.5146C146.972 97.9177 142.977 99.0332 138.126 100.74C134.284 102.258 127.166 109.247 125.01 102.345C126.289 96.0829 142.215 92.0667 147.875 90.905Z" fill="black"/>
<path d="M150.185 42.2186C153.137 41.7565 163.519 42.2117 161.188 47.554C158.044 49.8586 155.541 47.8514 152.521 48.0833C146.104 48.5762 139.422 50.3413 133.313 52.1688C131.085 53.3866 125.434 57.0198 123.915 53.5479C125.412 45.9545 143.867 42.7034 150.185 42.2186Z" fill="black"/>
<path d="M155.236 132.454C160.785 131.588 181.455 133.758 184.112 138.274L183.774 139.245C179.83 142.56 160.053 139.819 153.542 140.002C151.989 140.18 151.065 139.785 149.701 139.677C142.608 139.121 132.273 140.365 125.21 141.172C134.253 134.489 144.691 134.112 155.236 132.454Z" fill="white"/>
<path d="M43.9767 142.679C45.4483 142.147 68.4676 144.16 71.6118 144.681C64.5704 145.705 57.6274 145.775 50.7657 147.61C50.7657 147.61 49.3882 147.132 49.2428 147.081C44.9178 148.471 46.1841 147.561 42.4324 148.048C40.5031 148.297 35.7675 150.217 33.4317 150.638C31.1388 151.05 26.3733 151.853 24.3498 150.576C23.9648 146.833 33.6371 143.674 36.4733 143.524C39.2539 143.377 40.61 143.706 43.4634 142.84L43.9767 142.679Z" fill="white"/>
</svg>
