<svg width="348" height="252" viewBox="0 0 348 252" fill="none" xmlns="http://www.w3.org/2000/svg">
<path d="M50.7871 0C51.8531 1.9059e-05 53.1842 0.0842173 54.6699 0.352539C55.8473 0.154956 57.2483 0 58.8086 0H74.3896C76.4598 0 79.5306 0.314612 82.79 1.68848C85.5964 0.525701 88.5211 0 91.2754 0H107.779C112.218 9.02993e-05 117.814 1.40747 122.368 5.50391C127.487 0.808764 133.381 0 136.702 0H165.976C168.607 0 171.161 0.44994 173.553 1.29785C176.436 0.252445 179.101 1.2459e-05 180.959 0H213.045C214.903 1.79987e-05 217.568 0.253058 220.452 1.29883C222.845 0.450323 225.4 0 228.032 0H238.174C241.814 0 245.506 0.864643 248.869 2.66406C252.233 0.864712 255.925 0 259.564 0H269.706C272.338 0 274.891 0.44997 277.283 1.29785C280.167 0.252434 282.831 2.49182e-05 284.689 0H301.562C305.03 3.09937e-05 311.303 0.880369 316.568 6.14551C321.834 11.411 322.715 17.6849 322.715 21.1523V80.2988C322.715 83.7662 321.834 90.0401 316.568 95.3057C311.303 100.571 305.03 101.451 301.562 101.451H284.689C284.054 101.451 283.324 101.42 282.522 101.339C281.721 101.42 280.991 101.451 280.355 101.451H264.433V123.369C271.427 115.94 280.825 110.66 291.678 108.873L292.291 108.775C318.028 104.871 342.218 122.129 346.927 147.718L347.035 148.329L347.036 148.333C349.768 164.324 344.283 179.831 333.634 190.52V230.299C333.634 233.766 332.753 240.04 327.487 245.306C322.222 250.571 315.947 251.451 312.48 251.451H295.608C294.973 251.451 294.242 251.42 293.441 251.339C292.64 251.42 291.91 251.451 291.274 251.451H274.401C273.529 251.451 272.479 251.395 271.312 251.228C270.146 251.395 269.096 251.451 268.224 251.451H251.352C250.479 251.451 249.429 251.395 248.263 251.228C247.096 251.395 246.046 251.451 245.174 251.451H228.302C227.666 251.451 226.935 251.42 226.134 251.339C225.333 251.42 224.603 251.451 223.967 251.451H207.095C206.222 251.451 205.172 251.395 204.005 251.228C202.838 251.395 201.789 251.451 200.917 251.451H184.044C183.412 251.451 182.687 251.421 181.892 251.341C181.096 251.421 180.371 251.451 179.739 251.451H153.924C153.288 251.451 152.557 251.42 151.756 251.339C150.955 251.42 150.225 251.451 149.589 251.451H132.717C131.845 251.451 130.795 251.395 129.628 251.228C128.461 251.395 127.411 251.451 126.539 251.451H109.667C109.031 251.451 108.3 251.42 107.499 251.339C106.698 251.42 105.968 251.451 105.332 251.451H88.46C87.5876 251.451 86.5371 251.395 85.3701 251.228C84.2037 251.395 83.1542 251.451 82.2822 251.451H65.4092C63.5483 251.451 60.8793 251.197 57.9912 250.147C55.6309 250.989 53.0865 251.451 50.4258 251.451H21.1523C17.6854 251.451 11.412 250.571 6.14648 245.306C0.880789 240.04 5.16575e-06 233.766 0 230.299V171.152C2.58288e-05 167.685 0.880857 161.411 6.14648 156.146C11.412 150.88 17.6854 150 21.1523 150H50.4258C55.3577 150 60.0148 151.579 63.8486 154.4C66.0918 152.7 68.5549 151.539 71.0439 150.838V101.451H59.5459C57.902 101.451 56.417 101.266 55.1367 101.01C53.463 101.349 51.9636 101.451 50.7871 101.451H33.9141C30.447 101.451 24.1729 100.571 18.9072 95.3057C13.6416 90.04 12.7617 83.7659 12.7617 80.2988V21.1523C12.7617 17.6852 13.6416 11.4111 18.9072 6.14551C24.1729 0.879902 30.447 1.35601e-05 33.9141 0H50.7871Z" fill="white"/>
<path d="M33.9141 81.4493C33.1458 81.4493 32.7616 81.0652 32.7616 80.2968V21.1505C32.7616 20.3822 33.1458 19.998 33.9141 19.998H50.7867C51.5551 19.998 51.9392 20.3822 51.9392 21.1505V39.1756H52.6307L55.5811 27.6506L57.3329 20.5973C57.3944 20.3207 57.5788 20.1517 57.8861 20.0902C58.2242 20.0288 58.5315 19.998 58.8081 19.998H74.3899C75.1583 19.998 75.5424 20.3822 75.5424 21.1505V33.0443C75.5424 33.3209 75.481 33.5668 75.358 33.7819C75.2351 33.9971 75.1122 34.2429 74.9892 34.5195L68.3047 49.502L67.5671 50.7928L68.3047 52.268L76.0956 67.7115C76.2493 67.9574 76.3415 68.2186 76.3722 68.4952C76.4337 68.7411 76.4644 69.0638 76.4644 69.4633V80.2968C76.4644 81.0652 76.0803 81.4493 75.3119 81.4493H59.5457C59.2999 81.4493 59.0233 81.4032 58.7159 81.311C58.4393 81.2188 58.2549 81.0344 58.1627 80.7578L55.3506 72.2293L52.6307 64.1618H51.9392V80.2968C51.9392 81.0652 51.5551 81.4493 50.7867 81.4493H33.9141Z" fill="black"/>
<path d="M79.6118 81.4493C78.8434 81.4493 78.4593 81.0652 78.4593 80.2968V37.5621C78.4593 37.0704 78.6129 36.6094 78.9203 36.1791L89.7999 20.6895C90.1379 20.2285 90.6297 19.998 91.2751 19.998H107.779C108.455 19.998 108.947 20.2285 109.254 20.6895L120.226 36.1791C120.533 36.6094 120.687 37.0704 120.687 37.5621V80.2968C120.687 81.0652 120.303 81.4493 119.534 81.4493H102.662C101.893 81.4493 101.509 81.0652 101.509 80.2968V63.0093H97.6369V80.2968C97.6369 81.0652 97.2527 81.4493 96.4844 81.4493H79.6118ZM99.5731 47.0126C100.895 47.0126 101.97 46.5977 102.8 45.7679C103.63 44.9381 104.045 43.8778 104.045 42.587C104.045 41.2655 103.63 40.1898 102.8 39.36C101.97 38.5302 100.895 38.1153 99.5731 38.1153C98.2515 38.1153 97.1759 38.5302 96.3461 39.36C95.5163 40.1898 95.1014 41.2655 95.1014 42.587C95.1014 43.8778 95.5163 44.9381 96.3461 45.7679C97.1759 46.5977 98.2515 47.0126 99.5731 47.0126Z" fill="black"/>
<path d="M136.702 81.4493C135.934 81.4493 135.55 81.0652 135.55 80.2968V21.1505C135.55 20.3822 135.934 19.998 136.702 19.998H165.976C166.682 19.998 167.297 20.2439 167.82 20.7356L177.04 29.9556C177.531 30.4781 177.777 31.0928 177.777 31.7996V80.2968C177.777 81.0652 177.393 81.4493 176.625 81.4493H159.752C158.984 81.4493 158.6 81.0652 158.6 80.2968V38.438H154.727V80.2968C154.727 81.0652 154.343 81.4493 153.575 81.4493H136.702Z" fill="black"/>
<path d="M180.959 81.4493C180.191 81.4493 179.807 81.0652 179.807 80.2968V21.1505C179.807 20.3822 180.191 19.998 180.959 19.998H213.045C213.813 19.998 214.197 20.3822 214.197 21.1505V37.2855C214.197 38.0539 213.813 38.438 213.045 38.438H198.984V42.2643H213.045C213.813 42.2643 214.197 42.6485 214.197 43.4168V58.0305C214.197 58.7989 213.813 59.183 213.045 59.183H198.984V63.0093H213.045C213.813 63.0093 214.197 63.3935 214.197 64.1618V80.2968C214.197 81.0652 213.813 81.4493 213.045 81.4493H180.959Z" fill="black"/>
<path d="M217.383 81.4493C216.614 81.4493 216.23 81.0652 216.23 80.2968V31.7996C216.23 31.0928 216.476 30.4781 216.968 29.9556L226.188 20.7356C226.71 20.2439 227.325 19.998 228.032 19.998H238.174C238.911 19.998 239.526 20.2439 240.018 20.7356L247.809 28.5265H249.929L257.72 20.7356C258.212 20.2439 258.827 19.998 259.564 19.998H269.706C270.413 19.998 271.028 20.2439 271.55 20.7356L280.77 29.9556C281.262 30.4781 281.508 31.0928 281.508 31.7996V80.2968C281.508 81.0652 281.124 81.4493 280.355 81.4493H263.483C262.714 81.4493 262.33 81.0652 262.33 80.2968V42.2643H258.458V80.2968C258.458 81.0652 258.074 81.4493 257.305 81.4493H240.433C239.664 81.4493 239.28 81.0652 239.28 80.2968V42.2643H235.408V80.2968C235.408 81.0652 235.024 81.4493 234.255 81.4493H217.383Z" fill="black"/>
<path d="M284.69 81.4493C283.921 81.4493 283.537 81.0652 283.537 80.2968V21.1505C283.537 20.3822 283.921 19.998 284.69 19.998H301.562C302.331 19.998 302.715 20.3822 302.715 21.1505V80.2968C302.715 81.0652 302.331 81.4493 301.562 81.4493H284.69Z" fill="black"/>
<path d="M92.1961 156.449C91.4278 156.449 91.0436 156.065 91.0436 155.297V96.1505C91.0436 95.3822 91.4278 94.998 92.1961 94.998H109.069C109.837 94.998 110.221 95.3822 110.221 96.1505V114.176H110.913L113.863 102.651L115.615 95.5974C115.676 95.3207 115.861 95.1517 116.168 95.0902C116.506 95.0288 116.814 94.998 117.09 94.998H132.672C133.44 94.998 133.824 95.3822 133.824 96.1505V108.044C133.824 108.321 133.763 108.567 133.64 108.782C133.517 108.997 133.394 109.243 133.271 109.52L126.587 124.502L125.849 125.793L126.587 127.268L134.378 142.712C134.531 142.957 134.623 143.219 134.654 143.495C134.716 143.741 134.746 144.064 134.746 144.463V155.297C134.746 156.065 134.362 156.449 133.594 156.449H117.828C117.582 156.449 117.305 156.403 116.998 156.311C116.721 156.219 116.537 156.034 116.445 155.758L113.633 147.229L110.913 139.162H110.221V155.297C110.221 156.065 109.837 156.449 109.069 156.449H92.1961Z" fill="black"/>
<path d="M148.543 156.449C147.836 156.449 147.221 156.188 146.699 155.666L137.479 146.446C136.987 145.954 136.741 145.339 136.741 144.602V96.1505C136.741 95.3822 137.125 94.998 137.894 94.998H154.766C155.535 94.998 155.919 95.3822 155.919 96.1505V136.073C155.919 137.364 156.564 138.009 157.855 138.009H159.791V96.1505C159.791 95.3822 160.175 94.998 160.944 94.998H177.816C178.585 94.998 178.969 95.3822 178.969 96.1505V155.297C178.969 156.065 178.585 156.449 177.816 156.449H148.543Z" fill="black"/>
<path d="M182.151 156.449C181.382 156.449 180.998 156.065 180.998 155.297V96.1505C180.998 95.3822 181.382 94.998 182.151 94.998H211.424C212.131 94.998 212.746 95.2439 213.268 95.7356L222.488 104.956C222.98 105.478 223.226 106.093 223.226 106.8V144.602C223.226 145.339 222.98 145.954 222.488 146.446L213.268 155.666C212.746 156.188 212.131 156.449 211.424 156.449H182.151ZM200.176 138.009H202.112C203.403 138.009 204.048 137.133 204.048 135.382V116.02C204.048 114.299 203.403 113.438 202.112 113.438H200.176V138.009Z" fill="black"/>
<path d="M226.408 156.449C225.639 156.449 225.255 156.065 225.255 155.297V96.1505C225.255 95.3822 225.639 94.998 226.408 94.998H243.28C244.049 94.998 244.433 95.3822 244.433 96.1505V155.297C244.433 156.065 244.049 156.449 243.28 156.449H226.408Z" fill="black"/>
<path d="M21.1525 231.449C20.3842 231.449 20 231.065 20 230.297V171.151C20 170.382 20.3842 169.998 21.1525 169.998H50.426C51.1329 169.998 51.7475 170.244 52.27 170.736L61.49 179.956C61.9817 180.478 62.2276 181.093 62.2276 181.8V219.602C62.2276 220.339 61.9817 220.954 61.49 221.446L52.27 230.666C51.7475 231.188 51.1329 231.449 50.426 231.449H21.1525ZM39.1776 213.009H41.1138C42.4046 213.009 43.05 212.133 43.05 210.382V191.02C43.05 189.299 42.4046 188.438 41.1138 188.438H39.1776V213.009Z" fill="black"/>
<path d="M65.4095 231.449C64.6412 231.449 64.257 231.065 64.257 230.297V187.562C64.257 187.07 64.4107 186.609 64.718 186.179L75.5976 170.69C75.9357 170.229 76.4274 169.998 77.0728 169.998H93.5766C94.2527 169.998 94.7445 170.229 95.0518 170.69L106.024 186.179C106.331 186.609 106.485 187.07 106.485 187.562V230.297C106.485 231.065 106.1 231.449 105.332 231.449H88.4595C87.6912 231.449 87.307 231.065 87.307 230.297V213.009H83.4346V230.297C83.4346 231.065 83.0504 231.449 82.2821 231.449H65.4095ZM85.3708 197.013C86.6923 197.013 87.768 196.598 88.5978 195.768C89.4276 194.938 89.8425 193.878 89.8425 192.587C89.8425 191.266 89.4276 190.19 88.5978 189.36C87.768 188.53 86.6923 188.115 85.3708 188.115C84.0493 188.115 82.9736 188.53 82.1438 189.36C81.314 190.19 80.8991 191.266 80.8991 192.587C80.8991 193.878 81.314 194.938 82.1438 195.768C82.9736 196.598 84.0493 197.013 85.3708 197.013Z" fill="black"/>
<path d="M109.667 231.449C108.898 231.449 108.514 231.065 108.514 230.297V171.151C108.514 170.382 108.898 169.998 109.667 169.998H138.94C139.647 169.998 140.262 170.244 140.784 170.736L150.004 179.956C150.496 180.478 150.742 181.093 150.742 181.8V230.297C150.742 231.065 150.357 231.449 149.589 231.449H132.717C131.948 231.449 131.564 231.065 131.564 230.297V188.438H127.692V230.297C127.692 231.065 127.307 231.449 126.539 231.449H109.667Z" fill="black"/>
<path d="M153.923 231.449C153.155 231.449 152.771 231.065 152.771 230.297V171.151C152.771 170.382 153.155 169.998 153.923 169.998H170.796C171.564 169.998 171.949 170.382 171.949 171.151V213.009H179.74C180.508 213.009 180.892 213.394 180.892 214.162V230.297C180.892 231.065 180.508 231.449 179.74 231.449H153.923Z" fill="black"/>
<path d="M184.044 231.449C183.276 231.449 182.892 231.065 182.892 230.297V187.562C182.892 187.07 183.046 186.609 183.353 186.179L194.232 170.69C194.571 170.229 195.062 169.998 195.708 169.998H212.211C212.888 169.998 213.379 170.229 213.687 170.69L224.658 186.179C224.966 186.609 225.119 187.07 225.119 187.562V230.297C225.119 231.065 224.735 231.449 223.967 231.449H207.094C206.326 231.449 205.942 231.065 205.942 230.297V213.009H202.069V230.297C202.069 231.065 201.685 231.449 200.917 231.449H184.044ZM204.006 197.013C205.327 197.013 206.403 196.598 207.233 195.768C208.062 194.938 208.477 193.878 208.477 192.587C208.477 191.266 208.062 190.19 207.233 189.36C206.403 188.53 205.327 188.115 204.006 188.115C202.684 188.115 201.608 188.53 200.779 189.36C199.949 190.19 199.534 191.266 199.534 192.587C199.534 193.878 199.949 194.938 200.779 195.768C201.608 196.598 202.684 197.013 204.006 197.013Z" fill="black"/>
<path d="M228.301 231.449C227.533 231.449 227.149 231.065 227.149 230.297V181.8C227.149 181.093 227.395 180.478 227.886 179.956L237.106 170.736C237.629 170.244 238.244 169.998 238.95 169.998H249.092C249.83 169.998 250.445 170.244 250.936 170.736L258.727 178.527H260.848L268.639 170.736C269.131 170.244 269.745 169.998 270.483 169.998H280.625C281.332 169.998 281.946 170.244 282.469 170.736L291.689 179.956C292.181 180.478 292.426 181.093 292.426 181.8V230.297C292.426 231.065 292.042 231.449 291.274 231.449H274.401C273.633 231.449 273.249 231.065 273.249 230.297V192.264H269.376V230.297C269.376 231.065 268.992 231.449 268.224 231.449H251.351C250.583 231.449 250.199 231.065 250.199 230.297V192.264H246.326V230.297C246.326 231.065 245.942 231.449 245.174 231.449H228.301Z" fill="black"/>
<path d="M295.608 231.449C294.84 231.449 294.456 231.065 294.456 230.297V171.151C294.456 170.382 294.84 169.998 295.608 169.998H312.481C313.249 169.998 313.633 170.382 313.633 171.151V230.297C313.633 231.065 313.249 231.449 312.481 231.449H295.608Z" fill="black"/>
<path d="M190.576 40.5917C193.73 41.1807 194.225 42.9562 196.816 43.4589C198.17 43.5614 199.919 42.809 201.229 42.8935C214.788 43.7678 203.024 54.0049 199.717 57.5086C200.771 58.9554 200.913 59.2401 201.235 60.9989C200.824 61.9834 200.266 62.9876 199.767 63.9374C210.024 74.5349 216.076 85.6376 211.456 100.472C212.059 101.79 210.672 101.011 210.302 102.715C210.334 102.848 210.406 103.13 210.409 103.253C210.431 104.054 206.65 107.224 206.626 107.602L207.478 107.651L207.463 107.844L206.926 108.25C206.116 108.353 206.411 107.751 206.052 107.992C205.066 108.657 203.206 109.945 202.132 110.318C201.117 110.668 197.449 112.138 196.593 112.213C193.106 112.514 187.794 112.535 184.42 112.03C182.283 111.988 178.263 111.323 176.175 110.957C169.715 109.825 162.364 107.82 157.606 103.023C154.27 99.6608 152.962 95.0339 152.969 90.3631C152.98 82.3356 157.575 74.9849 163.168 69.5029C165.171 67.538 168.656 64.911 171.079 63.2562C171.316 63.2586 171.518 63.2605 171.686 63.2623C172.86 62.3913 174.327 61.4349 175.465 60.5173C175.606 60.4034 175.126 57.9988 175.051 57.5913C175.924 56.0556 176.276 55.3526 177.767 54.3728C176.711 52.3285 173.815 46.4751 173.347 44.466C173.885 43.2448 174.373 41.9891 175.633 41.3671C178.212 40.0948 181.497 41.6153 184.06 42.348C186.899 41.4646 187.049 40.6545 190.576 40.5917Z" fill="black"/>
<path d="M195.372 65.331C195.904 65.3488 196.838 66.9686 197.26 67.4334C203.576 74.3747 209.049 82.7823 208.513 92.5486C208.391 94.7588 207.337 99.8438 205.709 101.32C205.47 101.081 205.482 101.097 205.171 100.958C204.679 101.153 204.634 101.222 204.3 101.638L204.377 101.837L205.07 102.12C204.744 103.109 202.98 104.515 202.075 105.052C201.605 105.466 200.915 104.963 200.577 105.236C199.107 106.423 197.122 107.741 195.109 107.689L195.612 107.058C194.95 106.586 192.623 108.085 191.515 108.085C190.842 108.29 190.702 107.528 190.155 107.593C185.466 108.153 180.748 107.263 176.034 106.604C174.882 106.243 173.228 105.862 172.088 105.577C148.45 99.682 157.292 77.5531 172.004 67.5607C174.002 66.203 177.282 64.4024 179.035 62.9694C184.535 64.5681 189.632 65.1907 195.372 65.331Z" fill="white"/>
<path d="M185.891 71.5823C187.112 71.8914 187.296 72.4017 187.828 73.4462L187.619 75.5627C189.475 76.0636 191.744 77.0248 192.695 78.8212C193.602 80.2972 192.457 81.8946 190.823 81.1655C189.389 80.5272 188.632 79.6005 187.066 78.9646C186.733 80.9717 186.47 83.1138 186.157 85.1428C187.29 85.7565 188.423 86.2847 189.522 86.956C192.67 88.8796 193.615 92.5437 191.211 95.4983C189.349 97.7856 186.715 98.1203 183.984 98.4394C183.653 100.085 182.844 102.181 180.702 101.106C179.78 99.9266 180.035 99.3437 180.27 97.9312C180.004 97.8508 179.737 97.7688 179.473 97.6855C177.321 97.0068 175.014 95.8712 173.897 93.7948C173.454 92.9728 173.256 91.4544 174.352 91.0354C176.305 90.2894 177.679 92.3704 179.059 93.3459C179.622 93.7444 180.364 94.0329 181.013 94.2997C181.357 92.3617 181.603 89.6766 181.895 87.6459C178.026 85.7751 173.751 83.0123 177.296 77.867C178.702 75.825 181.482 75.2162 183.862 74.9753C184.181 73.0628 184.067 72.5297 185.891 71.5823Z" fill="black"/>
<path d="M185.566 89.1009C187.808 90.1046 189.841 91.9511 187.152 94.0315C186.165 94.4813 185.638 94.5818 184.601 94.8164C184.956 92.6746 185.016 91.2595 185.566 89.1009Z" fill="white"/>
<path d="M182.901 78.586C183.12 78.6434 183.014 78.5969 183.187 78.8175C183.056 80.3811 182.781 82.1866 182.578 83.7611L181.09 82.797C178.942 80.7639 180.752 79.2444 182.901 78.586Z" fill="white"/>
<path d="M203.506 101.741C203.99 101.915 203.891 101.807 204.197 102.154C204.017 102.694 203.655 102.837 203.142 103.254C202.867 103.206 202.924 103.202 202.668 103.061C202.714 102.573 203.17 102.147 203.506 101.741Z" fill="black"/>
<path d="M189.536 44.5962C192.122 44.709 193.486 47.3879 195.89 47.5661C197.143 47.6591 199.141 47.1115 200.578 46.9454C201.18 47.4001 201.781 47.8582 202.379 48.3196C200.781 50.4499 197.853 53.4948 196 55.5192C195.001 56.6129 192.6 55.416 190.729 55.3026L190.546 55.2932C188.626 55.2807 184.408 54.4881 182.151 54.2413C181.386 52.9358 180.827 51.3557 180.125 49.9827C179.544 48.8494 177.951 46.4893 178.347 45.2589C179.639 44.1317 182.655 46.42 184.181 46.2732C186.244 46.0745 187.233 44.9629 189.536 44.5962Z" fill="white"/>
<path d="M183.63 58.2766C184.772 58.3336 193.177 59.4772 193.635 59.9133C193.372 60.2071 193.276 60.1994 193.279 60.4919C193.804 60.5424 194.077 60.567 194.586 60.6988C194.052 61.1694 192.765 61.1771 192.091 61.1662C190.36 61.2322 182.846 60.5004 182.076 59.1104L182.709 58.945C182.575 58.7351 182.488 58.5824 182.371 58.3628C182.722 58.1153 183.102 58.245 183.63 58.2766Z" fill="white"/>
<path d="M294.926 128.605C310.237 126.085 324.705 136.401 327.322 151.698C329.934 166.993 319.709 181.531 304.432 184.238C289.025 186.966 274.339 176.631 271.701 161.203C269.064 145.774 279.485 131.147 294.926 128.605Z" fill="black"/>
<path d="M292.808 133.579C305.183 129.969 318.131 137.13 321.652 149.533C325.177 161.937 317.928 174.838 305.504 178.276C293.202 181.68 280.456 174.515 276.968 162.233C273.48 149.95 280.551 137.154 292.808 133.579Z" fill="white"/>
<path d="M312.66 156.472C313.788 156.643 314.053 156.634 314.898 157.371C318.559 164.583 298.769 178.571 286.09 165.341C284.86 163.824 283.573 162.086 284.512 160.067C288.218 159.153 289.845 163.808 293.224 165.005C296.122 166.029 298.848 166.123 301.888 166.422C308.731 163.182 308.567 162.241 312.66 156.472Z" fill="black"/>
<path d="M289.208 145.775C293.929 146.284 294.699 151.212 290.924 154.153C285.527 153.862 285.197 148.861 289.208 145.775Z" fill="black"/>
<path d="M305.227 144.085C305.585 144.075 305.687 144.064 305.958 144.083C307.183 144.175 308.315 144.778 309.076 145.745C310.903 148.073 309.661 150.382 307.653 151.945C303.027 153.19 301.519 147.503 305.227 144.085Z" fill="black"/>
</svg>
