<svg width="361" height="402" viewBox="0 0 361 402" fill="none" xmlns="http://www.w3.org/2000/svg">
<path d="M183.966 6.40689C189.031 2.97597 194.212 3.24879 196.955 3.77585L205.596 5.43807C206.445 5.60129 207.503 5.87227 208.66 6.32102C209.898 6.33357 210.979 6.47238 211.827 6.63532L220.469 8.29593C223.191 8.81936 228.056 10.4682 231.484 15.4503C235.912 14.2343 240.303 14.9268 243.756 16.5665L252.419 20.68C255.542 22.1633 259.04 25.0105 261.002 29.3799C261.245 29.3455 261.493 29.3155 261.744 29.2908C267.452 28.7298 271.697 31.0796 273.984 32.8356L274.415 33.1774L281.216 38.7619C281.924 39.3435 282.777 40.1465 283.628 41.1758C284.581 41.6898 285.388 42.2345 286.037 42.7328L286.468 43.0746L293.247 48.6396C295.369 50.3818 298.809 54.096 299.492 60.0079C303.681 60.8343 307.1 63.1177 309.456 65.8532L310.042 66.5709L315.909 74.1562C317.823 76.6318 319.509 80.2423 319.645 84.4519C325.022 86.494 327.773 90.5602 328.968 92.9688L332.879 100.852C333.263 101.626 333.683 102.631 334.026 103.822C334.619 104.616 335.087 105.378 335.447 106.048L335.698 106.537L339.609 114.419C340.737 116.693 342.2 120.966 340.991 126.079C343.95 128.337 345.923 131.356 346.976 134.398L347.254 135.281L349.911 144.494C351.148 148.783 351.099 155.043 346.778 160.423L346.78 160.425L339.535 169.501L339.533 169.499C339.143 169.988 338.724 170.463 338.276 170.918L339.867 170.928C342.659 170.945 347.796 171.686 352.095 176.038C356.395 180.39 357.073 185.536 357.056 188.328L356.951 205.644C356.927 209.49 355.705 213.128 353.544 216.142C356.39 220.887 356.15 225.62 355.671 228.2L352.756 243.894C352.137 247.23 350.38 251.565 346.222 254.88C345.933 255.111 345.635 255.332 345.331 255.543L343.504 256.808C346.764 262.102 346.642 267.958 344.91 272.447L341.458 281.393C340.342 284.284 338.156 287.557 334.684 289.85C335.697 295.14 333.954 299.42 332.677 301.66L328.317 309.304C327.442 310.839 325.854 313.048 323.311 314.874C322.595 318.248 320.977 320.772 319.784 322.247L309.297 335.203C306.432 338.743 302.165 341.322 297.08 341.858L289.146 342.694C287.403 342.878 285.628 342.811 283.883 342.487L283.61 352.22C283.607 352.333 283.603 352.446 283.597 352.559C283.289 358.924 279.742 363.744 275.659 366.445L267.662 371.734C264.749 373.661 260.448 375.196 255.636 374.57C255.516 374.855 255.387 375.143 255.247 375.43C252.568 380.929 247.939 383.275 245.3 384.185L236.981 387.054C236.164 387.336 235.112 387.626 233.886 387.814C232.806 388.421 231.8 388.841 230.983 389.123L222.664 391.991C220.024 392.901 214.932 393.907 209.433 391.228C209.278 391.152 209.127 391.074 208.977 390.996C205.631 394.631 201.192 396.349 197.149 396.622L187.582 397.269C184.279 397.492 180.064 396.793 176.334 394.23C171.476 397.847 166.334 397.837 163.585 397.452L154.871 396.232C153.099 395.984 150.415 395.313 147.746 393.58C144.281 394.179 141.285 393.578 139.452 392.993L131.068 390.322C128.408 389.474 123.726 387.235 120.918 381.8C120.475 380.941 120.123 380.09 119.849 379.255C119.798 379.278 119.747 379.304 119.695 379.326C113.853 381.871 107.96 380.828 103.729 378.366L95.4423 373.543C92.4642 371.809 89.2269 368.696 87.6318 364.203C87.4269 364.214 87.2194 364.224 87.0097 364.229C80.8933 364.361 76.6894 361.317 74.6726 359.386L62.1655 347.41C59.3573 344.721 57.5479 341.289 56.8596 337.604C51.3673 336.399 48.0726 332.898 46.5299 330.743L41.4071 323.588C40.0947 321.755 38.2669 318.407 38.1378 314.009C33.5645 311.849 31.1478 308.223 30.0502 306.004L21.3373 288.384C20.0997 285.881 18.4556 280.957 20.4155 275.162C20.7707 274.112 21.2034 273.156 21.6873 272.288C20.602 271.882 19.4924 271.342 18.3855 270.627C13.2458 267.31 11.4697 262.434 10.8812 259.705L7.36883 243.41C6.40937 238.957 7.07853 234.017 9.85083 229.721L10.6398 228.497L9.26273 227.201C9.14073 227.086 9.01992 226.969 8.90145 226.851C5.65228 223.602 3.7071 219.235 3.56322 214.509L3.22138 203.262C3.10452 199.423 4.19169 195.455 6.63493 192.072C3.28301 187.025 3.57348 181.889 4.10595 179.165L5.7941 170.528L5.9075 169.99C6.07756 169.249 6.32539 168.389 6.68677 167.466C6.70328 166.228 6.84522 165.147 7.01079 164.3L8.69894 155.665L8.81396 155.126C8.9837 154.386 9.23147 153.528 9.59161 152.608C9.60777 151.368 9.75145 150.286 9.91725 149.437L11.6054 140.801L11.7188 140.263C12.3636 137.453 14.1406 132.938 18.8991 129.735C20.1497 128.894 21.4064 128.277 22.6318 127.833C21.9062 126.676 21.2693 125.347 20.7962 123.827C18.9788 117.985 20.7417 113.103 22.0405 110.631L30.8554 93.855L31.1195 93.3722C32.033 91.7628 33.5945 89.6134 36.0446 87.8299C36.675 84.1739 38.3969 81.4465 39.6477 79.8865L45.1512 73.0221L45.5027 72.5977C46.0345 71.977 46.7121 71.2792 47.5376 70.5807C48.1585 69.3967 48.8285 68.4336 49.4023 67.7179L54.8896 60.8746L55.2412 60.4518C56.3933 59.1068 58.2225 57.3909 60.7835 56.1213C62.0428 52.8593 64.0848 50.6066 65.5191 49.3363L72.1064 43.5023L72.5244 43.1443C74.5707 41.4475 78.2615 39.1838 83.3126 39.1135L83.7112 38.1997L84.0935 37.38C84.4912 36.5856 85.0963 35.4967 85.9712 34.3358C87.5729 32.1936 89.3845 30.7818 90.7845 29.8919L97.9 25.3685L98.3698 25.0802C100.852 23.6136 105.35 21.7934 110.948 23.0405C111.991 23.2728 112.954 23.5872 113.842 23.9574C114.133 22.949 114.533 21.9127 115.071 20.8647C117.867 15.4228 122.545 13.1744 125.204 12.3203L133.581 9.62927L134.108 9.46888C136.72 8.72233 141.144 8.1258 145.915 10.253L146.902 9.37329C147.126 9.17224 147.358 8.97854 147.593 8.79006C148.287 8.23509 149.292 7.49873 150.573 6.81029C152.924 5.53495 155.16 5.01079 156.804 4.78841L165.16 3.65758L165.706 3.59278C168.574 3.29936 173.42 3.52801 177.983 7.00309C178.986 7.76711 179.841 8.58699 180.57 9.42999C181.486 8.36251 182.603 7.33068 183.966 6.40689ZM173.358 71.8152C173.204 71.9282 173.049 72.0413 172.891 72.1489C170.878 73.5209 168.33 74.6461 165.342 75.0505L158.048 76.0371C157.872 76.061 157.685 76.0837 157.491 76.1036C156.654 76.5067 155.882 76.8015 155.23 77.0108L146.853 79.7018C144.638 80.4133 140.722 81.153 136.33 79.765L133.845 83.8784C133.759 84.0326 133.674 84.1872 133.583 84.3385C132.328 86.4272 130.487 88.5156 127.942 90.1336L121.73 94.0834C121.467 94.2507 121.172 94.4239 120.852 94.6019C120.207 95.372 119.575 96.0008 119.029 96.4844L112.442 102.318C112.177 102.553 111.875 102.803 111.54 103.062C111.049 103.895 110.55 104.595 110.107 105.147L104.62 111.99C104.047 112.706 103.252 113.567 102.232 114.43C101.611 115.614 100.943 116.577 100.369 117.293L94.8656 124.157C94.3693 124.776 93.7056 125.504 92.8761 126.249C92.4839 128.364 91.7662 130.09 91.1474 131.268L87.0534 139.057C85.781 141.479 82.8566 145.575 77.247 147.45C79.6844 151.238 80.7554 155.953 79.8132 160.773L78.569 167.139C78.1262 169.404 77.2769 171.478 76.1226 173.313C76.5014 175.447 76.5072 177.69 76.0643 179.955L74.8201 186.321C74.3362 188.796 73.3422 191.145 71.8974 193.221C73.1794 195.665 73.8777 198.363 73.9614 201.107L74.2125 209.341C74.2861 208.77 74.3871 208.202 74.5203 207.639C75.4123 203.873 76.3704 200.181 78.0732 196.42C78.6089 195.237 79.191 194.118 79.8035 193.038C78.4121 185.04 79.2867 177.044 83.9607 169.59C87.3891 164.122 92.3625 160.027 96.9944 156.893C99.4169 147.256 104.462 138.452 112.439 132.167C120.019 126.195 129.163 123.36 138.817 123.581C140.959 120.961 143.35 118.46 146.161 116.348C152.264 111.765 159.151 109.783 166.184 107.987C168.526 107.389 170.97 107.312 173.345 107.757C178.146 108.657 183.201 109.66 188.193 111.73C189.973 112.467 191.651 113.3 193.267 114.225C199.554 111.94 206.368 111.079 213.399 112.496C220.807 113.989 226.999 117.719 232.018 122.717C233.035 122.695 234.083 122.715 235.145 122.795C245.246 123.546 254.623 128.315 261.182 136.028C267.47 143.389 270.155 151.141 270.93 158.78C277.906 164.705 283.33 172.138 285.32 181.626C287.428 191.679 285.083 201.344 281.06 210.065C282.119 216.993 281.731 223.879 278.701 230.711C275.283 238.42 269.158 244.149 264.589 248.421C262.287 250.573 259.42 252.025 256.323 252.607C249.345 253.919 247.55 254.902 239.244 258.815C235.107 260.764 230.375 260.908 226.158 259.267C220.602 264.726 213.737 268.159 206.49 269.748C198.438 271.513 190.178 270.997 182.6 269.114C179.566 270.974 176.367 272.668 172.674 273.9C170.997 274.459 169.348 274.881 167.717 275.204C166.482 276.998 164.907 279.242 163.175 281.365C161.176 283.816 158.163 287.139 154.16 289.657C149.89 292.343 143.377 294.747 135.752 292.806C133.784 292.305 131.924 291.447 130.266 290.274C126.257 287.439 123.104 283.647 121.241 279.021C119.841 275.546 119.403 272.181 119.405 269.265C117.427 268.146 115.503 266.819 113.693 265.221C108.966 261.048 106.042 256.018 104.155 250.728C103.771 250.641 103.371 250.551 102.969 250.452C101.875 250.183 100.507 249.812 99.0665 249.291C97.6557 248.78 95.8037 247.994 93.8967 246.763C80.4011 238.05 76.6037 223.479 74.5868 215.554C74.4587 215.051 74.3541 214.543 74.2741 214.032C74.1947 215.333 73.982 216.596 73.6422 217.807C74.3458 219.193 74.7855 220.502 75.0517 221.567L75.1765 222.104L77.0299 230.705C77.1934 231.463 77.3369 232.411 77.3944 233.495C77.7006 234.28 77.9269 235.012 78.0878 235.656L78.2125 236.192L80.0659 244.793C80.3964 246.327 80.6626 248.632 80.2458 251.269C82.3577 253.02 83.7156 255.01 84.5261 256.523L84.7772 257.012L93.4917 274.632C93.6059 274.863 93.7204 275.116 93.8384 275.387C94.1038 275.691 94.3445 275.984 94.5577 276.262L94.885 276.704L104.077 289.547C104.655 290.353 105.329 291.455 105.918 292.808C107.513 293.515 109.033 294.462 110.419 295.659L111.114 296.293L123.311 307.972C123.889 308.237 124.399 308.506 124.831 308.758L132.413 313.171C133.159 313.605 134.065 314.212 135.007 315.016C135.938 315.353 136.747 315.735 137.416 316.095L137.897 316.364L145.034 320.517C145.151 320.547 145.266 320.578 145.377 320.609L145.904 320.768L160.951 325.565C161.3 325.676 161.682 325.812 162.092 325.975C162.846 325.969 163.535 326.009 164.136 326.074L164.684 326.142L173.397 327.362L173.627 327.397C174.377 327.258 175.058 327.18 175.639 327.141L184.389 326.55L184.938 326.521C185.697 326.494 186.591 326.513 187.574 326.624C188.776 326.321 189.858 326.18 190.72 326.122L199.5 325.529L200.049 325.502C200.323 325.492 200.614 325.489 200.921 325.494C202.399 324.407 204.038 323.551 205.778 322.952L216.043 319.412L216.914 319.135C218.027 318.812 219.168 318.598 220.32 318.492C221.149 317.718 221.949 317.116 222.62 316.672L229.935 311.833L230.4 311.536C231.046 311.139 231.832 310.714 232.741 310.325C233.636 309.466 234.507 308.809 235.228 308.332L242.567 303.478L243.032 303.182C244.063 302.547 245.451 301.846 247.129 301.328C247.948 298.852 249.199 296.962 250.168 295.765L255.704 288.925L256.057 288.502C256.492 288 257.024 287.448 257.652 286.885C258.191 285.945 258.747 285.165 259.234 284.562L264.77 277.722C265.032 277.398 265.34 277.044 265.694 276.674C266.063 275.71 266.47 274.891 266.839 274.243L271.199 266.6L271.479 266.125C271.651 265.844 271.847 265.549 272.062 265.24C272.285 264.213 272.569 263.327 272.842 262.621L275.999 254.438L276.205 253.927C276.501 253.229 276.895 252.428 277.41 251.585C277.643 250.365 277.972 249.324 278.284 248.518L281.452 240.309L281.537 240.097C281.589 239.598 281.656 239.144 281.731 238.742L283.183 230.922L283.286 230.407C283.496 229.44 283.807 228.401 284.25 227.335C284.212 225.872 284.356 224.599 284.535 223.63L286.084 215.283L286.194 214.744C286.4 213.807 286.728 212.681 287.249 211.476C286.546 209.526 286.165 207.418 286.178 205.214L286.284 187.897L286.297 187.348C286.378 185.229 286.889 182.09 288.777 178.973C285.836 176.25 284.486 173.042 283.9 171.012L281.47 162.584C281.231 161.753 280.994 160.687 280.869 159.451C280.319 158.342 279.952 157.317 279.712 156.488L277.274 148.033C276.988 147.042 276.709 145.715 276.616 144.167C274.729 142.4 273.541 140.495 272.861 139.124L268.926 131.19C268.338 130.005 267.662 128.276 267.317 126.168C265.993 125.113 265.001 124.019 264.325 123.145L258.959 116.206C258.431 115.523 257.819 114.62 257.248 113.52C256.326 112.69 255.604 111.871 255.076 111.187L249.878 104.467C249.28 104.076 248.764 103.689 248.338 103.339L241.559 97.774C240.85 97.1915 239.994 96.387 239.142 95.3552C237.968 94.7213 237.013 94.0426 236.305 93.4613L230.039 88.3143C229.48 88.1097 228.982 87.8999 228.555 87.697L220.631 83.9335C219.85 83.563 218.897 83.0336 217.891 82.3102C216.693 81.9873 215.679 81.5825 214.899 81.2117L206.951 77.4369C206.463 77.2054 205.908 76.9114 205.314 76.5475C203.052 76.8379 201.078 76.6385 199.712 76.3757L191.017 74.7038C188.275 74.1767 183.359 72.5105 179.927 67.4458C179.914 67.4264 179.901 67.4068 179.888 67.3874L173.358 71.8152ZM173.419 71.7714C173.439 71.7575 173.454 71.7471 173.463 71.7406C173.469 71.7362 173.474 71.7321 173.478 71.7293C173.458 71.7437 173.439 71.7572 173.419 71.7714Z" fill="white"/>
<path d="M170.327 124.109C180.064 125.935 184.243 127.115 191.794 133.56C204.74 124.968 216.747 127.168 225.019 140.476C227.99 139.839 230.91 139.154 233.956 139.387C239.643 139.81 244.922 142.499 248.609 146.851C253.892 153.035 255.082 159.51 254.505 167.297C271.51 178.097 273.424 190.418 263.664 207.784L263.782 208.222C267.371 222.08 263.135 227.151 253.298 236.349C244.051 238.087 240.585 239.911 232.213 243.856C227.309 241.356 225.22 240.753 219.983 239.244C213.204 255.835 194.742 257.035 179.991 250.858L175.565 254.019C169.2 258.12 165.996 259.209 158.553 259.675C153.994 264.943 147.483 278.712 139.883 276.777C133.406 272.196 136.581 264.76 138.76 258.567C126.092 255.943 120.772 252.24 118.326 239.537C117.425 234.859 107.091 235.557 102.933 232.873C95.4642 228.051 92.7965 219.736 90.7031 211.51C92.4306 204.216 93.3526 202.095 97.7477 196.035C92.131 180.175 99.4008 174.648 112.091 167.093C113.811 148.242 127.348 136.248 146.393 141.397C154.678 129.539 156.183 127.721 170.327 124.109Z" fill="black"/>
<path d="M138.481 149.722C146.581 148.813 143.741 153.768 153.937 151.665C159.259 155.181 164.724 159.209 167.513 165.468C167.61 165.686 164.348 170.341 163.641 171.814C163.619 174.566 165.163 177.144 166.363 179.739C164.624 181.823 159.914 186.417 160.899 189.049C162.339 189.411 174.456 186.283 176.767 185.747L185.188 188.888C189.688 195.071 187.835 194.731 190.102 201.207C191.334 204.729 201.995 204.866 205.007 206.249C206.895 207.116 208.589 208.601 210.264 210.043C210.673 211.462 211.09 212.879 211.515 214.292C213.489 220.791 213.339 216.718 216.536 218.422C207.413 224.887 206.333 223.555 207.676 234.087C208.67 241.881 191.408 243.602 188.707 241.677C178.419 234.343 177.834 234.996 168.819 244.488C165.867 247.637 157.77 247.893 152.519 247.474C149.168 247.733 146.369 248.982 143.219 250.157C136.913 248.354 131.624 246.904 128.133 240.768L128.621 239.902C138.272 239.512 148.112 245.487 157.065 236.91C159.604 234.478 159.107 231.439 156.321 229.582C153.195 229.459 144.832 232.379 141.16 233.352C138.176 232.597 136.06 232.244 133.459 230.695C131.693 229.643 125.577 225.544 123.654 225.511C118.531 225.422 117.503 228.686 111.366 225.502C103.016 221.17 97.6537 210.221 105.357 202.482C107.482 200.399 110.45 201.047 112.143 197.782C112.07 190.501 105.846 192.148 105.464 188.367C104.108 174.943 114.117 177.307 119.746 176.269C127.346 174.869 119.984 162.318 122.969 158.093C126.821 152.645 132.669 151.514 138.481 149.722Z" fill="white"/>
<path d="M128.303 189.496L130.837 189.542C135.822 192.519 128.499 196.611 131.47 202.853C135.834 212.023 155.922 199.197 159.667 206.989C159.091 209.235 158.799 209.357 157.134 211.105C153.346 212.688 145.186 214.918 140.95 216.182C127.767 212.265 113.489 203.22 128.303 189.496Z" fill="black"/>
<path d="M169.158 207.045C173.843 209.409 174.602 211.171 176.971 215.651C181.628 216.735 186.051 217.094 188.827 220.988C188.679 223.435 189.07 222.358 187.608 224.332L188.433 223.446C186.497 224.814 187.184 224.739 185.134 224.814C180.846 223.148 179.56 224.667 174.673 223.984C172.502 222.18 164.313 212.587 163.99 210.115C165.455 208.136 166.816 207.919 169.158 207.045Z" fill="black"/>
<path d="M138.539 162.215C143.233 162.455 147.07 162.147 148.148 167.771C144.776 171.908 141.261 168.662 136.05 171.985C133.421 173.02 131.49 173.554 128.972 172.203C127.14 166.307 133.991 163.422 138.539 162.215Z" fill="black"/>
<path d="M152.333 173.219C155.283 174.153 156.214 174.962 157.289 177.696C157.202 180.604 155.786 182.413 154.27 184.872C152.036 184.951 153.034 185.263 151.223 183.77C150.445 180.771 150.906 175.948 152.333 173.219Z" fill="black"/>
<path d="M169.738 135.01C186.667 133.88 182.193 144.693 188.671 147.468C195.252 145.824 202.185 133.374 211.283 137.748C213.609 138.866 216.217 141.836 217.123 144.239L215.673 146.794C215.349 149.221 217.201 152.872 218.209 155.369C220.276 153.916 224.644 150.655 226.936 150.031C233.723 148.185 242.63 149.75 244.115 157.937C245.405 165.044 242.685 168.328 238.923 173.897C246.976 177.669 258.41 175.92 259.581 187.414C260.188 193.376 259.313 198.244 252.264 198.5C249.185 198.613 247.097 200.988 244.97 203.029C249.495 205.563 251.24 206.777 254.638 210.613C254.824 225.598 249.863 226.453 235.643 230.651C230.932 232.042 223.014 228.305 218.643 226.439C215.549 225.118 220.278 214.626 219.668 211.998C219.567 196.661 200.199 199.54 195.757 194.813C198.852 181.965 180.58 178.432 173.04 176.213C168.55 174.892 173.261 159.326 172.232 155.676C170.742 150.388 162.216 145.793 157.555 142.737L157.942 140.975C161.227 137.073 164.967 136.258 169.738 135.01Z" fill="white"/>
<path d="M192.314 154.367C196.827 154.712 197.501 156.582 199.539 160.407C203.201 167.729 211.067 164.693 217.289 166.546C222.993 168.245 225.915 172.502 228.704 177.35L228.15 186.944C234.179 188.79 244.829 190.054 245.586 199.268C245.87 202.722 244.465 203.907 242.199 206.186C238.812 205.241 237.789 201.976 236.506 199.073C222.957 195.286 217.114 193.614 221.63 177.856L214.378 171.965C210.805 172.403 207.243 172.912 203.691 173.489C193.038 168.868 192.922 165.309 192.314 154.367Z" fill="black"/>
<path d="M303.457 201.989C303.499 201.521 303.754 201.308 304.222 201.35L340.262 204.581C340.73 204.623 340.943 204.878 340.901 205.347L339.324 222.931C339.285 223.362 339.102 223.723 338.774 224.014L332.652 229.128C332.307 229.4 331.919 229.516 331.488 229.477L325.589 228.948C325.402 228.931 325.255 228.88 325.15 228.795C325.044 228.711 324.923 228.586 324.787 228.423L321.25 223.66L320.447 223.135L319.452 223.499L315.124 227.557C314.961 227.693 314.819 227.794 314.7 227.858C314.6 227.925 314.447 227.949 314.241 227.93L308.454 227.412C308.005 227.371 307.644 227.188 307.371 226.861L302.257 220.74C301.967 220.393 301.841 220.004 301.88 219.573L303.457 201.989ZM310.9 214.662C310.814 215.617 311.002 216.37 311.462 216.921C311.939 217.493 312.684 217.824 313.695 217.914C314.725 218.007 315.516 217.813 316.069 217.334C316.638 216.876 316.966 216.169 317.052 215.214C317.137 214.259 316.942 213.496 316.464 212.924C316.004 212.373 315.259 212.052 314.229 211.959C313.218 211.869 312.427 212.053 311.857 212.511C311.305 212.99 310.986 213.707 310.9 214.662ZM325.292 215.84C325.208 216.776 325.397 217.51 325.859 218.042C326.319 218.593 327.036 218.913 328.01 219C328.984 219.087 329.746 218.901 330.297 218.44C330.847 217.999 331.163 217.31 331.247 216.374C331.33 215.456 331.141 214.722 330.68 214.171C330.218 213.639 329.5 213.329 328.527 213.241C327.553 213.154 326.791 213.331 326.242 213.773C325.691 214.233 325.374 214.922 325.292 215.84ZM300.732 230.772C300.856 230.319 301.144 230.154 301.598 230.278L336.505 239.805C336.958 239.928 337.123 240.217 337 240.67L332.604 256.777C332.475 257.249 332.258 257.58 331.953 257.769L324.042 262.334C323.806 262.484 323.617 262.569 323.475 262.589C323.333 262.608 323.117 262.579 322.827 262.499L315.372 260.465C315.137 260.4 314.92 260.195 314.722 259.849L312.15 255.347L311.483 253.936L308.014 255.183L300.552 256.712C300.364 256.758 300.185 256.768 300.017 256.742C299.862 256.739 299.676 256.707 299.458 256.648L294.751 255.363C294.298 255.239 294.133 254.951 294.257 254.497L296.499 246.281C296.608 245.882 296.864 245.659 297.266 245.613L308.749 244.566L308.994 243.668L298.709 240.862C298.256 240.738 298.091 240.449 298.215 239.996L300.732 230.772ZM318.647 248.145C318.39 249.088 318.448 249.874 318.822 250.502C319.196 251.13 319.882 251.581 320.88 251.853C321.878 252.125 322.697 252.086 323.339 251.735C323.98 251.384 324.43 250.736 324.687 249.793C324.94 248.868 324.879 248.091 324.504 247.463C324.13 246.835 323.444 246.384 322.447 246.112C321.449 245.84 320.63 245.879 319.988 246.23C319.346 246.582 318.899 247.22 318.647 248.145ZM293.099 258.258C293.304 257.835 293.618 257.726 294.041 257.931L317.575 269.317C317.829 269.44 318.042 269.647 318.214 269.939L323.846 280.057C324.01 280.366 324.006 280.699 323.834 281.054L319.522 289.965C319.342 290.338 319.084 290.547 318.749 290.593L307.295 292.509C306.976 292.563 306.682 292.525 306.411 292.394L282.876 281.008C282.453 280.803 282.344 280.49 282.549 280.066L286.774 271.333C286.979 270.91 287.293 270.801 287.716 271.005L297.566 275.771L299.052 272.699L289.202 267.934C288.779 267.729 288.67 267.415 288.874 266.992L293.099 258.258ZM306.236 278.055C305.77 279.019 305.675 279.861 305.954 280.581C306.241 281.326 306.909 281.952 307.959 282.46C309.008 282.967 309.905 283.098 310.651 282.853C311.405 282.633 312.015 282.041 312.482 281.076C312.932 280.145 313.014 279.307 312.726 278.563C312.448 277.843 311.784 277.23 310.735 276.722C309.685 276.214 308.784 276.07 308.03 276.29C307.284 276.536 306.687 277.124 306.236 278.055ZM280.152 284.653C280.418 284.265 280.744 284.203 281.132 284.469L310.993 304.905C311.381 305.17 311.442 305.497 311.177 305.885L305.697 313.891C305.432 314.279 305.105 314.34 304.717 314.075L274.857 293.639C274.469 293.373 274.408 293.047 274.673 292.659L280.152 284.653ZM271.676 296.762C271.999 296.421 272.331 296.412 272.672 296.735L298.935 321.626C299.276 321.95 299.285 322.282 298.962 322.623L286.992 335.253C286.694 335.567 286.326 335.736 285.888 335.761L277.914 335.975C277.475 335.974 277.099 335.824 276.785 335.527L255.251 315.117C254.91 314.794 254.901 314.462 255.224 314.12L261.878 307.099C262.202 306.758 262.534 306.749 262.875 307.073L282.199 325.387L284.352 323.115L265.029 304.8C264.687 304.477 264.679 304.145 265.002 303.804L271.676 296.762ZM244.318 323.232C244.729 323.005 245.049 323.097 245.275 323.509L257.889 346.409C258.025 346.656 258.078 346.948 258.05 347.286L256.792 358.798C256.746 359.144 256.551 359.413 256.205 359.604L247.534 364.379C247.172 364.579 246.84 364.601 246.54 364.444L236.089 359.382C235.797 359.242 235.578 359.041 235.433 358.777L222.82 335.877C222.593 335.466 222.686 335.146 223.097 334.919L231.595 330.239C232.007 330.012 232.326 330.105 232.553 330.516L237.833 340.101L240.822 338.455L235.542 328.87C235.316 328.458 235.408 328.139 235.82 327.912L244.318 323.232ZM243.585 346.979C242.646 347.496 242.082 348.128 241.893 348.876C241.697 349.65 241.88 350.547 242.442 351.568C243.004 352.589 243.661 353.215 244.41 353.446C245.153 353.703 245.993 353.573 246.932 353.056C247.838 352.557 248.389 351.921 248.585 351.147C248.774 350.399 248.587 349.514 248.025 348.493C247.463 347.472 246.81 346.833 246.068 346.577C245.318 346.346 244.49 346.48 243.585 346.979ZM213.9 338.122C214.318 338.013 214.722 338.072 215.112 338.301L221.996 342.331C222.363 342.546 222.604 342.872 222.718 343.308L230.216 371.986C230.334 372.44 230.167 372.727 229.712 372.846L220.326 375.3C219.871 375.419 219.584 375.251 219.465 374.796L213.166 350.703L209.865 351.566L216.163 375.659C216.282 376.114 216.114 376.401 215.66 376.52L206.273 378.974C205.819 379.093 205.532 378.925 205.413 378.47L197.916 349.793C197.801 349.356 197.852 348.954 198.067 348.587L202.097 341.703C202.326 341.313 202.649 341.064 203.067 340.954L213.9 338.122ZM193.741 343.39C194.211 343.39 194.446 343.625 194.446 344.095L194.447 370.239C194.447 370.521 194.353 370.803 194.165 371.085L187.51 380.561C187.303 380.843 187.002 380.984 186.607 380.984L176.708 380.985C176.295 380.985 175.994 380.844 175.806 380.562L169.093 371.086C168.905 370.823 168.811 370.541 168.811 370.24L168.81 344.096C168.81 343.626 169.045 343.391 169.515 343.391L179.217 343.391C179.687 343.391 179.922 343.626 179.922 344.096L179.922 355.038L183.335 355.038L183.335 344.095C183.335 343.625 183.57 343.39 184.04 343.39L193.741 343.39ZM181.643 363.837C180.571 363.837 179.772 364.119 179.246 364.684C178.701 365.266 178.428 366.141 178.428 367.306C178.428 368.472 178.701 369.337 179.246 369.901C179.773 370.484 180.572 370.775 181.643 370.775C182.678 370.775 183.467 370.484 184.012 369.901C184.539 369.337 184.802 368.472 184.802 367.306C184.802 366.14 184.539 365.266 184.012 364.683C183.467 364.119 182.677 363.837 181.643 363.837ZM165.325 343.272C165.786 343.365 165.969 343.642 165.876 344.102L158.714 379.571C158.621 380.031 158.344 380.215 157.884 380.122L148.374 378.202C147.913 378.109 147.729 377.832 147.822 377.371L154.984 341.903C155.077 341.442 155.354 341.258 155.815 341.351L165.325 343.272ZM150.919 340.205C151.359 340.37 151.496 340.673 151.33 341.113L138.579 374.976C138.413 375.416 138.11 375.553 137.67 375.387L128.591 371.968C128.151 371.803 128.014 371.5 128.18 371.06L137.562 346.145L132.521 344.246C132.081 344.081 131.944 343.778 132.109 343.338L135.23 335.05C135.396 334.611 135.699 334.473 136.138 334.639L150.919 340.205ZM132.919 333.325C133.316 333.578 133.387 333.902 133.134 334.299L119.063 356.333C118.911 356.571 118.68 356.758 118.37 356.894L107.66 361.298C107.334 361.425 107.005 361.382 106.672 361.169L98.3288 355.841C97.9802 355.619 97.8026 355.338 97.7959 354.999L97.239 343.4C97.2222 343.077 97.2948 342.788 97.4567 342.535L111.528 320.501C111.781 320.105 112.105 320.033 112.502 320.286L120.678 325.508C121.074 325.761 121.146 326.085 120.893 326.481L115.003 335.704L117.88 337.54L123.769 328.318C124.022 327.922 124.347 327.85 124.743 328.103L132.919 333.325ZM111.717 344.046C110.814 343.469 109.989 343.277 109.242 343.469C108.468 343.666 107.768 344.257 107.141 345.239C106.513 346.221 106.278 347.097 106.434 347.866C106.563 348.641 107.08 349.316 107.983 349.893C108.855 350.45 109.677 350.629 110.451 350.431C111.198 350.239 111.885 349.652 112.513 348.669C113.14 347.687 113.389 346.809 113.259 346.034C113.103 345.265 112.589 344.602 111.717 344.046ZM109.364 318.177C109.695 318.511 109.693 318.844 109.358 319.174L83.6142 344.601C83.2797 344.931 82.9474 344.929 82.6171 344.595L70.2108 332.033C69.907 331.726 69.7497 331.353 69.7391 330.914L69.7886 322.937C69.8046 322.498 69.9665 322.127 70.2741 321.823L74.4879 317.661C74.6217 317.529 74.7551 317.45 74.8882 317.425C75.0213 317.399 75.1943 317.387 75.407 317.388L81.3276 317.764L82.2467 317.49L82.6118 316.495L82.3095 310.57C82.3109 310.358 82.3252 310.185 82.3526 310.052C82.3667 309.933 82.4473 309.8 82.5944 309.655L86.7279 305.572C87.049 305.255 87.4222 305.098 87.8476 305.101L95.8244 305.15C96.2764 305.153 96.6544 305.308 96.9583 305.616L109.364 318.177ZM94.8817 315.674C94.2079 314.992 93.512 314.648 92.7941 314.644C92.0496 314.639 91.3161 314.994 90.5938 315.707C89.8581 316.434 89.4946 317.163 89.5033 317.894C89.4855 318.625 89.8135 319.332 90.4873 320.014C91.1611 320.696 91.8703 321.04 92.6148 321.044C93.3327 321.049 94.0595 320.688 94.7953 319.961C95.5176 319.248 95.8877 318.525 95.9055 317.794C95.8968 317.063 95.5555 316.356 94.8817 315.674ZM84.6874 325.901C84.0268 325.232 83.3441 324.902 82.6394 324.911C81.9215 324.907 81.2147 325.248 80.5191 325.935C79.8235 326.622 79.4735 327.325 79.469 328.043C79.4514 328.747 79.7729 329.434 80.4335 330.103C81.0809 330.758 81.7635 331.088 82.4814 331.092C83.1861 331.084 83.8863 330.736 84.5819 330.049C85.2775 329.362 85.6341 328.666 85.6518 327.961C85.6562 327.243 85.3348 326.557 84.6874 325.901ZM89.1754 297.533C89.4413 297.92 89.3805 298.247 88.993 298.513L59.1584 318.987C58.7708 319.253 58.4441 319.192 58.1781 318.805L52.6886 310.805C52.4226 310.418 52.4834 310.091 52.871 309.825L74.8225 294.761L71.7746 290.319C71.5086 289.932 71.5694 289.605 71.957 289.339L79.2586 284.328C79.6462 284.062 79.973 284.123 80.2389 284.511L89.1754 297.533ZM77.7739 280.638C77.9777 281.062 77.8678 281.375 77.4443 281.579L44.8396 297.271C44.4161 297.474 44.1024 297.365 43.8986 296.941L35.3863 279.254C35.1824 278.83 35.2923 278.516 35.7158 278.313L43.6955 274.472C44.119 274.268 44.4327 274.378 44.6365 274.802L48.6358 283.112L52.1174 281.436L48.2282 273.355C48.0243 272.931 48.1342 272.618 48.5577 272.414L55.6987 268.977C56.1223 268.773 56.436 268.883 56.6398 269.307L60.529 277.388L64.0106 275.712L60.0113 267.403C59.8075 266.979 59.9173 266.665 60.3409 266.461L68.3205 262.621C68.744 262.417 69.0577 262.527 69.2616 262.951L77.7739 280.638ZM63.7939 248.325C63.8916 248.785 63.7106 249.064 63.2508 249.161L27.8568 256.681C27.397 256.779 27.1183 256.598 27.0206 256.138L23.4041 239.117C23.3143 238.694 23.3833 238.295 23.6111 237.92L27.9562 231.23C28.2063 230.87 28.5429 230.644 28.9659 230.554L57.9873 224.388C58.4471 224.291 58.7258 224.472 58.8235 224.932L60.834 234.394C60.9316 234.854 60.7506 235.132 60.2908 235.23L34.2488 240.763L34.8994 243.825L60.9414 238.292C61.4012 238.194 61.6799 238.376 61.7776 238.835L63.7939 248.325ZM57.7449 213.738C57.7604 214.17 57.6141 214.551 57.3061 214.882L51.8709 220.721C51.5811 221.032 51.2106 221.196 50.7597 221.212L27.6483 222.039C27.2161 222.055 26.8349 221.918 26.5047 221.629L20.6661 216.194C20.354 215.885 20.1902 215.514 20.1748 215.082L19.7652 203.639C19.7491 203.188 19.8859 202.807 20.1758 202.496L25.611 196.657C25.919 196.326 26.2891 196.153 26.7212 196.138L49.8327 195.31C50.2836 195.294 50.6651 195.441 50.9772 195.749L56.8159 201.184C57.1461 201.474 57.3192 201.844 57.3354 202.295L57.7449 213.738ZM47.3041 209.032L47.2567 207.707C47.2291 206.937 46.6798 206.571 45.6088 206.609L31.742 207.105C30.6897 207.143 30.1774 207.547 30.205 208.317L30.2524 209.642C30.2806 210.431 30.8209 210.807 31.8731 210.769L45.74 210.273C46.811 210.235 47.3324 209.821 47.3041 209.032ZM58.2125 185.343C58.1357 185.768 57.9117 186.11 57.5404 186.368L50.9883 190.918C50.6388 191.16 50.242 191.242 49.798 191.161L20.6276 185.9C20.165 185.817 19.9754 185.544 20.0589 185.081L21.7809 175.534C21.8643 175.071 22.1373 174.881 22.5999 174.965L47.1075 179.385L47.7132 176.027L23.2056 171.607C22.743 171.523 22.5535 171.25 22.6369 170.788L24.3589 161.24C24.4423 160.777 24.7154 160.588 25.1779 160.671L49.6855 165.091L50.2912 161.733L25.7836 157.313C25.3211 157.229 25.1315 156.956 25.2149 156.494L26.9369 146.946C27.0204 146.483 27.2934 146.294 27.756 146.377L56.9263 151.639C57.3704 151.719 57.7138 151.933 57.9564 152.283L62.5062 158.835C62.7641 159.206 62.8546 159.605 62.7778 160.03L61.6565 166.247C61.5764 166.691 61.3524 167.033 60.9845 167.272L55.4756 171.122L55.2454 172.399L59.0622 177.93C59.3234 178.283 59.4139 178.682 59.3338 179.126L58.2125 185.343ZM70.4037 135.513C70.197 135.935 69.8826 136.043 69.4604 135.836L45.5484 124.13L43.9117 127.474C43.705 127.896 43.3906 128.004 42.9684 127.797L35.0146 123.904C34.5924 123.697 34.4847 123.383 34.6914 122.96L42.8629 106.268C43.0696 105.845 43.384 105.738 43.8062 105.944L51.76 109.838C52.1821 110.045 52.2899 110.359 52.0832 110.781L50.434 114.15L74.346 125.856C74.7682 126.062 74.8759 126.377 74.6693 126.799L70.4037 135.513ZM78.8233 118.634C78.5446 119.013 78.216 119.063 77.8375 118.784L48.6992 97.3306C48.3207 97.0519 48.2707 96.7233 48.5494 96.3448L54.3015 88.5322C54.5802 88.1537 54.9088 88.1037 55.2873 88.3824L65.5073 95.907L67.6309 93.0226L57.4109 85.4981C57.0324 85.2194 56.9825 84.8908 57.2612 84.5123L63.0132 76.6997C63.2919 76.3212 63.6205 76.2713 63.999 76.5499L93.1374 98.0032C93.5159 98.2819 93.5658 98.6105 93.2871 98.989L87.5351 106.802C87.2564 107.18 86.9278 107.23 86.5492 106.951L75.8977 99.1092L73.7742 101.993L84.4257 109.836C84.8042 110.114 84.8541 110.443 84.5754 110.822L78.8233 118.634ZM96.3708 95.0614C96.035 95.3902 95.7026 95.3867 95.3738 95.0508L70.0601 69.1954C69.7313 68.8595 69.7348 68.5271 70.0707 68.1983L77.0031 61.4112C77.3389 61.0823 77.6713 61.0858 78.0001 61.4217L103.314 87.2772C103.643 87.613 103.639 87.9454 103.303 88.2742L96.3708 95.0614ZM107.004 84.8288C106.624 85.1045 106.296 85.0521 106.02 84.6714L101.767 78.8018C101.635 78.6191 101.538 78.4689 101.476 78.3513C101.418 78.2075 101.432 78.0347 101.518 77.833L104.655 71.3467L103.249 69.4053L96.1432 70.2694C95.7892 70.2936 95.502 70.1535 95.2814 69.8489L88.1996 60.0739C88.0231 59.8302 87.9115 59.6441 87.8648 59.5155C87.807 59.3716 87.8198 59.165 87.9032 58.8956L90.9875 50.4621C91.0431 50.2825 91.1229 50.1202 91.2269 49.9752C91.3198 49.815 91.4728 49.6577 91.686 49.5033L99.2457 44.0266C99.6263 43.7508 99.9545 43.8032 100.23 44.1839L104.565 50.1677C104.808 50.5027 104.859 50.8138 104.719 51.101L100.605 58.0169L102.061 60.0268L110.527 59.1175C110.832 59.0587 111.123 59.2195 111.399 59.6002L118.596 69.5351C118.685 69.657 118.756 69.8029 118.809 69.973C118.867 70.1169 118.863 70.271 118.796 70.4354L114.206 79.1938C114.158 79.3209 114.088 79.4645 113.995 79.6247C113.918 79.7738 113.818 79.8925 113.696 79.9808L107.004 84.8288ZM134.51 66.957C134.073 67.1305 133.768 66.9988 133.595 66.5619L120.24 32.9324C120.067 32.4955 120.198 32.1904 120.635 32.0169L129.652 28.4363C130.089 28.2628 130.394 28.3945 130.567 28.8313L143.922 62.4609C144.095 62.8977 143.964 63.2029 143.527 63.3764L134.51 66.957ZM147.891 61.7635C147.431 61.861 147.153 61.6799 147.055 61.22L145.551 54.1297C145.504 53.909 145.477 53.7323 145.468 53.5996C145.473 53.4447 145.556 53.2925 145.717 53.1432L151.216 48.4883L150.719 46.1432L143.874 44.0488C143.541 43.9273 143.336 43.6826 143.257 43.3148L140.753 31.5067C140.691 31.2124 140.664 30.997 140.674 30.8605C140.679 30.7055 140.775 30.5219 140.96 30.3095L147.202 23.8539C147.326 23.7123 147.465 23.5964 147.619 23.5061C147.769 23.3974 147.972 23.3158 148.23 23.2612L157.362 21.3243C157.822 21.2268 158.1 21.4079 158.198 21.8678L159.731 29.0961C159.817 29.5007 159.737 29.8059 159.493 30.0115L152.926 34.6622L153.44 37.09L161.546 39.6952C161.85 39.7655 162.05 40.0305 162.148 40.4903L164.693 52.4915C164.724 52.6387 164.73 52.8009 164.71 52.9781C164.704 53.133 164.637 53.2721 164.51 53.3953L156.76 59.5365C156.665 59.6335 156.543 59.7363 156.393 59.845C156.261 59.9498 156.122 60.0178 155.975 60.049L147.891 61.7635ZM185.607 57.5817C185.14 57.5295 184.933 57.2698 184.985 56.8027L186.246 45.5072L180.068 37.8079C179.954 37.6438 179.885 37.5036 179.86 37.3873C179.856 37.2545 179.863 37.1039 179.882 36.9358L181.769 20.0346C181.822 19.5675 182.081 19.36 182.548 19.4122L192.218 20.4921C192.685 20.5442 192.893 20.8039 192.841 21.271L191.216 35.8178L194.607 36.1965L196.232 21.6498C196.284 21.1826 196.544 20.9752 197.011 21.0273L206.653 22.1041C207.12 22.1563 207.327 22.4159 207.275 22.8831L205.388 39.7842C205.369 39.9524 205.343 40.1008 205.31 40.2296C205.278 40.3396 205.18 40.461 205.014 40.5938L197.345 46.7468L196.084 58.0422C196.032 58.5094 195.772 58.7169 195.305 58.6647L185.607 57.5817ZM205.132 59.7776C204.692 59.6114 204.555 59.3084 204.722 58.8687L213.965 34.4136C214.065 34.1498 214.253 33.9192 214.528 33.7219L224.105 27.2112C224.398 27.0205 224.729 26.995 225.099 27.1346L234.358 30.6346C234.745 30.7809 234.977 31.0192 235.053 31.3494L237.981 42.5867C238.064 42.8994 238.052 43.1965 237.946 43.4779L228.702 67.9331C228.536 68.3727 228.233 68.5095 227.793 68.3433L218.718 64.913C218.278 64.7468 218.142 64.4439 218.308 64.0042L222.177 53.7684L218.985 52.5618L215.116 62.7976C214.95 63.2373 214.647 63.374 214.207 63.2078L205.132 59.7776ZM223.679 44.9292C224.681 45.3082 225.528 45.3269 226.22 44.9854C226.936 44.633 227.501 43.9116 227.913 42.8211C228.325 41.7307 228.376 40.8253 228.065 40.1049C227.779 39.3736 227.134 38.8184 226.132 38.4395C225.165 38.0739 224.323 38.0673 223.607 38.4197C222.915 38.7612 222.363 39.4771 221.951 40.5675C221.538 41.6579 221.476 42.5688 221.762 43.3002C222.073 44.0206 222.711 44.5636 223.679 44.9292ZM230.961 69.593C230.574 69.3266 230.513 68.9998 230.779 68.6125L251.284 38.7989C251.55 38.4117 251.877 38.3512 252.264 38.6176L260.258 44.1153C260.645 44.3816 260.706 44.7085 260.44 45.0958L253.248 55.5526L256.199 57.5823L263.391 47.1254C263.657 46.7381 263.984 46.6777 264.371 46.944L272.365 52.4418C272.752 52.7081 272.813 53.0349 272.546 53.4222L252.042 83.2358C251.775 83.6231 251.448 83.6836 251.061 83.4172L243.068 77.9195C242.68 77.6531 242.62 77.3263 242.886 76.939L250.382 66.0407L247.43 64.011L239.935 74.9093C239.669 75.2966 239.342 75.3571 238.954 75.0907L230.961 69.593ZM254.144 85.6283C253.824 85.2836 253.837 84.9514 254.182 84.6319L273.354 66.8579C273.561 66.6661 273.832 66.5433 274.166 66.4895L285.641 64.9281C285.988 64.8881 286.296 65.0128 286.564 65.3024L293.294 72.5619C293.576 72.8652 293.677 73.1817 293.598 73.5113L291.212 84.8761C291.147 85.1929 291.004 85.4536 290.783 85.6581L271.611 103.432C271.266 103.752 270.934 103.739 270.614 103.394L264.018 96.2797C263.699 95.935 263.711 95.6029 264.056 95.2833L272.081 87.8439L269.761 85.3413L261.736 92.7807C261.391 93.1003 261.059 93.0877 260.74 92.743L254.144 85.6283ZM277.364 80.6001C278.093 81.386 278.843 81.7803 279.614 81.7829C280.413 81.7865 281.239 81.392 282.094 80.5995C282.949 79.807 283.398 79.0191 283.441 78.2357C283.51 77.4534 283.181 76.6693 282.452 75.8834C281.749 75.125 280.998 74.744 280.2 74.7404C279.429 74.7378 278.616 75.1328 277.761 75.9253C276.906 76.7178 276.444 77.5052 276.374 78.2876C276.331 79.0709 276.661 79.8417 277.364 80.6001ZM276.892 112.297C276.647 111.895 276.725 111.572 277.126 111.327L286.826 105.404L289.127 95.8046C289.186 95.6139 289.255 95.4731 289.331 95.3822C289.434 95.2976 289.557 95.2112 289.702 95.123L304.216 86.2603C304.617 86.0154 304.94 86.0935 305.185 86.4947L310.256 94.7989C310.501 95.2 310.423 95.5231 310.022 95.7681L297.529 103.396L299.308 106.309L311.8 98.6806C312.201 98.4356 312.524 98.5137 312.769 98.9149L317.825 107.195C318.07 107.596 317.992 107.919 317.591 108.164L303.076 117.027C302.932 117.115 302.799 117.185 302.677 117.238C302.571 117.281 302.414 117.277 302.207 117.227L292.646 114.936L282.946 120.859C282.545 121.104 282.222 121.026 281.977 120.625L276.892 112.297ZM287.754 130.342C287.584 129.904 287.717 129.6 288.156 129.429L312.52 119.948C312.783 119.846 313.08 119.831 313.411 119.904L324.655 122.671C324.993 122.761 325.234 122.99 325.377 123.358L328.967 132.584C329.117 132.969 329.094 133.301 328.9 133.578L322.503 143.27C322.326 143.541 322.097 143.73 321.817 143.84L297.452 153.32C297.014 153.491 296.71 153.357 296.539 152.919L293.021 143.878C292.851 143.44 292.985 143.135 293.423 142.965L303.62 138.997L302.383 135.816L292.185 139.785C291.747 139.955 291.443 139.821 291.272 139.383L287.754 130.342ZM311.197 134.202C311.585 135.201 312.138 135.844 312.855 136.13C313.596 136.426 314.509 136.363 315.596 135.941C316.682 135.518 317.389 134.95 317.717 134.238C318.069 133.536 318.051 132.685 317.662 131.686C317.287 130.723 316.729 130.093 315.989 129.796C315.272 129.51 314.37 129.578 313.284 130.001C312.198 130.424 311.478 130.986 311.126 131.688C310.798 132.401 310.822 133.239 311.197 134.202Z" fill="#080808"/>
</svg>
