<svg width="160" height="186" viewBox="0 0 160 186" fill="none" xmlns="http://www.w3.org/2000/svg">
<path d="M78.5084 0.878495C63.312 -2.26777 47.6887 3.59701 36.6334 9.6031C28.6964 13.9152 21.992 18.3599 16.564 24.3619C11.9729 29.4386 8.62187 35.2619 5.97028 42.3297C4.69926 43.1876 3.64724 44.37 2.94293 45.7896L2.55231 46.5758C1.53241 48.6315 1.33665 50.9994 2.00446 53.1949C2.18359 53.7837 2.44396 54.4661 2.81793 55.1773C0.496296 57.3711 -0.495749 60.643 0.237854 63.772C0.545897 65.086 1.16017 67.2195 2.77887 69.2398C4.46237 71.341 6.5074 72.4333 8.03864 73.0709C9.01268 73.4764 10.0356 73.7008 11.0611 73.7506C11.3989 74.2339 11.785 74.7087 12.2291 75.1627C14.1114 77.0869 16.5039 78.126 18.9107 78.3541C19.4189 78.4022 19.9136 78.413 20.3931 78.3951C20.5445 78.5506 20.6842 78.6897 20.8111 78.8092C21.2641 79.2357 21.6887 79.5761 21.9283 79.7662C22.2744 80.0407 22.2572 80.0222 22.3638 80.1099C24.4282 81.8086 27.141 82.502 29.7672 82.0015C31.0172 81.7633 32.1843 81.2638 33.2056 80.5562C33.4145 80.5645 33.6245 80.5655 33.8355 80.5592L34.6861 80.5338C35.0143 80.5238 35.3391 80.4946 35.6597 80.4498C37.1544 80.862 38.7533 80.8898 40.3023 80.4898C40.5664 80.4216 40.9462 80.3219 41.3316 80.1988C41.4172 80.1715 41.5812 80.1151 41.8023 80.0338C45.7467 87.1167 50.9574 97.3511 54.4693 104.261C52.8661 106.714 51.5119 109.159 50.3922 111.795C48.8848 115.345 47.9252 118.951 47.1988 122.987C46.3461 124.175 45.459 125.849 45.1129 128.033C44.6276 131.094 45.7542 134.163 48.0435 136.185C48.2323 137.128 48.5707 138.042 49.0543 138.887C50.441 141.312 52.378 142.717 53.7466 143.509C53.9836 143.956 54.2575 144.436 54.5826 144.958C54.6657 145.091 54.753 145.221 54.8423 145.349C54.8785 146.559 55.1564 147.763 55.6793 148.884L55.9869 149.545C57.2648 152.285 59.8335 154.201 62.8248 154.644L63.8824 154.8C66.1845 155.141 68.5075 154.576 70.3795 153.258C72.2179 154.768 74.6217 155.525 77.0836 155.252C79.5491 154.978 81.3296 153.927 82.3795 153.159C82.8617 152.806 83.2481 152.467 83.4322 152.305C83.4831 152.261 83.531 152.218 83.567 152.186C83.607 152.151 83.6328 152.127 83.6588 152.104C83.7 152.068 83.7167 152.055 83.7193 152.052C83.8324 151.957 83.9414 151.858 84.0494 151.757C85.7057 151.412 87.2552 150.601 88.4996 149.386C88.576 149.312 88.6511 149.243 88.7203 149.176C89.7214 149.216 90.8817 149.182 92.2379 148.993C94.371 148.694 96.2753 147.652 97.6636 146.119C98.5982 146.327 99.573 146.389 100.555 146.287L101.436 146.195C103.205 146.01 104.88 145.305 106.249 144.17C106.791 143.72 107.646 142.955 108.42 141.853C108.826 141.276 109.149 140.688 109.41 140.102C110.132 141.1 110.799 142.016 111.354 142.801C118.942 153.542 126.719 164.995 134.578 175.89C135.444 177.092 137.621 179.83 140.174 182.007C141.338 182.999 143.414 184.612 146.062 185.417C147.493 185.851 149.596 186.204 151.981 185.621C154.551 184.992 156.611 183.48 158.017 181.578C158.855 180.445 159.415 179.131 159.652 177.743C160.499 172.79 158.737 168.135 157.475 165.36C156.086 162.305 154.273 159.42 153.281 157.79C149.204 151.088 145.368 144.203 141.333 137.093C138.717 132.485 136.033 127.811 133.215 123.176C136.583 120.524 139.864 117.677 142.384 115.393C142.574 115.221 142.756 115.042 142.93 114.855C143.846 113.871 147.608 110.054 150.697 106.525C152.279 104.717 153.969 102.674 155.296 100.733C155.954 99.7719 156.671 98.6233 157.243 97.3922C157.696 96.4178 158.64 94.208 158.466 91.4967L158.432 91.0279C157.631 81.2396 151.563 74.4694 144.835 70.5465C138.36 66.7718 130.603 65.1417 123.766 65.4088L123.107 65.441C119.692 65.6374 116.829 66.5807 115.326 67.022C108.728 59.0114 102.582 51.4771 95.7047 43.4039C96.9307 41.3162 98.1055 39.0059 98.9654 36.5611C100.898 31.0654 101.4 24.5117 98.0601 17.6656C96.3826 14.2269 93.6858 10.6879 90.648 7.81014C87.7184 5.03495 83.5423 1.99222 78.6285 0.904862L78.5084 0.878495Z" fill="#F9F9FA"/>
<path d="M84.4829 44.1513C89.0238 37.5475 94.0954 30.0614 89.9726 21.6112C87.7001 16.9526 81.9738 10.861 76.6851 9.69079C64.6653 7.20214 51.4151 11.8143 40.9307 17.5103C25.7658 25.7493 18.2217 32.9865 13.0312 49.4651C12.4011 49.6348 12.1617 49.6899 11.526 49.7454L11.0064 49.7878L10.6161 50.5747C11.178 52.422 12.472 50.8335 13.7299 52.5151C13.584 53.2013 13.5583 53.3757 13.2535 54.0195L13.0355 54.4714C13.8959 55.1385 13.9395 55.1556 14.6065 56.0011L14.4008 57.1043C13.3716 57.5229 13.2337 57.5919 12.3 58.1921C11.5284 59.4586 11.0314 60.777 9.69226 61.1187L9.0015 61.7165C9.38829 63.3664 9.92093 64.1041 11.4994 64.7613L12.216 64.2916L12.8295 63.3438C14.0438 64.0656 13.5349 63.9899 14.8162 63.867L15.9441 65.0087C17.278 65.1998 16.9349 65.0844 18.4032 64.3193L20.9721 65.8947L21.0335 66.3263C19.9314 66.5317 18.6291 66.5884 17.9347 67.3796C18.5649 70.1002 20.7612 69.6855 22.1768 68.4043C22.1154 68.4598 24.3875 70.078 25.5277 70.16C25.981 69.3668 25.9882 69.2836 26.6611 68.6168C27.7977 68.5264 27.8469 68.5835 28.9133 69.0774L28.8012 69.7711C27.8203 70.9433 27.8421 70.6631 26.2402 71.1526C26.4923 72.0188 27.3527 72.5579 28.0835 73.1592C28.3446 72.6875 28.5143 72.416 28.8202 71.9716C29.6592 71.8681 30.1146 71.9153 30.7106 71.3318L30.6187 69.6229C31.6431 69.2336 31.1085 69.3069 32.2864 69.5384C32.8856 70.3435 33.0865 70.6777 33.5644 71.5621L34.4145 71.5363L35.185 69.9051L36.3933 69.7525C38.1442 70.5168 36.5883 70.4046 38.0535 71.7746C39.9249 71.2914 38.0895 71.57 39.5583 69.8021C40.9331 69.3272 45.2711 68.3334 45.6072 68.834C50.3201 75.8548 61.3799 98.0564 64.9582 105.024C59.1685 112.669 57.0958 117.51 55.6667 126.941C55.6088 127.322 54.2416 127.936 54.003 129.441C54.8884 130.063 55.3592 129.825 56.6293 129.802C59.6611 131.029 57.0736 132.605 56.8683 134.418C57.6031 135.703 59.2256 136.166 60.6792 136.819C61.1968 138.237 61.4001 138.879 62.2205 140.195C63.3916 140.158 64.6756 140.002 65.5261 140.629C65.7068 141.613 64.3392 143.886 63.8371 145.079L64.145 145.74L65.202 145.896C66.5938 144.511 68.3863 141.963 70.3964 142.091C73.3311 145.712 72.995 142.37 76.0625 143.012C76.4615 144.456 76.3201 144.039 75.789 145.722L76.093 146.305C76.8472 146.221 77.3172 145.676 77.9259 145.164C78.5442 143.205 77.2181 144.375 77.2169 142.71C78.5259 142.3 78.7637 142.204 80.112 142.11C81.0611 142.653 81.1578 142.751 82.2128 142.946C87.087 138.186 86.3705 140.725 90.9927 140.078L91.372 138.708C92.5518 137.997 97.8964 135.402 98.9708 135.544C99.1389 136.45 99.0945 136.554 99.6224 137.334L100.503 137.243C101.531 136.39 101.247 136.109 101.445 134.443C102.641 133.051 109.887 128.987 111.984 127.751C113.857 131.07 116.487 134.465 118.706 137.608C126.461 148.585 134.019 159.726 141.879 170.624C143.152 172.389 148.669 179.082 150.781 176.225C151.516 171.929 147.782 166.063 145.594 162.467C137.256 148.761 129.864 134.241 121.098 120.805C125.812 117.873 132.006 112.652 136.343 108.723C138.837 106.042 149.691 95.282 149.486 92.0703C148.684 79.5517 134.421 73.8046 123.625 74.425C119.192 74.6799 116.489 76.7923 111.571 76.6107C102.224 65.31 94.2888 55.4576 84.4829 44.1513Z" fill="black"/>
<path d="M77.8629 51.4779C76.6526 52.2655 75.0828 53.6331 73.9343 54.5774C69.5063 58.2184 64.5425 60.4751 59.5823 63.3003C63.5264 69.6797 66.7987 76.9879 71.5065 83.1671C73.2752 85.4885 71.5255 84.5347 74.6837 86.0624C76.0137 89.5738 80.0819 97.2269 82.8307 99.6731C85.2632 101.838 93.3781 94.2554 96.4935 97.4354C96.8026 98.8652 96.3096 99.6775 95.7805 101.075C92.8748 104.055 88.427 105.555 84.2764 108.944C82.2037 109.016 76.8012 109.579 75.6745 111.271C76.7758 111.543 77.3354 111.506 78.48 111.529C78.6428 113.786 72.3522 118.807 70.7289 120.711L71.1573 121.049L73.7706 120.373L74.3215 120.721L74.0583 121.967C72.9447 123.229 71.472 123.434 69.8919 123.978C69.672 125.435 69.8927 126.673 70.0671 128.123L70.5652 128.274L70.9711 126.726C73.8459 127.085 74.0048 129.903 78.8913 129.515C99.5166 124.996 115.692 113.611 131.092 99.4321C147.563 84.2679 127.03 83.1508 115.435 84.1839L111.614 86.9845C108.896 86.1671 107.608 85.5344 105.104 84.3127C103.967 80.7902 102.694 79.9062 100.285 77.2384C92.662 68.7941 85.589 59.829 77.8629 51.4779Z" fill="#F9F9FA"/>
<path d="M71.1304 18.3012C64.2417 17.6007 54.282 22.9709 47.7829 26.1108C39.6736 30.4301 29.2221 38.8783 25.647 47.478C23.3218 53.0713 29.4702 55.7824 33.6699 56.9137C55.2831 59.2093 98.7462 24.8356 71.1304 18.3012Z" fill="#F9F9FA"/>
</svg>
