<svg width="909" height="395" viewBox="0 0 909 395" fill="none" xmlns="http://www.w3.org/2000/svg">
<path d="M110.73 0C122.495 0.000115529 133.478 4.38176 141.942 12.0771C150.407 4.38172 161.39 0.000113629 173.154 0H218.255C224.661 1.86139e-05 231.13 1.30541 237.181 4.00098C244.246 0.729705 251.02 2.63176e-05 255.532 0H322.742C328.601 0 336.575 1.06238 344.537 5.18945C352.433 0.901285 360.24 0 365.254 0H436.754C438.411 4.83337e-06 440.374 0.100012 442.544 0.386719C444.714 0.0999687 446.678 0 448.335 0H524.895C529.392 6.55835e-06 536.138 0.725496 543.18 3.9707C548.994 1.38826 555.364 0 561.981 0H607.081C613.488 0 619.957 1.30553 626.007 4.00098C633.072 0.729507 639.848 0 644.359 0H684.619C688.729 5.99223e-06 694.714 0.60775 701.088 3.1875C707.462 0.60773 713.447 2.99633e-05 717.557 0H757.817C762.314 4.59004e-05 769.058 0.725385 776.098 3.96875C781.911 1.38747 788.279 0 794.896 0H839.995C851.468 0 863.144 4.17714 872.248 13.0498L872.68 13.4756L894.68 35.4756L895.455 36.2695C903.37 44.5651 908.266 55.7419 908.266 68.1602V158.36C908.266 170.489 903.581 182.312 894.515 191.208L872.887 212.836C863.986 221.931 852.143 226.63 839.995 226.63H821.151V249.25C821.151 251.287 821.001 253.786 820.536 256.564C821.001 259.343 821.151 261.842 821.151 263.88V298.75C821.151 300.787 821.001 303.286 820.536 306.064C821.001 308.843 821.151 311.342 821.151 313.38V351.88C821.151 358.962 819.354 371.621 808.748 382.227C798.143 392.832 785.484 394.63 778.401 394.63H701.842C698.356 394.63 693.519 394.191 688.241 392.484C682.963 394.191 678.127 394.63 674.641 394.63H634.271C630.787 394.63 625.955 394.192 620.682 392.488C615.408 394.192 610.576 394.63 607.093 394.63H566.832C561.157 394.63 551.901 393.474 542.99 387.559L541.112 388.492C539.707 389.283 538.399 389.93 537.26 390.453C531.978 392.931 525.661 394.63 518.616 394.63H483.967C479.462 394.63 472.703 393.901 465.65 390.644C459.929 393.2 453.591 394.63 446.889 394.63H377.038C375.368 394.63 373.389 394.528 371.199 394.236C369.01 394.528 367.031 394.63 365.361 394.63H288.802C284.297 394.63 277.538 393.901 270.485 390.644C264.764 393.201 258.425 394.63 251.723 394.63H227.523C218.486 394.63 209.617 392.029 202.003 386.952C194.389 392.029 185.521 394.63 176.483 394.63H152.283C139.464 394.63 127.968 389.414 119.599 381.044L97.5986 359.044C88.4338 349.879 84.1231 338.015 84.123 326.36V226.614C83.7385 226.624 83.3669 226.63 83.0098 226.63H42.75C35.6675 226.63 23.0088 224.832 12.4033 214.227C1.79785 203.621 0 190.962 0 183.88V42.75C0 35.6675 1.7978 23.0088 12.4033 12.4033C23.0088 1.7978 35.6676 0 42.75 0H110.73Z" fill="white"/>
<path d="M42.75 186.63C40.9167 186.63 40 185.713 40 183.88V42.75C40 40.9167 40.9167 40 42.75 40H110.73C112.417 40 113.883 40.5867 115.13 41.76L137.13 63.76C138.377 65.0067 139 66.4733 139 68.16V122.06C139 123.82 138.377 125.287 137.13 126.46L115.13 148.46C113.883 149.707 112.417 150.33 110.73 150.33H85.76V183.88C85.76 185.713 84.8433 186.63 83.01 186.63H42.75ZM88.51 105.23C91.5167 105.23 93.9367 104.277 95.77 102.37C97.6767 100.463 98.63 98.0433 98.63 95.11C98.63 92.1767 97.6767 89.7933 95.77 87.96C93.9367 86.0533 91.5167 85.1 88.51 85.1C85.5767 85.1 83.1567 86.0533 81.25 87.96C79.4167 89.7933 78.5 92.1767 78.5 95.11C78.5 98.0433 79.4167 100.463 81.25 102.37C83.1567 104.277 85.5767 105.23 88.51 105.23Z" fill="#080808"/>
<path d="M173.155 186.63C171.468 186.63 170.001 186.007 168.755 184.76L146.755 162.76C145.581 161.587 144.995 160.12 144.995 158.36V68.16C144.995 66.4733 145.581 65.0067 146.755 63.76L168.755 41.76C170.001 40.5867 171.468 40 173.155 40H218.255C220.015 40 221.481 40.5867 222.655 41.76L244.655 63.76C245.901 65.0067 246.525 66.4733 246.525 68.16V158.36C246.525 160.12 245.901 161.587 244.655 162.76L222.655 184.76C221.481 186.007 220.015 186.63 218.255 186.63H173.155ZM195.375 142.63H196.145C199.151 142.63 200.655 140.54 200.655 136.36V90.16C200.655 86.0533 199.151 84 196.145 84H195.375C192.295 84 190.755 86.0533 190.755 90.16V136.36C190.755 140.54 192.295 142.63 195.375 142.63Z" fill="#080808"/>
<path d="M255.532 186.63C253.699 186.63 252.782 185.713 252.782 183.88V42.75C252.782 40.9167 253.699 40 255.532 40H322.742C324.649 40 326.116 40.4767 327.142 41.43L352.442 66.51C353.249 67.2433 353.762 67.8667 353.982 68.38C354.202 68.8933 354.312 69.7367 354.312 70.91V101.05C354.312 102.003 353.689 103.103 352.442 104.35L337.262 119.53L334.842 121.73L341.662 131.96L355.412 158.36C355.779 159.02 355.999 159.68 356.072 160.34C356.219 160.927 356.292 161.697 356.292 162.65V183.88C356.292 185.713 355.376 186.63 353.542 186.63H318.782C317.169 186.63 316.069 185.897 315.482 184.43L300.412 145.71H298.542V183.88C298.542 185.713 297.626 186.63 295.792 186.63H255.532ZM303.492 99.73C306.499 99.73 308.919 98.7767 310.752 96.87C312.659 94.9633 313.612 92.5433 313.612 89.61C313.612 86.6767 312.659 84.2933 310.752 82.46C308.919 80.5533 306.499 79.6 303.492 79.6C300.559 79.6 298.139 80.5533 296.232 82.46C294.399 84.2933 293.482 86.6767 293.482 89.61C293.482 92.5433 294.399 94.9633 296.232 96.87C298.139 98.7767 300.559 99.73 303.492 99.73Z" fill="#080808"/>
<path d="M380.764 186.63C378.93 186.63 378.014 185.713 378.014 183.88V84H365.254C363.42 84 362.504 83.0833 362.504 81.25V42.75C362.504 40.9167 363.42 40 365.254 40H436.754C438.587 40 439.504 40.9167 439.504 42.75V81.25C439.504 83.0833 438.587 84 436.754 84H423.884V183.88C423.884 185.713 422.967 186.63 421.134 186.63H380.764Z" fill="#080808"/>
<path d="M448.334 186.63C446.501 186.63 445.584 185.713 445.584 183.88V42.75C445.584 40.9167 446.501 40 448.334 40H524.894C526.728 40 527.644 40.9167 527.644 42.75V81.25C527.644 83.0833 526.728 84 524.894 84H491.344V93.13H524.894C526.728 93.13 527.644 94.0467 527.644 95.88V130.75C527.644 132.583 526.728 133.5 524.894 133.5H491.344V183.88C491.344 185.713 490.428 186.63 488.594 186.63H448.334Z" fill="#080808"/>
<path d="M561.981 186.63C560.295 186.63 558.828 186.007 557.581 184.76L535.581 162.76C534.408 161.587 533.821 160.12 533.821 158.36V68.16C533.821 66.4733 534.408 65.0067 535.581 63.76L557.581 41.76C558.828 40.5867 560.295 40 561.981 40H607.081C608.841 40 610.308 40.5867 611.481 41.76L633.481 63.76C634.728 65.0067 635.351 66.4733 635.351 68.16V158.36C635.351 160.12 634.728 161.587 633.481 162.76L611.481 184.76C610.308 186.007 608.841 186.63 607.081 186.63H561.981ZM584.201 142.63H584.971C587.978 142.63 589.481 140.54 589.481 136.36V90.16C589.481 86.0533 587.978 84 584.971 84H584.201C581.121 84 579.581 86.0533 579.581 90.16V136.36C579.581 140.54 581.121 142.63 584.201 142.63Z" fill="#080808"/>
<path d="M644.359 186.63C642.526 186.63 641.609 185.713 641.609 183.88V42.75C641.609 40.9167 642.526 40 644.359 40H684.619C686.452 40 687.369 40.9167 687.369 42.75V142.63H705.959C707.792 142.63 708.709 143.547 708.709 145.38V183.88C708.709 185.713 707.792 186.63 705.959 186.63H644.359Z" fill="#080808"/>
<path d="M717.557 186.63C715.724 186.63 714.807 185.713 714.807 183.88V42.75C714.807 40.9167 715.724 40 717.557 40H757.817C759.65 40 760.567 40.9167 760.567 42.75V183.88C760.567 185.713 759.65 186.63 757.817 186.63H717.557Z" fill="#080808"/>
<path d="M794.895 186.63C793.209 186.63 791.742 186.007 790.495 184.76L768.495 162.76C767.322 161.587 766.735 160.12 766.735 158.36V68.16C766.735 66.4733 767.322 65.0067 768.495 63.76L790.495 41.76C791.742 40.5867 793.209 40 794.895 40H839.995C841.755 40 843.222 40.5867 844.395 41.76L866.395 63.76C867.642 65.0067 868.265 66.4733 868.265 68.16V158.36C868.265 160.12 867.642 161.587 866.395 162.76L844.395 184.76C843.222 186.007 841.755 186.63 839.995 186.63H794.895ZM817.115 142.63H817.885C820.892 142.63 822.395 140.54 822.395 136.36V90.16C822.395 86.0533 820.892 84 817.885 84H817.115C814.035 84 812.495 86.0533 812.495 90.16V136.36C812.495 140.54 814.035 142.63 817.115 142.63Z" fill="#080808"/>
<path d="M152.283 354.63C150.596 354.63 149.13 354.007 147.883 352.76L125.883 330.76C124.71 329.587 124.123 328.12 124.123 326.36V210.75C124.123 208.917 125.04 208 126.873 208H167.133C168.966 208 169.883 208.917 169.883 210.75V301.5H179.123V210.75C179.123 208.917 180.04 208 181.873 208H222.133C223.966 208 224.883 208.917 224.883 210.75V301.5H234.123V210.75C234.123 208.917 235.04 208 236.873 208H277.133C278.966 208 279.883 208.917 279.883 210.75V326.36C279.883 328.12 279.296 329.587 278.123 330.76L256.123 352.76C254.876 354.007 253.41 354.63 251.723 354.63H227.523C225.763 354.63 224.296 354.007 223.123 352.76L204.533 334.28H199.473L180.883 352.76C179.71 354.007 178.243 354.63 176.483 354.63H152.283Z" fill="#080808"/>
<path d="M288.801 354.63C286.968 354.63 286.051 353.713 286.051 351.88V210.75C286.051 208.917 286.968 208 288.801 208H365.361C367.195 208 368.111 208.917 368.111 210.75V249.25C368.111 251.083 367.195 252 365.361 252H331.811V261.13H365.361C367.195 261.13 368.111 262.047 368.111 263.88V298.75C368.111 300.583 367.195 301.5 365.361 301.5H331.811V310.63H365.361C367.195 310.63 368.111 311.547 368.111 313.38V351.88C368.111 353.713 367.195 354.63 365.361 354.63H288.801Z" fill="#080808"/>
<path d="M377.038 354.63C375.205 354.63 374.288 353.713 374.288 351.88V210.75C374.288 208.917 375.205 208 377.038 208H446.888C448.575 208 450.042 208.587 451.288 209.76L473.288 231.76C474.462 233.007 475.048 234.473 475.048 236.16V259.26C475.048 259.993 474.902 260.58 474.608 261.02C474.315 261.46 473.875 261.973 473.288 262.56L456.018 277.96L454.148 280.93L456.018 285L473.288 300.4C473.875 300.987 474.315 301.5 474.608 301.94C474.902 302.307 475.048 302.893 475.048 303.7V326.36C475.048 328.12 474.462 329.587 473.288 330.76L451.288 352.76C450.042 354.007 448.575 354.63 446.888 354.63H377.038ZM424.668 318.11C427.602 318.11 430.022 317.193 431.928 315.36C433.835 313.453 434.788 311.033 434.788 308.1C434.788 305.093 433.835 302.673 431.928 300.84C430.022 298.933 427.602 297.98 424.668 297.98C421.735 297.98 419.315 298.933 417.408 300.84C415.502 302.673 414.548 305.093 414.548 308.1C414.548 311.033 415.502 313.453 417.408 315.36C419.315 317.193 421.735 318.11 424.668 318.11ZM424.118 264.1C426.905 264.1 429.178 263.183 430.938 261.35C432.772 259.517 433.688 257.243 433.688 254.53C433.688 251.743 432.772 249.47 430.938 247.71C429.178 245.877 426.905 244.96 424.118 244.96C421.405 244.96 419.132 245.877 417.298 247.71C415.465 249.47 414.548 251.743 414.548 254.53C414.548 257.243 415.465 259.517 417.298 261.35C419.132 263.183 421.405 264.1 424.118 264.1Z" fill="#080808"/>
<path d="M483.967 354.63C482.133 354.63 481.217 353.713 481.217 351.88V320.86C481.217 319.98 481.253 319.283 481.327 318.77C481.473 318.183 481.913 317.67 482.647 317.23L505.967 303.81V298.31L482.977 286.21C481.803 285.55 481.217 284.45 481.217 282.91V233.41C481.217 232.237 481.29 231.393 481.437 230.88C481.583 230.293 482.097 229.67 482.977 229.01L512.017 209.43C512.603 208.99 513.227 208.66 513.887 208.44C514.547 208.147 515.39 208 516.417 208H555.247C557.08 208 557.997 208.917 557.997 210.75V243.31C557.997 244.923 557.447 246.023 556.347 246.61L527.527 259.26V264.98L556.347 281.48C557.447 281.993 557.997 283.167 557.997 285V332.85C557.997 333.437 557.887 334.06 557.667 334.72C557.52 335.307 557.153 335.783 556.567 336.15L522.027 353.31C521.587 353.603 521.037 353.897 520.377 354.19C519.79 354.483 519.203 354.63 518.617 354.63H483.967Z" fill="#080808"/>
<path d="M566.832 354.63C564.999 354.63 564.082 353.713 564.082 351.88V210.75C564.082 208.917 564.999 208 566.832 208H607.092C608.926 208 609.842 208.917 609.842 210.75V351.88C609.842 353.713 608.926 354.63 607.092 354.63H566.832Z" fill="#080808"/>
<path d="M634.271 354.63C632.437 354.63 631.521 353.713 631.521 351.88V252H618.761C616.927 252 616.011 251.083 616.011 249.25V210.75C616.011 208.917 616.927 208 618.761 208H690.261C692.094 208 693.011 208.917 693.011 210.75V249.25C693.011 251.083 692.094 252 690.261 252H677.391V351.88C677.391 353.713 676.474 354.63 674.641 354.63H634.271Z" fill="#080808"/>
<path d="M701.841 354.63C700.008 354.63 699.091 353.713 699.091 351.88V210.75C699.091 208.917 700.008 208 701.841 208H778.401C780.235 208 781.151 208.917 781.151 210.75V249.25C781.151 251.083 780.235 252 778.401 252H744.851V261.13H778.401C780.235 261.13 781.151 262.047 781.151 263.88V298.75C781.151 300.583 780.235 301.5 778.401 301.5H744.851V310.63H778.401C780.235 310.63 781.151 311.547 781.151 313.38V351.88C781.151 353.713 780.235 354.63 778.401 354.63H701.841Z" fill="#080808"/>
</svg>
