<svg width="284" height="239" viewBox="0 0 284 239" fill="none" xmlns="http://www.w3.org/2000/svg">
<path d="M168.63 1.18931C178.819 -0.898213 191.815 0.0122328 203.546 1.994C215.189 3.96099 226.876 7.2077 235.328 10.7879L236.136 11.1356L236.173 11.1522C257.08 20.3907 274.662 38.1996 281.082 58.5936C284.34 68.9447 284.751 80.1349 280.921 90.9891C277.084 101.864 269.276 111.594 257.481 119.496L257.48 119.495C253.308 122.291 248.409 123.763 244.303 124.726C241.894 125.292 239.226 125.787 236.744 126.233C240.354 128.1 244.115 130.724 247.581 134.643C252.018 139.661 255.529 146.292 257.947 155.032C258.408 156.697 258.429 158.454 258.009 160.13C255.213 171.281 250.859 179.942 244.505 187.307C238.295 194.506 230.569 199.994 221.896 205.322C184.521 228.287 149.433 236.672 106.941 238.828C106.877 238.831 106.812 238.835 106.747 238.837C70.3193 239.977 37.6306 226.898 18.1436 203.313C-1.69532 179.303 -6.59841 145.89 10.126 109.849C11.3608 107.188 13.6483 105.289 16.3076 104.485C15.3009 102.139 15.2235 99.4868 16.1162 97.0741C27.9845 64.997 52.5687 43.2943 80.5859 28.5868C108.483 13.9425 140.446 5.85961 168.63 1.18931Z" fill="white"/>
<path d="M170.422 11.0266C187.177 7.48718 216.985 13.6777 232.131 20.2966C269.62 36.8619 293.147 83.5608 251.915 111.186C241.349 118.265 217.529 115.343 213.261 126.009C218.935 135.399 239.916 127.355 248.309 157.696C243.365 177.421 233.466 186.476 216.662 196.801C181.031 218.693 147.667 226.747 106.435 228.839C38.4263 230.967 -11.3628 179.912 19.1974 114.057L20.8238 114.426C23.6785 118.897 22.384 132.296 22.1709 138.364C27.6481 127.673 27.4608 126.997 28.2863 115.116C28.459 112.623 35.5896 104.449 35.428 100.441L32.3984 100.096L31.63 96.9154L30.21 96.3028L25.9599 101.429L25.4945 100.542C46.9847 42.4584 115.001 20.1896 170.422 11.0266Z" fill="black"/>
<path d="M180.553 28.0036C194.548 24.0364 231.664 38.1133 240.858 50.6569C253.345 67.693 251.885 81.2823 235.879 93.9761C234.328 94.1645 232.783 94.3968 231.247 94.6739C209.502 98.6288 190.69 103.9 192.866 131.551C194.982 140.396 210.723 143.799 216.351 147.863C243.175 167.234 191.741 188.126 179.895 193.725C161.398 202.469 147.967 205.574 128.996 208.916C126.347 209.354 123.69 209.736 121.025 210.061C98.9493 212.683 68.5103 208.017 51.232 193.793C25.4536 172.57 23.567 134.318 38.2273 106.16C43.9007 95.2652 47.7615 82.8564 55.7412 73.2502C61.6188 66.1742 69.3718 60.473 77.1024 55.5839C79.1102 54.3189 83.9884 55.3695 86.3675 53.5795C117.556 36.931 145.602 31.0625 180.553 28.0036Z" fill="white"/>
<path d="M65.3901 122.984C93.8269 121.781 99.8301 155.757 72.0473 166.484C55.8604 169.737 50.9609 164.756 46.2442 149.915C49.4589 135.191 50.8543 129.567 65.3901 122.984Z" fill="black"/>
<path d="M178.408 42.2461C202.945 39.3319 211.353 63.7123 186.051 75.3424C157.471 77.3294 154.782 50.3317 178.408 42.2461Z" fill="black"/>
<path d="M110.114 58.0243C135.699 54.9028 137.552 81.3156 112.676 91.2471C99.0114 92.497 95.4983 88.9942 90.8747 76.9725C95.4624 65.3047 97.5431 61.6412 110.114 58.0243Z" fill="black"/>
<path d="M111.099 164.502C132.755 161.923 140.103 182.611 119.894 196.095C111.186 196.386 103.434 196.184 99.024 187.06C97.4223 183.725 97.2518 179.881 98.5529 176.417C101.11 169.548 105.028 167.268 111.099 164.502Z" fill="black"/>
<path d="M161.237 138.71C185.869 138.43 187.217 157.474 166.598 169.777C145.899 174.805 139.32 149.995 161.237 138.71Z" fill="black"/>
</svg>
